<?xml version="1.0" standalone="no"?>
<!DOCTYPE svg PUBLIC "-//W3C//DTD SVG 1.1//EN" "http://www.w3.org/Graphics/SVG/1.1/DTD/svg11.dtd" >
<svg xmlns="http://www.w3.org/2000/svg" xmlns:xlink="http://www.w3.org/1999/xlink" version="1.1">
<metadata>
Created by FontForge 20201107 at Wed Jun 19 12:50:02 2024
 By 
Copyright 2016-2023 Typotheque. All rights reserved.
</metadata>
<defs>
<font id="NovemberGeorgianVariable-Lt" horiz-adv-x="595" >
  <font-face 
    font-family="November Georgian Variable Lt"
    font-weight="300"
    font-stretch="normal"
    units-per-em="1000"
    panose-1="0 0 0 0 0 0 0 0 0 0"
    ascent="800"
    descent="-200"
    x-height="535"
    cap-height="755"
    bbox="-567.958 -367 2550 1156"
    underline-thickness="50"
    underline-position="-125"
    unicode-range="U+000D-1F6D2"
  />
<missing-glyph horiz-adv-x="712" 
d="M80 27h27v-27h-27v27zM155 27h27v-27h-27v27zM230 27h27v-27h-27v27zM455 27h27v-27h-27v27zM530 27h27v-27h-27v27zM605 27h27v-27h-27v27zM80 252h27v-27h-27v27zM80 177h27v-27h-27v27zM80 102h27v-27h-27v27zM305 177h27v-27h-27v27zM305 27h27v-27h-27v27zM380 27
h27v-27h-27v27zM80 477h27v-27h-27v27zM80 402h27v-27h-27v27zM80 327h27v-27h-27v27zM455 477h27v-27h-27v27zM455 402h27v-27h-27v27zM605 402h27v-27h-27v27zM605 327h27v-27h-27v27zM605 252h27v-27h-27v27zM605 177h27v-27h-27v27zM605 102h27v-27h-27v27zM80 702h27
v-27h-27v27zM80 627h27v-27h-27v27zM80 552h27v-27h-27v27zM155 702h27v-27h-27v27zM230 702h27v-27h-27v27zM230 552h27v-27h-27v27zM305 702h27v-27h-27v27zM305 552h27v-27h-27v27zM305 402h27v-27h-27v27zM305 327h27v-27h-27v27zM380 702h27v-27h-27v27zM380 552h27
v-27h-27v27zM380 402h27v-27h-27v27zM455 702h27v-27h-27v27zM455 552h27v-27h-27v27zM530 702h27v-27h-27v27zM605 702h27v-27h-27v27zM605 627h27v-27h-27v27zM605 552h27v-27h-27v27zM605 477h27v-27h-27v27z" />
    <glyph glyph-name="uni0361" unicode="&#xfe20;&#xfe21;" horiz-adv-x="683" 
d="M0 899v58q51 45 102.5 71.5t110 39t129.5 12.5v-55q-71 0 -129.5 -13.5t-109.5 -41.5t-103 -71zM684 899q-52 43 -105 71t-111 41.5t-126 13.5v55q71 0 129 -12.5t110 -39t103 -71.5v-58z" />
    <glyph glyph-name="uni27E6" unicode="[[" horiz-adv-x="491" 
d="M166 825v-984h105v984h-105zM96 -222v1110h342v-63h-97v-984h97v-63h-342z" />
    <glyph glyph-name="uni27E7" unicode="]]" horiz-adv-x="491" 
d="M219 -159h106v984h-106v-984zM394 888v-1110h-342v63h97v984h-97v63h342z" />
    <glyph glyph-name="uni2E28" unicode="&#x28;&#x28;" horiz-adv-x="516" 
d="M241 -222q-31 38 -58.5 103t-49 145t-34 164.5t-12.5 162.5q0 77 11.5 154t32.5 148t49 130.5t61 102.5h72q-31 -40 -58 -101t-47.5 -134t-32 -150.5t-11.5 -149.5q0 -58 8.5 -124t23 -132.5t33.5 -127.5t40.5 -110.5t43.5 -80.5h-72zM425 -222q-31 38 -58.5 103t-49 145
t-34 164.5t-12.5 162.5q0 77 11.5 154t32.5 148t49 130.5t61 102.5h72q-31 -40 -58 -101t-47.5 -134t-32 -150.5t-11.5 -149.5q0 -58 8.5 -124t23 -132.5t33.5 -127.5t40.5 -110.5t43.5 -80.5h-72z" />
    <glyph glyph-name="uni2E29" unicode="&#x29;&#x29;" horiz-adv-x="516" 
d="M275.029 887.973q30.9961 -37.9951 58.4932 -102.987q27.4961 -64.9922 48.9941 -144.982q21.4971 -79.9902 33.9951 -164.479q12.499 -84.4902 12.499 -162.48q0 -76.9902 -11.499 -153.981q-11.498 -76.9902 -32.4961 -147.981q-20.9971 -70.9912 -48.9941 -130.484
q-27.9961 -59.4922 -60.9922 -102.487h-71.9912q30.9961 39.9951 57.9932 100.987q26.9961 60.9932 47.4941 133.984q20.4971 72.9902 31.9961 150.481q11.498 77.4902 11.498 149.481q0 57.9932 -8.49805 123.985q-8.49902 65.9912 -22.998 132.483
q-14.498 66.4922 -33.4951 127.484q-18.998 60.9922 -40.4951 110.486q-21.498 49.4941 -43.4951 80.4902h71.9912zM91.0293 887.973q30.9961 -37.9951 58.4932 -102.987q27.4961 -64.9922 48.9941 -144.982q21.4971 -79.9902 33.9951 -164.479
q12.499 -84.4902 12.499 -162.48q0 -76.9902 -11.499 -153.981q-11.498 -76.9902 -32.4961 -147.981q-20.9971 -70.9912 -48.9941 -130.484q-27.9961 -59.4922 -60.9922 -102.487h-71.9912q30.9961 39.9951 57.9932 100.987q26.9961 60.9932 47.4941 133.984
q20.4971 72.9902 31.9961 150.481q11.498 77.4902 11.498 149.481q0 57.9932 -8.49805 123.985q-8.49902 65.9912 -22.998 132.483q-14.498 66.4922 -33.4951 127.484q-18.998 60.9922 -40.4951 110.486q-21.498 49.4941 -43.4951 80.4902h71.9912z" />
    <glyph glyph-name="f_idieresis" unicode="f&#xef;" horiz-adv-x="582" 
d="M44 475v60h58v52q0 56 19 96t57.5 62t97.5 22q18 0 29 -2t21 -5v-64q-8 4 -20.5 6.5t-29.5 2.5q-51 0 -77.5 -30t-26.5 -90v-50h140v-60h-140v-475h-70v475h-58zM428 0v535h70v-535h-70zM524 636v99h70v-99h-70zM360 636v99h70v-99h-70z" />
    <glyph glyph-name="f_igrave" unicode="f&#xec;" horiz-adv-x="582" 
d="M102 0v475h-58v60h58v52q0 56 19 96t57.5 62t97.5 22q18 0 29 -2t21 -5v-64q-8 4 -20.5 6.5t-29.5 2.5q-51 0 -77.5 -30t-26.5 -90v-50h140v-60h-140v-475h-70zM428 0v535h70v-535h-70zM423 775h-67l96 -153h59z" />
    <glyph glyph-name=".notdef" horiz-adv-x="712" 
d="M80 27h27v-27h-27v27zM155 27h27v-27h-27v27zM230 27h27v-27h-27v27zM455 27h27v-27h-27v27zM530 27h27v-27h-27v27zM605 27h27v-27h-27v27zM80 252h27v-27h-27v27zM80 177h27v-27h-27v27zM80 102h27v-27h-27v27zM305 177h27v-27h-27v27zM305 27h27v-27h-27v27zM380 27
h27v-27h-27v27zM80 477h27v-27h-27v27zM80 402h27v-27h-27v27zM80 327h27v-27h-27v27zM455 477h27v-27h-27v27zM455 402h27v-27h-27v27zM605 402h27v-27h-27v27zM605 327h27v-27h-27v27zM605 252h27v-27h-27v27zM605 177h27v-27h-27v27zM605 102h27v-27h-27v27zM80 702h27
v-27h-27v27zM80 627h27v-27h-27v27zM80 552h27v-27h-27v27zM155 702h27v-27h-27v27zM230 702h27v-27h-27v27zM230 552h27v-27h-27v27zM305 702h27v-27h-27v27zM305 552h27v-27h-27v27zM305 402h27v-27h-27v27zM305 327h27v-27h-27v27zM380 702h27v-27h-27v27zM380 552h27
v-27h-27v27zM380 402h27v-27h-27v27zM455 702h27v-27h-27v27zM455 552h27v-27h-27v27zM530 702h27v-27h-27v27zM605 702h27v-27h-27v27zM605 627h27v-27h-27v27zM605 552h27v-27h-27v27zM605 477h27v-27h-27v27z" />
    <glyph glyph-name=".null" horiz-adv-x="0" 
 />
    <glyph glyph-name="uni000D" unicode="&#xd;" horiz-adv-x="250" 
 />
    <glyph glyph-name="space" unicode=" " horiz-adv-x="253" 
 />
    <glyph glyph-name="exclam" unicode="!" horiz-adv-x="256" 
d="M161 207h-70v548h70v-548zM91 0v109h75v-109h-75z" />
    <glyph glyph-name="quotedbl" unicode="&#x22;" horiz-adv-x="415" 
d="M146 755l-10 -267h-56l-12 267h78zM346 755l-10 -267h-56l-12 267h78z" />
    <glyph glyph-name="numbersign" unicode="#" horiz-adv-x="666" 
d="M386 0l23 173h-216l-22 -173h-60l22 173h-106v60h114l39 295h-109v60h117l22 167h59l-22 -167h216l22 167h59l-21 -167h107v-60h-115l-39 -295h110v-60h-117l-23 -173h-60zM239 528l-38 -295h216l38 295h-216z" />
    <glyph glyph-name="dollar" unicode="$" horiz-adv-x="578" 
d="M261 865h69v-100q29 -1 52 -6q35 -7 64.5 -19t56.5 -31v-76q-49 34 -96 51q-35 14 -77 17v-288h1q63 -7 108.5 -28.5t70.5 -63t25 -109.5q0 -54 -19 -95.5t-53.5 -70t-82.5 -42.5q-24 -7 -50 -11v-115h-69v111q-55 1 -99 13q-47 13 -102 42v76q35 -21 69 -36t71 -23
q29 -7 61 -8v301l-12 1q-59 7 -102.5 31t-67 65t-23.5 102q0 50 18 89.5t51 67t77 41.5q28 9 59 13v101zM380 72q40 20 60.5 55t20.5 80q0 46 -15 74.5t-50 44.5q-26 12 -66 19v-288q28 5 50 15zM224 691q-33 -11 -54 -31t-31 -47.5t-10 -60.5q0 -44 14.5 -70.5t47.5 -40.5
q28 -12 70 -19v277q-20 -3 -37 -8z" />
    <glyph glyph-name="percent" unicode="%" horiz-adv-x="934" 
d="M707 46q41 0 67.5 16.5t38.5 46t12 66.5v59q0 36 -12 66.5t-38.5 48t-68.5 17.5t-68.5 -17.5t-39 -48t-12.5 -66.5v-59q0 -60 31 -94.5t90 -34.5zM230 387q41 0 67 17t38.5 46t12.5 66v59q0 37 -12 67t-38.5 47.5t-69.5 17.5q-41 0 -68 -17.5t-39 -47.5t-12 -67v-59
q0 -59 30.5 -94t90.5 -35zM198 0l473 755h66l-472 -755h-67zM705 -14q-53 0 -95 22t-65.5 64t-23.5 103v59q0 61 23.5 104.5t65.5 67t95 23.5q54 0 96 -23.5t65.5 -67t23.5 -104.5v-59q0 -60 -23.5 -102.5t-65.5 -64.5t-96 -22zM228 327q-53 0 -95 22t-65.5 64t-23.5 103v59
q0 61 23.5 104.5t65.5 67t95 23.5q54 0 95.5 -23.5t65.5 -67t24 -104.5v-59q0 -60 -24 -102t-65.5 -64.5t-95.5 -22.5z" />
    <glyph glyph-name="ampersand" unicode="&#x26;" horiz-adv-x="705" 
d="M292 -15q-53 0 -96.5 13t-74 38.5t-46.5 63t-16 85.5q0 36 12 68.5t35 60t57 47.5l47 29l-22 22q-28 31 -48.5 58.5t-31.5 56t-11 62.5q0 54 27.5 94t74 63t102.5 23q66 0 110.5 -22t67 -61t22.5 -91q0 -34 -13.5 -64.5t-41 -57t-67.5 -51.5l-63 -39l202 -203
q12 22 22 47q20 55 20 122h69q0 -64 -18 -120q-17 -53 -46 -96l131 -133h-89l-84 82q-17 -16 -35 -30q-43 -33 -92.5 -50t-103.5 -17zM173 287q-20 -21 -31 -47t-11 -56q0 -37 19.5 -67.5t56 -48.5t85.5 -18q57 0 106 21q45 20 80 56l-223 219l-39 -23q-24 -15 -43 -36z
M272 427l58 35q29 17 51 36.5t34.5 42.5t12.5 52q0 38 -16 63t-44.5 38t-66.5 13q-40 0 -69.5 -14.5t-46 -40.5t-16.5 -61q0 -29 15 -58t51 -68z" />
    <glyph glyph-name="quotesingle" unicode="'" horiz-adv-x="216" 
d="M146 755l-10 -267h-56l-12 267h78z" />
    <glyph glyph-name="parenleft" unicode="(" horiz-adv-x="332" 
d="M241 -222q-31 38 -58.5 103t-49 145t-34 164.5t-12.5 162.5q0 77 11.5 154t32.5 148t49 130.5t61 102.5h72q-31 -40 -58 -101t-47.5 -134t-32 -150.5t-11.5 -149.5q0 -58 8.5 -124t23 -132.5t33.5 -127.5t40.5 -110.5t43.5 -80.5h-72z" />
    <glyph glyph-name="parenright" unicode=")" horiz-adv-x="332" 
d="M91 888q31 -38 59 -98t49 -132.5t33.5 -151.5t12.5 -157q0 -77 -11.5 -159.5t-32.5 -160.5t-49 -143t-61 -108h-72q25 32 47.5 81.5t41 110t32 126t21 130.5t7.5 123q0 73 -13 151t-34 152t-48 135.5t-54 100.5h72z" />
    <glyph glyph-name="asterisk" unicode="*" horiz-adv-x="517" 
d="M73 637l155 -53v171h59v-174l158 54l22 -51l-157 -56l116 -153l-47 -35l-122 158l-121 -155l-45 35l116 150l-155 56z" />
    <glyph glyph-name="plus" unicode="+" horiz-adv-x="600" 
d="M63 348v60h205v207h64v-207h205v-60h-205v-207h-64v207h-205z" />
    <glyph glyph-name="comma" unicode="," horiz-adv-x="220" 
d="M49 -133l32 249h77l-46 -249h-63z" />
    <glyph glyph-name="hyphen" unicode="&#x2010;" horiz-adv-x="430" 
d="M71 240v59h288v-59h-288z" />
    <glyph glyph-name="hyphen" unicode="&#xad;" horiz-adv-x="430" 
d="M71 240v59h288v-59h-288z" />
    <glyph glyph-name="hyphen" unicode="-" horiz-adv-x="430" 
d="M71 240v59h288v-59h-288z" />
    <glyph glyph-name="period" unicode="." horiz-adv-x="222" 
d="M74 0v109h74v-109h-74z" />
    <glyph glyph-name="slash" unicode="/" horiz-adv-x="458" 
d="M25 -222l347 1040h60l-346 -1040h-61z" />
    <glyph glyph-name="zero" unicode="0" horiz-adv-x="609" 
d="M149 515v-282q0 -55 15.5 -95t49.5 -62t90 -22q54 0 88.5 21t51 61t16.5 97v282q0 63 -17 104t-51 61t-88 20q-79 0 -117 -45t-38 -140zM76 240v268q0 79 23.5 137t74 90t130.5 32t130.5 -32t75 -90t24.5 -137v-268q0 -73 -24.5 -130.5t-75 -90t-130.5 -32.5t-130.5 30.5
t-74 87.5t-23.5 135z" />
    <glyph glyph-name="one" unicode="1" horiz-adv-x="382" 
d="M31 575v73l198 107h53v-755h-74v664z" />
    <glyph glyph-name="two" unicode="2" horiz-adv-x="545" 
d="M248 700q-34 0 -64 -6.5t-60.5 -22t-67.5 -43.5v76q40 33 88 48t113 15q72 0 122 -22.5t75 -66.5t25 -108q0 -46 -15.5 -87t-41 -79.5t-58.5 -78.5l-216 -259h343v-66h-441v49l267 323q26 32 46 63t31 62.5t11 62.5q0 47 -18.5 78t-53.5 46.5t-85 15.5z" />
    <glyph glyph-name="three" unicode="3" horiz-adv-x="547" 
d="M249 767q68 0 117.5 -24t76.5 -67.5t27 -101.5q0 -46 -17 -80.5t-45 -58.5t-62 -38q-1 0 -2 -1q9 -3 19 -7q37 -14 65 -40t42.5 -62t14.5 -82q0 -48 -20.5 -88t-56 -69t-83 -45t-102.5 -16q-62 0 -101.5 12.5t-66.5 26.5v70q31 -15 57 -24.5t52.5 -13.5t58.5 -4
q55 0 98.5 17.5t68 51t24.5 80.5q0 44 -15.5 73.5t-42.5 47.5t-62 26t-73 8h-58v65h57q32 0 64 7.5t59 25t43 45t16 66.5q0 44 -20.5 73t-56.5 44.5t-85 15.5q-43 0 -85.5 -14.5t-92.5 -55.5v71q40 33 87.5 49.5t99.5 16.5z" />
    <glyph glyph-name="four" unicode="4" horiz-adv-x="564" 
d="M532 227v-66h-97v-161h-70v161h-332v60l240 534h76l-237 -528h253v220h70v-220h97z" />
    <glyph glyph-name="five" unicode="5" horiz-adv-x="554" 
d="M504 233q0 -62 -21.5 -108t-59 -76.5t-85 -46t-100.5 -15.5q-50 0 -94.5 12t-79.5 28v73q33 -15 77.5 -31t100.5 -16q59 0 101.5 19.5t66 57t23.5 91.5q0 55 -22 91t-60 53.5t-87 17.5q-33 0 -60.5 -5t-55.5 -16t-65 -30v423h385v-66h-316v-265q15 6 42.5 14.5t75.5 8.5
q67 0 120 -23.5t83.5 -71t30.5 -119.5z" />
    <glyph glyph-name="six" unicode="6" horiz-adv-x="569" 
d="M455 221q0 46 -20.5 83.5t-58 60t-89.5 22.5q-51 0 -89 -22.5t-58.5 -60t-20.5 -83.5t20.5 -84t58.5 -60t89 -22q52 0 89.5 22t58 60t20.5 84zM531 221q0 -66 -30.5 -119t-85 -84t-126.5 -31t-126.5 31t-85 84t-30.5 119q0 34 9.5 66t22.5 59t21 43l175 366h79l-156 -323
q19 11 42 17t49 6q72 0 126.5 -31t85 -83.5t30.5 -119.5z" />
    <glyph glyph-name="seven" unicode="7" horiz-adv-x="497" 
d="M191 0h-76l275 689h-365v66h446v-49z" />
    <glyph glyph-name="eight" unicode="8" horiz-adv-x="591" 
d="M295 -13q-69 0 -122 28t-82.5 76.5t-29.5 112.5q0 65 29.5 113.5t82.5 75.5q2 1 3 1q-44 25 -69 66q-27 46 -27 105q0 60 27 105.5t76 71t114 25.5q49 0 89 -14.5t68.5 -42t44 -64t15.5 -81.5q0 -59 -27 -105q-25 -42 -70 -66q0 -1 1 -1q52 -27 81.5 -75.5t29.5 -113.5
q0 -64 -29.5 -112.5t-82 -76.5t-122.5 -28zM296 54q50 0 86 19.5t56 54t20 77.5q0 45 -20 80t-55.5 55t-85.5 20q-49 0 -85.5 -20t-56.5 -55t-20 -80q0 -66 43.5 -108.5t117.5 -42.5zM298 423q68 0 108.5 39.5t40.5 100.5t-40.5 100.5t-108.5 39.5q-45 0 -78 -18
t-51.5 -49.5t-18.5 -72.5t18.5 -72.5t51.5 -49.5t78 -18z" />
    <glyph glyph-name="nine" unicode="9" horiz-adv-x="569" 
d="M113 533q0 -46 20.5 -84t58.5 -60t89 -22t89 22t58.5 60t20.5 84q0 47 -20.5 84.5t-58.5 60t-89 22.5t-89 -22.5t-58.5 -60t-20.5 -84.5zM37 533q0 67 30.5 119.5t85 83.5t126.5 31t126.5 -31t85 -83.5t30.5 -119.5q0 -30 -7.5 -58t-17.5 -51.5t-19 -39.5l-184 -384h-79
l155 321q-18 -10 -41 -16t-49 -6q-72 0 -126.5 31t-85 84t-30.5 119z" />
    <glyph glyph-name="colon" unicode=":" horiz-adv-x="222" 
d="M74 0v109h74v-109h-74zM75 426v109h74v-109h-74z" />
    <glyph glyph-name="semicolon" unicode=";" horiz-adv-x="231" 
d="M49 -133l32 249h77l-46 -249h-63zM81 426v109h74v-109h-74z" />
    <glyph glyph-name="less" unicode="&#x3c;" horiz-adv-x="600" 
d="M495 110l-401 228v78l401 229v-69l-349 -198l349 -198v-70z" />
    <glyph glyph-name="equal" unicode="=" horiz-adv-x="600" 
d="M81 222v60h438v-60h-438zM81 472v60h438v-60h-438z" />
    <glyph glyph-name="greater" unicode="&#x3e;" horiz-adv-x="600" 
d="M105.061 110l400.951 228v78l-400.951 229v-69l348.957 -198l-348.957 -198v-70z" />
    <glyph glyph-name="question" unicode="?" horiz-adv-x="492" 
d="M204 0v109h75v-109h-75zM451 564q0 -46 -13 -78.5t-33.5 -56t-42.5 -42.5t-42.5 -37.5t-33.5 -41t-13 -53.5v-48h-69v37q0 41 13 70.5t33 51t43 41t43 40.5t33 48.5t13 66.5q0 47 -17 79t-47.5 49t-73.5 17q-42 0 -73.5 -18t-48.5 -50t-17 -74v-14h-70v14
q0 56 24.5 102.5t71 74t112.5 27.5q50 0 88.5 -14.5t65.5 -42t40.5 -65t13.5 -83.5z" />
    <glyph glyph-name="at" unicode="@" horiz-adv-x="707" 
d="M547 299v44h-128q-67 0 -95.5 -21.5t-28.5 -79.5q0 -29 9.5 -51t30 -34t53.5 -12q30 0 58.5 9.5t51 29t36 48t13.5 67.5zM617 100h-70v77q-5 -9 -10 -16q-25 -37 -64 -56.5t-92 -19.5t-88 18.5t-51.5 53t-16.5 83.5q0 44 13 75.5t38 50.5t62.5 28t85.5 9h123v22
q0 38 -12 68.5t-36.5 51.5t-61.5 31.5t-88 10.5q-53 0 -92.5 -11.5t-65.5 -35t-38.5 -58.5t-12.5 -83v-231q0 -79 20 -128t54 -75t77 -35.5t88 -9.5h74v-65h-90h-7q-58 0 -109.5 15t-91.5 51.5t-62.5 98t-22.5 151.5v216q0 63 17 111.5t51.5 82t88.5 51t127 17.5
q84 0 142.5 -23t89.5 -71t31 -125v-330z" />
    <glyph glyph-name="A" unicode="A" horiz-adv-x="671" 
d="M334 671l-146 -404h288zM13 0l286 762h76l281 -762h-86l-70 201h-336l-73 -201h-78z" />
    <glyph glyph-name="B" unicode="B" horiz-adv-x="661" 
d="M335 755q86 0 141 -23.5t81 -67t26 -103.5q0 -54 -22.5 -90t-60.5 -59q-21 -12 -27 -16q2 1 2 2v0q-2 0 -15 -6q28 -7 61 -24t58 -56.5t25 -100.5q0 -42 -14 -80t-44.5 -68t-80 -46.5t-121.5 -16.5h-244v755h235zM173 66h163q58 0 101 14.5t67 45.5t24 81
q0 52 -20.5 84.5t-62 47.5t-106.5 15h-166v-288zM173 419h163q41 0 73 8.5t53.5 25.5t33 42.5t11.5 60.5q0 51 -23 80t-63 41t-93 12h-155v-270zM472 395q0 1 1 1l-3 -2v0z" />
    <glyph glyph-name="C" unicode="C" horiz-adv-x="602" 
d="M566 717v-75q-23 17 -51 30.5t-63 21t-77 7.5q-70 0 -122.5 -30t-82.5 -90.5t-30 -153.5v-106q0 -91 27.5 -150t80 -88.5t125.5 -29.5q34 0 66.5 4t64 14t60.5 26v-68q-26 -14 -55.5 -23.5t-63 -14t-71.5 -4.5q-94 0 -163.5 38t-107.5 114t-38 189v92q0 114 38.5 191
t108.5 116.5t162 39.5q48 0 84 -7t62 -18.5t46 -24.5z" />
    <glyph glyph-name="D" unicode="D" horiz-adv-x="690" 
d="M173 66h143q51 0 94.5 13t75 43t48.5 79t17 120v106q0 91 -29.5 148.5t-82.5 85.5t-123 28h-143v-623zM100 0v755h216q93 0 162.5 -36.5t108.5 -110.5t39 -188v-92q0 -113 -39 -186t-108.5 -107.5t-162.5 -34.5h-216z" />
    <glyph glyph-name="E" unicode="E" horiz-adv-x="603" 
d="M539 755v-66h-366v-271h337v-64h-337v-288h375v-66h-448v755h439z" />
    <glyph glyph-name="F" unicode="F" horiz-adv-x="579" 
d="M539 755v-66h-366v-271h337v-64h-337v-354h-73v755h439z" />
    <glyph glyph-name="G" unicode="G" horiz-adv-x="675" 
d="M65 328v92q0 85 23.5 150t66 109t101 66t128.5 22q48 0 87 -7t68 -18.5t49 -24.5v-75q-34 26 -87 42.5t-117 16.5q-51 0 -96 -17t-78 -50.5t-52 -85t-19 -121.5v-106q0 -91 30 -150t85 -88.5t129 -29.5q30 0 59.5 3t56.5 9q17 4 22 5h-1v0l11 4v265h-202v69h276v-372
q-40 -20 -95 -35t-127 -15q-70 0 -128.5 21.5t-101 64.5t-65.5 107t-23 149z" />
    <glyph glyph-name="H" unicode="H" horiz-adv-x="738" 
d="M173 755v-333h392v333h73v-755h-73v354h-392v-354h-73v755h73z" />
    <glyph glyph-name="I" unicode="I" horiz-adv-x="273" 
d="M173 755v-755h-73v755h73z" />
    <glyph glyph-name="J" unicode="J" horiz-adv-x="480" 
d="M312 192v497h-259v66h332v-567q0 -63 -26.5 -108t-75 -69.5t-114.5 -24.5q-35 0 -68.5 8.5t-56.5 19.5v68q24 -14 56.5 -21.5t68.5 -7.5q35 0 68 10t54 39.5t21 89.5z" />
    <glyph glyph-name="K" unicode="K" horiz-adv-x="643" 
d="M541 0l-237 354h-131v-354h-73v755h73v-336h132l228 336h84l-253 -364l265 -391h-88z" />
    <glyph glyph-name="L" unicode="L" horiz-adv-x="522" 
d="M173 755v-689h338v-66h-411v755h73z" />
    <glyph glyph-name="M" unicode="M" horiz-adv-x="842" 
d="M100 0v755h70l249 -459l253 459h70v-755h-70v615l-223 -407h-59l-220 401v-609h-70z" />
    <glyph glyph-name="N" unicode="N" horiz-adv-x="734" 
d="M100 0v755h70l395 -628v628h69v-755h-69l-395 631v-631h-70z" />
    <glyph glyph-name="O" unicode="O" horiz-adv-x="715" 
d="M140 427v-113q0 -87 25 -145t73.5 -87t118.5 -29q69 0 118 29t75 87t26 145v113q0 88 -26 149t-75 93t-118 32q-53 0 -93 -18.5t-68 -53.5t-42 -86t-14 -116zM65 321v99q0 114 35 191t101 117t156 40q69 0 123.5 -23t92.5 -67.5t58 -109t20 -148.5v-99q0 -85 -21.5 -148
t-61 -104.5t-93.5 -62t-118 -20.5t-118 20.5t-93 62t-60 104.5t-21 148z" />
    <glyph glyph-name="P" unicode="P" horiz-adv-x="628" 
d="M173 360h169q51 0 85 13.5t53.5 36.5t28 52.5t8.5 62.5q0 53 -20.5 89.5t-61 55.5t-102.5 19h-160v-329zM592 531q0 -70 -27 -123t-82 -83t-138 -30h-172v-295h-73v755h241q86 0 141.5 -30.5t82.5 -81t27 -112.5z" />
    <glyph glyph-name="Q" unicode="Q" horiz-adv-x="715" 
d="M65 321v99q0 114 35 191t101 117t156 40q69 0 123.5 -23t92.5 -67.5t58 -109t20 -148.5v-99q0 -85 -21.5 -148t-61.5 -105q-10 -10 -21 -19l92 -134h-81l-67 99q-8 -4 -16 -7q-54 -21 -118 -21t-118 20.5t-93 62t-60 104.5t-21 148zM343 231h80l85 -124q25 25 42 62
q26 58 26 145v113q0 88 -26 149t-75 93t-118 32q-53 0 -93 -18.5t-68 -53.5t-42 -86t-14 -116v-113q0 -87 25 -145t73.5 -87t118.5 -29q54 0 95 17z" />
    <glyph glyph-name="R" unicode="R" horiz-adv-x="664" 
d="M592 538q0 -70 -27 -121.5t-82 -79.5q-12 -6 -26 -11l166 -326h-87l-150 311q-20 -2 -41 -2h-172v-309h-73v755h241q86 0 141.5 -28.5t82.5 -77.5t27 -111zM173 374h169q51 0 85 12.5t53.5 34t28 50t8.5 61.5q0 53 -20.5 88t-61 52t-102.5 17h-160v-315z" />
    <glyph glyph-name="S" unicode="S" horiz-adv-x="604" 
d="M63 44v76q53 -32 108 -49.5t117 -17.5t104.5 19.5t64 54.5t21.5 80q0 46 -16.5 74.5t-53.5 44.5t-98 23l-50 6q-60 7 -105 31t-70 65t-25 102q0 50 19 89.5t53 67t80 42t100 14.5q46 0 83 -7t68 -19t58 -31v-76q-49 34 -99 51.5t-108 17.5q-46 0 -80 -11t-56 -31
t-33 -47.5t-11 -60.5q0 -44 16 -70.5t50.5 -41t91.5 -21.5l50 -6q63 -7 110 -28.5t74 -63t27 -109.5q0 -54 -19.5 -95.5t-56 -70t-86 -43t-109.5 -14.5q-61 0 -112.5 13t-106.5 42z" />
    <glyph glyph-name="T" unicode="T" horiz-adv-x="612" 
d="M600 755v-68h-252v-687h-73v687h-263v68h588z" />
    <glyph glyph-name="U" unicode="U" horiz-adv-x="747" 
d="M582 755h74v-433q0 -85 -18.5 -148t-54.5 -104.5t-89 -62t-122 -20.5q-92 0 -155 36.5t-94 111t-31 187.5v433h73v-440q0 -90 21.5 -148t67 -86t118.5 -28q76 0 122 29.5t67 87.5t21 145v440z" />
    <glyph glyph-name="V" unicode="V" horiz-adv-x="652" 
d="M634 755l-274 -767h-73l-265 767h82l222 -669l230 669h78z" />
    <glyph glyph-name="W" unicode="W" horiz-adv-x="961" 
d="M936 755l-201 -767h-72l-95 327l-89 319l-92 -318l-100 -327h-74l-178 766h79l142 -656l191 656h74l179 -658l159 658h77z" />
    <glyph glyph-name="X" unicode="X" horiz-adv-x="621" 
d="M13 0l255 387l-237 368h88l193 -312l198 312h82l-237 -363l251 -392h-88l-208 335l-213 -335h-84z" />
    <glyph glyph-name="Y" unicode="Y" horiz-adv-x="610" 
d="M587 755l-247 -455v-300h-73v302l-240 453h86l192 -379l203 379h79z" />
    <glyph glyph-name="Z" unicode="Z" horiz-adv-x="602" 
d="M559 687l-434 -619h434v-68h-515v68l438 619h-438v68h515v-68z" />
    <glyph glyph-name="bracketleft" unicode="[" horiz-adv-x="315" 
d="M96 -222v1110h167v-63h-97v-984h97v-63h-167z" />
    <glyph glyph-name="backslash" unicode="\" horiz-adv-x="458" 
d="M86 818l347 -1040h-61l-346 1040h60z" />
    <glyph glyph-name="bracketright" unicode="]" horiz-adv-x="315" 
d="M219 888v-1110h-167v63h97v984h-97v63h167z" />
    <glyph glyph-name="asciicircum" unicode="^" horiz-adv-x="600" 
d="M556 397h-79l-182 290l-172 -290h-79l217 358h71z" />
    <glyph glyph-name="underscore" unicode="_" horiz-adv-x="523" 
d="M482 -165h-440v61h440v-61z" />
    <glyph glyph-name="grave" unicode="`" horiz-adv-x="255" 
d="M146 622l-96 153h67l88 -153h-59z" />
    <glyph glyph-name="a" unicode="a" horiz-adv-x="538" 
d="M189 234q-34 -8 -53.5 -29t-19.5 -62q0 -48 29 -72t80 -24q37 0 74 13t63 43q22 25 27 66v72h-124q-42 0 -76 -7zM459 0h-70v69q-5 -8 -11 -16q-28 -33 -69 -49.5t-94 -16.5q-54 0 -92 18t-57.5 52t-19.5 82q0 44 14.5 73t39 47t53.5 27t59 12t56 3h121v32q0 28 -4 55
t-18.5 49t-43 35t-77.5 13q-46 0 -89.5 -13t-83.5 -49v70q32 26 74.5 40t106.5 14q57 0 94.5 -12t60 -33t33.5 -48t14 -57t3 -60v-337z" />
    <glyph glyph-name="b" unicode="b" 
d="M174 139q21 -39 58 -64.5t85 -25.5q31 0 58 10.5t47.5 32.5t32.5 56.5t12 82.5v73q0 38 -9.5 71t-28.5 58t-47.5 38.5t-66.5 13.5q-45 0 -82 -24t-59 -62q-17 -30 -21 -64v-126q3 -36 21 -70zM84 0v755h69v-302q26 41 68 67q44 27 104 27q71 0 118 -32.5t70 -88.5
t23 -127v-63q0 -76 -23.5 -132t-70 -86.5t-116.5 -30.5q-47 0 -83 18t-62 47q-15 18 -28 38v-90h-69z" />
    <glyph glyph-name="c" unicode="c" horiz-adv-x="493" 
d="M293 547q43 0 82 -8.5t72 -27.5v-72q-40 27 -79 36.5t-75 9.5q-35 0 -65 -9.5t-52.5 -30.5t-35 -55.5t-12.5 -84.5v-76q0 -38 10 -70.5t30 -57.5t51 -38.5t72 -13.5q37 0 75 10.5t80 36.5v-66q-28 -19 -69 -31t-89 -12q-71 0 -122.5 30.5t-79.5 86.5t-28 130v66
q0 72 25.5 127.5t77.5 87.5t132 32z" />
    <glyph glyph-name="d" unicode="d" 
d="M420 399q-21 38 -58 62t-82 24q-32 0 -59.5 -10.5t-48.5 -32.5t-32.5 -56t-11.5 -82v-73q0 -38 9.5 -71t28 -58t46.5 -39t66 -14q49 0 85.5 25.5t57 64t20.5 79.5v114q-3 35 -21 67zM441 0v90q-11 -19 -26 -36q-26 -30 -62 -48.5t-83 -18.5q-70 0 -117.5 31t-71 87
t-23.5 131v63q0 72 23.5 128t70.5 88t117 32q60 0 104 -26q42 -26 68 -69v303h70v-755h-70z" />
    <glyph glyph-name="e" unicode="e" horiz-adv-x="552" 
d="M426 297v16q0 56 -15.5 94.5t-48.5 58t-83 19.5q-32 0 -59.5 -10t-48 -31.5t-32 -56t-11.5 -82.5v-8h298zM496 237h-368v-8q0 -39 10.5 -71.5t32 -57t54.5 -38t78 -13.5t87.5 8t93.5 39v-63q-44 -26 -88.5 -36t-99.5 -10q-74 0 -127.5 29.5t-81.5 84.5t-28 133v66
q0 57 15 103t44 78t69.5 49t90.5 17q66 0 115.5 -25.5t76 -78.5t26.5 -133v-73z" />
    <glyph glyph-name="f" unicode="f" horiz-adv-x="334" 
d="M102 0v475h-58v60h58v52q0 56 19 96t57.5 62t97.5 22q18 0 29 -2t21 -5v-64q-8 4 -20.5 6.5t-29.5 2.5q-51 0 -77.5 -30t-26.5 -90v-50h140v-60h-140v-475h-70z" />
    <glyph glyph-name="g" unicode="g" 
d="M420 399q-21 38 -58 62t-83 24q-31 0 -58.5 -10.5t-48.5 -32.5t-32.5 -56t-11.5 -82v-73q0 -38 9.5 -71t28 -58t46.5 -39t66 -14q48 0 84.5 25.5t58 64t21.5 79.5v114q-4 35 -22 67zM270 -13q-70 0 -117.5 31t-71 87t-23.5 131v63q0 72 23.5 128t70.5 88t116 32
q61 0 105 -26q42 -26 69 -69v83h69v-534q0 -70 -26.5 -123t-80 -82.5t-135.5 -29.5q-32 0 -63 4.5t-59.5 12t-53.5 17.5v66q46 -20 93 -28.5t84 -8.5q65 0 102.5 21.5t53.5 61t16 93.5v86q-12 -19 -26 -36q-26 -31 -62 -49.5t-84 -18.5z" />
    <glyph glyph-name="h" unicode="h" horiz-adv-x="598" 
d="M84 0v755h69v-302q14 22 32 40q27 26 63 40t80 14q67 0 109 -25.5t62 -75t20 -119.5v-327h-70v320q0 58 -17.5 93.5t-48.5 52t-71 16.5q-42 0 -78.5 -18t-58.5 -54.5t-22 -93.5v-316h-69z" />
    <glyph glyph-name="i" unicode="i" horiz-adv-x="237" 
d="M84 0v535h69v-535h-69zM81 651v99h75v-99h-75z" />
    <glyph glyph-name="j" unicode="j" horiz-adv-x="245" 
d="M162 535v-585q0 -44 -10 -78.5t-30.5 -58t-52 -35.5t-74.5 -12q-17 0 -28 2t-20 5v65q8 -4 21 -6.5t28 -2.5q50 0 73 30.5t23 94.5v581h70zM89 651v99h75v-99h-75z" />
    <glyph glyph-name="k" unicode="k" horiz-adv-x="511" 
d="M84 0v755h69v-441h94l156 221h79l-182 -246l200 -289h-81l-175 255l-91 1v-256h-69z" />
    <glyph glyph-name="l" unicode="l" horiz-adv-x="275" 
d="M80 133v622h70v-618q0 -45 12 -66t44 -21q16 0 30.5 3t22.5 7v-61q-10 -4 -26.5 -8t-34.5 -4q-45 0 -70.5 16.5t-36.5 49t-11 80.5z" />
    <glyph glyph-name="m" unicode="m" horiz-adv-x="944" 
d="M509 0h-70v320q0 57 -17 92.5t-47 52.5t-70 17q-43 0 -77.5 -19t-54.5 -55t-20 -85v-323h-69v535h69v-75q12 19 28 35q26 25 60.5 38.5t79.5 13.5q67 0 108 -26t61 -75q1 -5 3 -10l8 16q26 44 69 69.5t105 25.5q67 0 108.5 -26.5t61.5 -76t20 -117.5v-327h-70v320
q0 55 -17 91t-47.5 53.5t-71.5 17.5q-46 0 -80 -21t-52 -59q-17 -37 -18 -84v-318z" />
    <glyph glyph-name="n" unicode="n" horiz-adv-x="598" 
d="M84 0v535h69v-82q14 22 32 40q27 26 63 40t80 14q67 0 109 -25.5t62 -75t20 -119.5v-327h-70v320q0 58 -17.5 93.5t-48.5 52t-71 16.5q-42 0 -78.5 -18t-58.5 -54.5t-22 -93.5v-316h-69z" />
    <glyph glyph-name="o" unicode="o" horiz-adv-x="571" 
d="M128 306v-78q0 -86 43 -132.5t114 -46.5q74 0 116 47t42 132v78q0 88 -43 134t-115 46q-71 0 -114 -46t-43 -134zM59 233v68q0 81 29 136t80 82.5t117 27.5t117.5 -27.5t81 -82.5t29.5 -136v-68q0 -61 -16.5 -107t-47.5 -77t-72.5 -46.5t-91.5 -15.5q-66 0 -117 28
t-80 82.5t-29 135.5z" />
    <glyph glyph-name="p" unicode="p" 
d="M174 139q21 -39 58 -64.5t85 -25.5q31 0 58 10.5t47.5 32.5t32.5 56.5t12 82.5v73q0 38 -9.5 71t-28.5 58t-47.5 38.5t-66.5 13.5q-45 0 -82 -24t-59 -62q-17 -30 -21 -64v-126q3 -36 21 -70zM84 -222v757h69v-82q26 41 68 67q44 27 104 27q71 0 118 -32.5t70 -88.5
t23 -127v-63q0 -76 -23.5 -132t-70 -86.5t-116.5 -30.5q-47 0 -83 18t-62 47q-15 18 -28 38v-312h-69z" />
    <glyph glyph-name="q" unicode="q" 
d="M420 399q-21 38 -58 62t-82 24q-32 0 -59.5 -10.5t-48.5 -32.5t-32.5 -56t-11.5 -82v-73q0 -38 9.5 -71t28 -58t46.5 -39t66 -14q49 0 85.5 25.5t57 64t20.5 79.5v114q-3 35 -21 67zM441 -223v313q-11 -19 -26 -36q-26 -30 -62 -48.5t-83 -18.5q-70 0 -117.5 31t-71 87
t-23.5 131v63q0 72 23.5 128t70.5 88t117 32q60 0 104 -26q42 -26 68 -69v83h70v-758h-70z" />
    <glyph glyph-name="r" unicode="r" horiz-adv-x="354" 
d="M330 547v-67q-5 1 -9.5 1.5t-8.5 0.5q-42 0 -76.5 -22.5t-56.5 -60.5t-26 -86v-313h-69v535h69v-94q16 27 36 48q27 27 62 42.5t79 15.5z" />
    <glyph glyph-name="s" unicode="s" horiz-adv-x="507" 
d="M60 28v69q46 -22 91 -35t92 -13q67 0 107.5 24.5t40.5 73.5q0 29 -14 49t-41.5 31.5t-68.5 14.5l-53 4q-43 3 -80 17t-59 45.5t-22 85.5q0 37 16 65.5t44.5 48t64.5 30t76 10.5t73.5 -5t60.5 -13.5t49 -21.5v-70q-45 26 -92 36.5t-84 10.5q-65 0 -102.5 -24t-37.5 -70
q0 -33 17 -50.5t44 -25t57 -10.5l60 -5q49 -3 85 -19t56 -48t20 -83q0 -42 -19.5 -73t-51.5 -50.5t-70.5 -29t-77.5 -9.5q-30 0 -63 4.5t-64 14t-54 21.5z" />
    <glyph glyph-name="t" unicode="t" horiz-adv-x="377" 
d="M124 162v313h-100v60h100v165h70v-165h145v-60h-145v-309q0 -40 9 -65.5t30 -38.5t56 -13q16 0 34.5 2.5t28.5 6.5v-62q-12 -4 -29 -6.5t-39 -2.5q-42 0 -72.5 12t-50 34.5t-28.5 55.5t-9 73z" />
    <glyph glyph-name="u" unicode="u" horiz-adv-x="594" 
d="M79 535h69v-327q0 -57 17 -91.5t47.5 -49t70.5 -14.5q43 0 78.5 20t57.5 57t22 85v320h70v-535h-70v79q-13 -20 -30 -37q-26 -26 -61 -40.5t-79 -14.5q-66 0 -109 26t-63 75.5t-20 119.5v327z" />
    <glyph glyph-name="v" unicode="v" horiz-adv-x="543" 
d="M521 535l-212 -545h-75l-213 545h76l175 -466l177 466h72z" />
    <glyph glyph-name="w" unicode="w" horiz-adv-x="844" 
d="M26 535h76l135 -463l153 463h68l153 -458l134 458h72l-169 -544h-73l-152 443l-152 -443h-75z" />
    <glyph glyph-name="x" unicode="x" horiz-adv-x="498" 
d="M19 0l193 276l-176 259h83l132 -202l137 202h77l-180 -254l193 -281h-83l-148 224l-148 -224h-80z" />
    <glyph glyph-name="y" unicode="y" horiz-adv-x="543" 
d="M238 -222h-75l76 207l-215 550h76l175 -464l176 464h72l-209 -535h-1z" />
    <glyph glyph-name="z" unicode="z" horiz-adv-x="497" 
d="M451 535v-50l-326 -423h329v-62h-414v53l324 420h-316v62h403z" />
    <glyph glyph-name="braceleft" unicode="{" horiz-adv-x="341" 
d="M129 469v257q0 53 15.5 89t49 54.5t87.5 18.5h20v-63h-13q-49 0 -69 -27.5t-20 -75.5v-271q0 -30 -11.5 -56.5t-31.5 -48.5q-6 -6 -13 -12q7 -6 13 -12q20 -22 31.5 -54.5t11.5 -74.5v-249q0 -48 20 -75.5t69 -27.5h13v-63h-20q-54 0 -87.5 18.5t-49 55t-15.5 88.5v258
q0 50 -21 77t-68 27h-12v63h12q47 0 68 27t21 77z" />
    <glyph glyph-name="bar" unicode="|" horiz-adv-x="247" 
d="M154 818v-1040h-60v1040h60z" />
    <glyph glyph-name="braceright" unicode="}" horiz-adv-x="341" 
d="M212 197v-257q0 -52 -15.5 -88.5t-49 -55t-87.5 -18.5h-20v63h13q50 0 69.5 27.5t19.5 75.5v271q0 30 11.5 56.5t31.5 47.5q6 7 13 13q-7 6 -13 12q-20 22 -31.5 54.5t-11.5 74.5v249q0 48 -19.5 75.5t-69.5 27.5h-13v63h20q54 0 87.5 -18.5t49 -54.5t15.5 -89v-258
q0 -50 21 -77t68 -27h12v-63h-12q-47 0 -68 -26.5t-21 -77.5z" />
    <glyph glyph-name="asciitilde" unicode="~" horiz-adv-x="600" 
d="M197 365q-30 0 -64 -16.5t-63 -41.5v60q22 23 56 41t71 18q38 0 73 -15.5l70 -31t68 -15.5q34 0 64 18t58 45v-62q-22 -22 -56.5 -42t-70.5 -20q-26 0 -52 9.5t-52.5 21.5t-52 21.5t-49.5 9.5z" />
    <glyph glyph-name="uni00A0" unicode="&#xa0;" horiz-adv-x="253" 
 />
    <glyph glyph-name="exclamdown" unicode="&#xa1;" horiz-adv-x="256" 
d="M161 328.025h-70v-547.934h70v547.934zM91 535v-108.986h75v108.986h-75z" />
    <glyph glyph-name="cent" unicode="&#xa2;" horiz-adv-x="509" 
d="M230 476q-30 -10 -52.5 -31t-35 -55.5t-12.5 -84.5v-76q0 -38 9.5 -71t30 -57.5t50.5 -38.5q16 -7 33 -10v430q-12 -2 -23 -6zM312 658v-111q33 -1 65 -8q39 -9 71 -27v-73q-39 28 -78 37q-30 8 -58 9v-436q15 1 30 4q25 5 51 15.5t54 27.5v-66q-28 -19 -68 -31
q-31 -10 -67 -12v-110h-59v112q-48 6 -86 28q-51 31 -79 87t-28 130v66q0 72 25 127.5t78 87.5q38 24 90 30v113h59z" />
    <glyph glyph-name="sterling" unicode="&#xa3;" horiz-adv-x="588" 
d="M455 414v-66h-234v-282h326v-66h-495v66h96v282h-96v66h96v105q0 53 15.5 98t45 79.5t72 53.5t95.5 19q54 0 83.5 -12t48.5 -21v-69q-24 14 -57.5 25t-75.5 11q-37 0 -65 -12t-48 -35.5t-30.5 -58.5t-10.5 -81v-102h234z" />
    <glyph glyph-name="currency" unicode="&#xa4;" horiz-adv-x="619" 
d="M502 405v-38q0 -60 -27 -102q-3 -6 -7 -11l87 -98l-47 -41l-85 96q-9 -6 -19 -11q-44 -22 -98 -22t-98 22q-7 3 -14 7l-81 -92l-47 41l82 93q-6 7 -11 15q-26 42 -26 103v38q0 61 26 105q5 7 10 15l-81 92l47 40l79 -90q7 5 16 10q44 23 98 23t98 -23q11 -6 21 -13l83 93
l47 -40l-86 -98q3 -4 6 -9q27 -44 27 -105zM435 367v38q0 40 -15.5 70t-44.5 46t-69 16q-39 0 -68.5 -16.5t-45.5 -46.5t-16 -69v-38q0 -39 16 -68.5t45.5 -45t69.5 -15.5t68.5 16t44 45t15.5 68z" />
    <glyph glyph-name="yen" unicode="&#xa5;" horiz-adv-x="634" 
d="M76 140v59h205v104h-205v59h176l-211 393h86l193 -373l203 373h78l-216 -393h167v-59h-197v-104h197v-59h-197v-140h-74v140h-205z" />
    <glyph glyph-name="brokenbar" unicode="&#xa6;" horiz-adv-x="244" 
d="M152 817v-428h-60v428h60zM152 212v-435h-60v435h60z" />
    <glyph glyph-name="section" unicode="&#xa7;" horiz-adv-x="568" 
d="M341 182q30 8 52 23.5t34.5 37.5t12.5 52q0 35 -19 58.5t-52 37t-75 18.5l-16 2q-42 -1 -73 -15q-34 -16 -52 -43.5t-18 -64.5q0 -26 10.5 -45t30 -32.5t45.5 -21t55 -11.5l19 -3q24 2 46 7zM154 444q-41 22 -64 59t-23 87q0 43 17 76.5t48 57t73.5 35t92.5 11.5
q33 0 66 -4.5t62.5 -15.5t54.5 -27v-72q-45 30 -90 44.5t-97 14.5q-41 0 -70.5 -9.5t-48.5 -26t-28 -39t-9 -47.5q0 -28 10.5 -48t29.5 -33t44.5 -21t55.5 -12l47 -6q83 -10 132.5 -53.5t49.5 -116.5q0 -44 -19.5 -76.5t-52.5 -54.5q-14 -9 -29 -16q7 -2 14 -6
q40 -19 62.5 -53.5t22.5 -86.5q0 -63 -31.5 -104.5t-86.5 -62t-126 -20.5q-35 0 -68 5.5t-64 16t-60 26.5v72q45 -30 95 -45t102 -15q51 0 88.5 13.5t58.5 41.5t21 69q0 42 -20 64t-53.5 32t-74.5 15l-48 6q-51 7 -90 29.5t-61 58.5t-22 82q0 37 16.5 69t47.5 55
q18 14 39 24q-7 3 -14 7z" />
    <glyph glyph-name="dieresis" unicode="&#xa8;" horiz-adv-x="377" 
d="M50 651v99h71v-99h-71zM256 651v99h71v-99h-71z" />
    <glyph glyph-name="copyright" unicode="&#xa9;" horiz-adv-x="895" 
d="M110 377q0 -70 25 -131.5t70.5 -109t107 -74t134.5 -26.5t134.5 26.5t107.5 74t71.5 109t25.5 131.5t-24.5 132t-69.5 109t-107.5 74t-137.5 27q-74 0 -136 -27t-107 -74t-69.5 -109t-24.5 -132zM562 572v-56q-20 14 -48.5 23t-62.5 9q-40 0 -69 -15.5t-44 -47t-15 -79.5
v-60q0 -48 15 -79t43.5 -45.5t70.5 -14.5q16 0 35.5 2t38.5 7.5t35 14.5v-52q-15 -8 -33.5 -13t-39 -7.5t-41.5 -2.5q-56 0 -97 21.5t-63 64.5t-22 108v52q0 65 22.5 108.5t63.5 66t97 22.5q26 0 47.5 -4t38.5 -9.5t28 -13.5zM56 377q0 81 30.5 152t84 125t124.5 84.5
t152 30.5t152 -30.5t125 -84.5t84.5 -125t30.5 -152t-30.5 -152t-84.5 -124.5t-125 -84t-152 -30.5t-152 30.5t-124.5 84t-84 124.5t-30.5 152z" />
    <glyph glyph-name="ordfeminine" unicode="&#xaa;" horiz-adv-x="494" 
d="M158 515q-27 -16 -27 -54q0 -36 22.5 -53.5t63.5 -17.5q30 0 59.5 9.5t49.5 32.5q18 20 22 51v48h-100q-63 0 -90 -16zM80 217v57h338v-57h-338zM408 350h-60v52q-4 -6 -9 -12q-22 -25 -55 -37.5t-75 -12.5q-45 0 -75.5 14t-46.5 40.5t-16 63.5q0 65 45.5 94t134.5 29h97
v21q0 36 -9.5 61.5t-35 38.5t-74.5 13q-39 0 -71 -10t-64 -38v60q25 19 57.5 30t86.5 11q65 0 102 -17t52.5 -52.5t15.5 -92.5v-256z" />
    <glyph glyph-name="guillemotleft" unicode="&#xab;" horiz-adv-x="456" 
d="M232 490l-119 -206l117 -218h-63l-121 216l124 208h62zM402 490l-119 -206l117 -218h-63l-121 216l124 208h62z" />
    <glyph glyph-name="logicalnot" unicode="&#xac;" horiz-adv-x="600" 
d="M63 355v60h437v-255h-65v195h-372z" />
    <glyph glyph-name="registered" unicode="&#xae;" horiz-adv-x="679" 
d="M61 491q0 57 21.5 107.5t59.5 89t88.5 60t108.5 21.5t108.5 -21.5t89 -60t60 -89t21.5 -107.5q0 -58 -21.5 -108.5t-60 -89t-89 -60t-108.5 -21.5t-108.5 21.5t-88.5 60t-59.5 89t-21.5 108.5zM103 491q0 -66 30.5 -121t83.5 -88t122 -33t122.5 33t84.5 88t31 121
q0 49 -17 93t-48.5 77t-75 52.5t-97.5 19.5q-53 0 -96 -19.5t-74.5 -52.5t-48.5 -77t-17 -93zM461 562q0 -31 -12 -54t-36 -36q-3 -2 -7 -3l66 -140h-53l-58 131q-4 -1 -9 -1h-71v-130h-46v330h115q57 0 84 -27.5t27 -69.5zM281 498h62q27 0 43 7.5t22.5 21.5t6.5 32
q0 33 -18.5 47t-57.5 14h-58v-122z" />
    <glyph glyph-name="macron" unicode="&#xaf;" horiz-adv-x="365" 
d="M50 658v52h265v-52h-265z" />
    <glyph glyph-name="degree" unicode="&#xb0;" horiz-adv-x="492" 
d="M247 408q42 0 69.5 16.5t41 46t13.5 66.5v38q0 37 -13.5 67t-41 47.5t-70.5 17.5q-41 0 -69.5 -17.5t-42 -47.5t-13.5 -67v-38q0 -39 15.5 -68.5t43.5 -45t67 -15.5zM246 348q-53 0 -96.5 22t-68.5 64t-25 103v38q0 61 25 104.5t68.5 67t96.5 23.5q54 0 97 -23.5
t68.5 -67t25.5 -104.5v-38q0 -60 -25.5 -102t-68.5 -64.5t-97 -22.5z" />
    <glyph glyph-name="plusminus" unicode="&#xb1;" horiz-adv-x="600" 
d="M83 418v60h184v187h64v-187h186v-60h-186v-187h-64v187h-184zM83 70v60h434v-60h-434z" />
    <glyph glyph-name="twosuperior" unicode="&#xb2;" horiz-adv-x="299" 
d="M128 893q-20 0 -41 -6t-44 -23v48q20 14 44 20.5t51 6.5q54 0 84 -24t30 -71q0 -34 -15 -61.5t-39 -55.5l-99 -109h161v-43h-221v33l126 147q17 20 27 39t10 41q0 29 -19 43.5t-55 14.5z" />
    <glyph glyph-name="threesuperior" unicode="&#xb3;" horiz-adv-x="301" 
d="M142 939q35 0 59 -12t37 -32.5t13 -48.5q0 -29 -14.5 -48t-35.5 -30l-10 -4q10 -3 19 -8q22 -12 35 -32t13 -48q0 -31 -16 -55t-45 -38t-71 -14q-25 0 -46.5 5.5t-37.5 14.5v46q22 -11 40.5 -16.5t40.5 -5.5q41 0 64 17.5t23 47.5q0 23 -12 36t-31.5 18.5t-41.5 5.5h-28
v40h27q20 0 38.5 7t30.5 21t12 34q0 25 -19 40.5t-54 15.5q-19 0 -40.5 -6.5t-45.5 -25.5v47q20 14 45 21t51 7z" />
    <glyph glyph-name="acute" unicode="&#xb4;" horiz-adv-x="255" 
d="M50 622l88 153h67l-96 -153h-59z" />
    <glyph glyph-name="uni00B5" unicode="&#xb5;" horiz-adv-x="609" 
d="M456 0v77q-13 -20 -30 -36q-25 -25 -60 -39t-80 -14q-62 0 -98 23q-14 9 -24 21v-254h-70v757h70v-333q1 -54 18 -87t47 -47.5t69 -14.5q43 0 78.5 19.5t57.5 55.5q19 31 22 73v334h70v-535h-70z" />
    <glyph glyph-name="paragraph" unicode="&#xb6;" horiz-adv-x="668" 
d="M195 671q-41 -18 -61.5 -54.5t-20.5 -91.5q0 -48 18.5 -83.5t57.5 -54.5t99 -19h30v321h-21q-61 0 -102 -18zM391 755v-977h-73v525h-33q-83 0 -138 26.5t-82 76.5t-27 119q0 47 15 88.5t46 73.5t78.5 50t111.5 18h102zM568 755v-977h-72v977h72z" />
    <glyph glyph-name="periodcentered" unicode="&#xb7;" horiz-adv-x="223" 
d="M75 329v109h74v-109h-74z" />
    <glyph glyph-name="cedilla" unicode="&#xb8;" horiz-adv-x="263" 
d="M50 -222v46h49q34 0 48.5 7.5t14.5 28.5q-1 17 -12.5 24t-38.5 7h-37v29l22 85h42l-17 -75q50 -1 71 -19t21 -50q0 -37 -26.5 -60t-85.5 -23h-51z" />
    <glyph glyph-name="onesuperior" unicode="&#xb9;" horiz-adv-x="226" 
d="M30 835v48l92 49h37v-357h-48v300z" />
    <glyph glyph-name="ordmasculine" unicode="&#xba;" horiz-adv-x="514" 
d="M428 213v57h-338v-57h338zM130 520q0 -63 34 -97.5t91 -34.5q59 0 93 34.5t34 97.5v59q0 65 -35 99t-92 34t-91 -34t-34 -99v-59zM71 575q0 63 24 105t66 63t94 21q54 0 95.5 -21t66 -63t24.5 -105v-51q0 -61 -24.5 -103.5t-66 -63.5t-95.5 -21q-52 0 -94 21t-66 63.5
t-24 103.5v51z" />
    <glyph glyph-name="guillemotright" unicode="&#xbb;" horiz-adv-x="449" 
d="M54.0283 490l118.985 -206l-116.985 -218h62.9922l120.985 216l-123.985 208h-61.9922zM217.028 490l118.985 -206l-116.985 -218h62.9922l120.985 216l-123.985 208h-61.9922z" />
    <glyph glyph-name="onequarter" unicode="&#xbc;" horiz-adv-x="729" 
d="M35 658v48l92 49h37v-357h-48v300zM86 0l505 755h56l-504 -755h-57zM691 116v-41h-40v-75h-47v75h-155v40l108 242h49l-108 -241h106v96h47v-96h40z" />
    <glyph glyph-name="onehalf" unicode="&#xbd;" horiz-adv-x="771" 
d="M35 658v48l92 49h37v-357h-48v300zM86 0l505 755h56l-504 -755h-57zM594 318q-20 0 -41 -6t-44 -23v48q20 14 44 20.5t51 6.5q54 0 84 -24t30 -71q0 -34 -15 -61.5t-39 -54.5l-99 -110h161v-43h-221v33l126 147q17 20 27 39t10 41q0 29 -19 43.5t-55 14.5z" />
    <glyph glyph-name="threequarters" unicode="&#xbe;" horiz-adv-x="783" 
d="M151 760q35 0 59 -12t37 -32.5t13 -48.5q0 -29 -14.5 -48t-35.5 -30l-10 -4q10 -3 19 -8q22 -12 35 -32t13 -48q0 -31 -16 -55t-45 -38t-71 -14q-25 0 -46.5 5.5t-37.5 14.5v46q22 -11 40.5 -16.5t40.5 -5.5q41 0 64 17.5t23 47.5q0 23 -12 36t-31.5 18.5t-41.5 5.5h-28
v40h27q20 0 38.5 7t30.5 21t12 34q0 25 -19 40.5t-54 15.5q-19 0 -40.5 -6.5t-45.5 -25.5v47q20 14 45 21t51 7zM132 0l505 755h56l-504 -755h-57zM746 116v-41h-40v-75h-47v75h-155v40l108 242h49l-108 -241h106v96h47v-96h40z" />
    <glyph glyph-name="questiondown" unicode="&#xbf;" horiz-adv-x="492" 
d="M285.025 535v-108.986h-74.9912v108.986h74.9912zM38.0547 -28.9316q0 45.9951 12.999 78.4912q12.998 32.4961 33.4961 55.9932q20.4971 23.4971 42.4941 42.4941q21.9971 18.998 42.4951 37.4961q20.4971 18.4971 33.4961 40.9951q12.998 22.4971 12.998 53.4932
v47.9941h68.9922v-36.9961q0 -40.9941 -12.999 -70.4912q-12.998 -29.4961 -32.9961 -50.9932q-19.9971 -21.498 -42.9941 -40.9951q-22.9971 -19.498 -42.9951 -40.4951q-19.998 -20.998 -32.9961 -48.4941q-12.998 -27.4971 -12.998 -66.4922q0 -46.9941 16.998 -78.9902
t47.4941 -48.9941t73.4902 -16.998q41.9951 0 73.4912 17.998t48.4941 49.9941t16.998 73.9912v13.998h69.9912v-13.998q0 -55.9932 -24.4971 -102.488q-24.4971 -46.4941 -70.9912 -73.9902q-46.4941 -27.4971 -112.486 -27.4971q-49.9932 0 -88.4893 14.498
q-38.4951 14.498 -65.4912 41.9951q-26.9971 27.4971 -40.4951 64.9922q-13.499 37.4951 -13.499 83.4893z" />
    <glyph glyph-name="Agrave" unicode="&#xc0;" horiz-adv-x="671" 
d="M334 671l-146 -404h288zM13 0l286 762h76l281 -762h-86l-70 201h-336l-73 -201h-78zM308 827l-85 133h67l77 -133h-59z" />
    <glyph glyph-name="Aacute" unicode="&#xc1;" horiz-adv-x="671" 
d="M334 671l-146 -404h288zM13 0l286 762h76l281 -762h-86l-70 201h-336l-73 -201h-78zM308 827l77 133h67l-85 -133h-59z" />
    <glyph glyph-name="Acircumflex" unicode="&#xc2;" horiz-adv-x="671" 
d="M334 671l-146 -404h288zM13 0l286 762h76l281 -762h-86l-70 201h-336l-73 -201h-78zM188 827l121 133h58l121 -133h-70l-80 89l-79 -89h-71z" />
    <glyph glyph-name="Atilde" unicode="&#xc3;" horiz-adv-x="671" 
d="M334 671l-146 -404h288zM13 0l286 762h76l281 -762h-86l-70 201h-336l-73 -201h-78zM273 881q-19 0 -40.5 -11t-39.5 -25v51q14 13 34.5 26t45.5 13q21 0 44.5 -10t46.5 -20.5t42 -10.5q20 0 40 12t36 25v-50q-12 -15 -33.5 -28t-44.5 -13q-21 0 -44 10.5t-45 20.5
t-42 10z" />
    <glyph glyph-name="Adieresis" unicode="&#xc4;" horiz-adv-x="671" 
d="M334 671l-146 -404h288zM13 0l286 762h76l281 -762h-86l-70 201h-336l-73 -201h-78zM203 846v99h71v-99h-71zM402 846v99h71v-99h-71z" />
    <glyph glyph-name="Aring" unicode="&#xc5;" horiz-adv-x="671" 
d="M334 671l-146 -404h288zM13 0l286 762h76l281 -762h-86l-70 201h-336l-73 -201h-78zM337 836q16 0 29.5 6.5t21 19.5t7.5 31q0 27 -16.5 43t-41.5 16t-41.5 -16t-16.5 -43t16.5 -42t41.5 -15zM337 800q-40 0 -68 24t-28 69q0 44 28 69.5t68 25.5t68 -25.5t28 -69.5
t-28 -68.5t-68 -24.5z" />
    <glyph glyph-name="AE" unicode="&#xc6;" horiz-adv-x="935" 
d="M871 755v-66h-366v-271h337v-64h-337v-288h375v-66h-448v236h-240l-115 -236h-79l379 755h494zM414 689l-189 -387h207v387h-18z" />
    <glyph glyph-name="Ccedilla" unicode="&#xc7;" horiz-adv-x="602" 
d="M566 717v-75q-23 17 -51 30.5t-63 21t-77 7.5q-70 0 -122.5 -30t-82.5 -90.5t-30 -153.5v-106q0 -91 27.5 -150t80 -88.5t125.5 -29.5q34 0 66.5 4t64 14t60.5 26v-68q-26 -14 -55.5 -23.5t-63 -14t-71.5 -4.5q-94 0 -163.5 38t-107.5 114t-38 189v92q0 114 38.5 191
t108.5 116.5t162 39.5q48 0 84 -7t62 -18.5t46 -24.5zM288 -222v46h49q34 0 48.5 7.5t14.5 28.5q-1 17 -12.5 24t-38.5 7h-37v29l22 85h42l-17 -75q50 -1 71 -19t21 -50q0 -37 -26.5 -60t-85.5 -23h-51z" />
    <glyph glyph-name="Egrave" unicode="&#xc8;" horiz-adv-x="603" 
d="M539 755v-66h-366v-271h337v-64h-337v-288h375v-66h-448v755h439zM291 827l-85 133h67l77 -133h-59z" />
    <glyph glyph-name="Eacute" unicode="&#xc9;" horiz-adv-x="603" 
d="M539 755v-66h-366v-271h337v-64h-337v-288h375v-66h-448v755h439zM290 827l77 133h67l-85 -133h-59z" />
    <glyph glyph-name="Ecircumflex" unicode="&#xca;" horiz-adv-x="603" 
d="M539 755v-66h-366v-271h337v-64h-337v-288h375v-66h-448v755h439zM170 827l121 133h58l121 -133h-70l-80 89l-79 -89h-71z" />
    <glyph glyph-name="Edieresis" unicode="&#xcb;" horiz-adv-x="603" 
d="M539 755v-66h-366v-271h337v-64h-337v-288h375v-66h-448v755h439zM185 846v99h71v-99h-71zM384 846v99h71v-99h-71z" />
    <glyph glyph-name="Igrave" unicode="&#xcc;" horiz-adv-x="273" 
d="M173 755v-755h-73v755h73zM107 827l-85 133h67l77 -133h-59z" />
    <glyph glyph-name="Iacute" unicode="&#xcd;" horiz-adv-x="273" 
d="M173 755v-755h-73v755h73zM107 827l77 133h67l-85 -133h-59z" />
    <glyph glyph-name="Icircumflex" unicode="&#xce;" horiz-adv-x="273" 
d="M173 755v-755h-73v755h73zM-13 827l121 133h58l121 -133h-70l-80 89l-79 -89h-71z" />
    <glyph glyph-name="Idieresis" unicode="&#xcf;" horiz-adv-x="273" 
d="M173 755v-755h-73v755h73zM1 846v99h71v-99h-71zM200 846v99h71v-99h-71z" />
    <glyph glyph-name="Eth" unicode="&#xd0;" horiz-adv-x="694" 
d="M30 357v60h73v338h216q93 0 163 -36.5t108.5 -110.5t38.5 -188v-92q0 -113 -38.5 -186t-108.5 -107.5t-163 -34.5h-216v357h-73zM176 417h142v-60h-142v-291h143q52 0 95 13t74.5 43t49 79t17.5 120v106q0 91 -30 148.5t-83 85.5t-123 28h-143v-272z" />
    <glyph glyph-name="Ntilde" unicode="&#xd1;" horiz-adv-x="734" 
d="M100 0v755h70l395 -628v628h69v-755h-69l-395 631v-631h-70zM312 881q-19 0 -40.5 -11t-39.5 -25v51q14 13 34.5 26t45.5 13q21 0 44.5 -10t46.5 -20.5t42 -10.5q20 0 40 12t36 25v-50q-12 -15 -33.5 -28t-44.5 -13q-21 0 -44 10.5t-45 20.5t-42 10z" />
    <glyph glyph-name="Ograve" unicode="&#xd2;" horiz-adv-x="715" 
d="M140 427v-113q0 -87 25 -145t73.5 -87t118.5 -29q69 0 118 29t75 87t26 145v113q0 88 -26 149t-75 93t-118 32q-53 0 -93 -18.5t-68 -53.5t-42 -86t-14 -116zM65 321v99q0 114 35 191t101 117t156 40q69 0 123.5 -23t92.5 -67.5t58 -109t20 -148.5v-99q0 -85 -21.5 -148
t-61 -104.5t-93.5 -62t-118 -20.5t-118 20.5t-93 62t-60 104.5t-21 148zM328 827l-85 133h67l77 -133h-59z" />
    <glyph glyph-name="Oacute" unicode="&#xd3;" horiz-adv-x="715" 
d="M140 427v-113q0 -87 25 -145t73.5 -87t118.5 -29q69 0 118 29t75 87t26 145v113q0 88 -26 149t-75 93t-118 32q-53 0 -93 -18.5t-68 -53.5t-42 -86t-14 -116zM65 321v99q0 114 35 191t101 117t156 40q69 0 123.5 -23t92.5 -67.5t58 -109t20 -148.5v-99q0 -85 -21.5 -148
t-61 -104.5t-93.5 -62t-118 -20.5t-118 20.5t-93 62t-60 104.5t-21 148zM328 827l77 133h67l-85 -133h-59z" />
    <glyph glyph-name="Ocircumflex" unicode="&#xd4;" horiz-adv-x="715" 
d="M140 427v-113q0 -87 25 -145t73.5 -87t118.5 -29q69 0 118 29t75 87t26 145v113q0 88 -26 149t-75 93t-118 32q-53 0 -93 -18.5t-68 -53.5t-42 -86t-14 -116zM65 321v99q0 114 35 191t101 117t156 40q69 0 123.5 -23t92.5 -67.5t58 -109t20 -148.5v-99q0 -85 -21.5 -148
t-61 -104.5t-93.5 -62t-118 -20.5t-118 20.5t-93 62t-60 104.5t-21 148zM208 827l121 133h58l121 -133h-70l-80 89l-79 -89h-71z" />
    <glyph glyph-name="Otilde" unicode="&#xd5;" horiz-adv-x="715" 
d="M140 427v-113q0 -87 25 -145t73.5 -87t118.5 -29q69 0 118 29t75 87t26 145v113q0 88 -26 149t-75 93t-118 32q-53 0 -93 -18.5t-68 -53.5t-42 -86t-14 -116zM65 321v99q0 114 35 191t101 117t156 40q69 0 123.5 -23t92.5 -67.5t58 -109t20 -148.5v-99q0 -85 -21.5 -148
t-61 -104.5t-93.5 -62t-118 -20.5t-118 20.5t-93 62t-60 104.5t-21 148zM293 881q-19 0 -40.5 -11t-39.5 -25v51q14 13 34.5 26t45.5 13q21 0 44.5 -10t46.5 -20.5t42 -10.5q20 0 40 12t36 25v-50q-12 -15 -33.5 -28t-44.5 -13q-21 0 -44 10.5t-45 20.5t-42 10z" />
    <glyph glyph-name="Odieresis" unicode="&#xd6;" horiz-adv-x="715" 
d="M140 427v-113q0 -87 25 -145t73.5 -87t118.5 -29q69 0 118 29t75 87t26 145v113q0 88 -26 149t-75 93t-118 32q-53 0 -93 -18.5t-68 -53.5t-42 -86t-14 -116zM65 321v99q0 114 35 191t101 117t156 40q69 0 123.5 -23t92.5 -67.5t58 -109t20 -148.5v-99q0 -85 -21.5 -148
t-61 -104.5t-93.5 -62t-118 -20.5t-118 20.5t-93 62t-60 104.5t-21 148zM223 846v99h71v-99h-71zM422 846v99h71v-99h-71z" />
    <glyph glyph-name="multiply" unicode="&#xd7;" horiz-adv-x="600" 
d="M139 179l-45 45l164 163l-161 160l42 43l160 -162l162 164l45 -45l-164 -163l164 -162l-42 -42l-163 164z" />
    <glyph glyph-name="Oslash" unicode="&#xd8;" horiz-adv-x="718" 
d="M142 427v-113q0 -87 25 -145q4 -9 8 -17l332 493q-14 14 -30 24q-49 32 -118 32q-53 0 -93 -18.5t-68 -53.5t-42 -86t-14 -116zM241 82q48 -29 118 -29q69 0 118 29t75 87t26 145v113q0 88 -26 149q-5 11 -11 22l-331 -493q14 -13 31 -23zM51 -34l81 121q-28 36 -44 86
q-22 63 -22 148v99q0 114 35.5 191t101.5 117t156 40q69 0 124 -23q36 -16 65 -40l52 78h66l-80 -119q30 -41 47 -96q20 -64 20 -148v-99q0 -85 -21.5 -148t-61 -104.5t-93.5 -62t-118 -20.5t-118 21q-39 14 -70 40l-54 -81h-66z" />
    <glyph glyph-name="Ugrave" unicode="&#xd9;" horiz-adv-x="747" 
d="M582 755h74v-433q0 -85 -18.5 -148t-54.5 -104.5t-89 -62t-122 -20.5q-92 0 -155 36.5t-94 111t-31 187.5v433h73v-440q0 -90 21.5 -148t67 -86t118.5 -28q76 0 122 29.5t67 87.5t21 145v440zM344 827l-85 133h67l77 -133h-59z" />
    <glyph glyph-name="Uacute" unicode="&#xda;" horiz-adv-x="747" 
d="M582 755h74v-433q0 -85 -18.5 -148t-54.5 -104.5t-89 -62t-122 -20.5q-92 0 -155 36.5t-94 111t-31 187.5v433h73v-440q0 -90 21.5 -148t67 -86t118.5 -28q76 0 122 29.5t67 87.5t21 145v440zM344 827l77 133h67l-85 -133h-59z" />
    <glyph glyph-name="Ucircumflex" unicode="&#xdb;" horiz-adv-x="747" 
d="M582 755h74v-433q0 -85 -18.5 -148t-54.5 -104.5t-89 -62t-122 -20.5q-92 0 -155 36.5t-94 111t-31 187.5v433h73v-440q0 -90 21.5 -148t67 -86t118.5 -28q76 0 122 29.5t67 87.5t21 145v440zM224 827l121 133h58l121 -133h-70l-80 89l-79 -89h-71z" />
    <glyph glyph-name="Udieresis" unicode="&#xdc;" horiz-adv-x="747" 
d="M582 755h74v-433q0 -85 -18.5 -148t-54.5 -104.5t-89 -62t-122 -20.5q-92 0 -155 36.5t-94 111t-31 187.5v433h73v-440q0 -90 21.5 -148t67 -86t118.5 -28q76 0 122 29.5t67 87.5t21 145v440zM239 846v99h71v-99h-71zM438 846v99h71v-99h-71z" />
    <glyph glyph-name="Yacute" unicode="&#xdd;" horiz-adv-x="610" 
d="M587 755l-247 -455v-300h-73v302l-240 453h86l192 -379l203 379h79zM281 827l77 133h67l-85 -133h-59z" />
    <glyph glyph-name="Thorn" unicode="&#xde;" horiz-adv-x="633" 
d="M173 228h169q51 0 85 12t53.5 33.5t28 50.5t8.5 61q0 54 -20.5 89t-61 52t-102.5 17h-160v-315zM173 755v-146h168q86 0 141.5 -28.5t82.5 -78t27 -111.5q0 -70 -27 -121t-82 -79t-138 -28h-172v-163h-73v755h73z" />
    <glyph glyph-name="germandbls" unicode="&#xdf;" horiz-adv-x="594" 
d="M247 0v63h51q52 0 90 15t58.5 46.5t20.5 81.5v26q0 37 -12 65t-33 46.5t-51 28t-68 9.5h-44v61h40q54 0 86.5 16.5t47 46t14.5 68.5q0 37 -14.5 67.5t-45.5 48.5t-81 18q-54 0 -87.5 -20.5t-49.5 -58.5t-16 -93v-535h-69v535q0 68 22.5 120.5t71.5 83t128 30.5
q77 0 123 -26t67 -69t21 -95t-18 -86.5t-53 -56.5q-18 -11 -40 -20q14 -4 26 -9q33 -14 56 -37.5t36 -57t13 -74.5v-26q0 -43 -11.5 -81.5t-37.5 -68t-70.5 -46t-111.5 -16.5h-59z" />
    <glyph glyph-name="agrave" unicode="&#xe0;" horiz-adv-x="538" 
d="M189 234q-34 -8 -53.5 -29t-19.5 -62q0 -48 29 -72t80 -24q37 0 74 13t63 43q22 25 27 66v72h-124q-42 0 -76 -7zM459 0h-70v69q-5 -8 -11 -16q-28 -33 -69 -49.5t-94 -16.5q-54 0 -92 18t-57.5 52t-19.5 82q0 44 14.5 73t39 47t53.5 27t59 12t56 3h121v32q0 28 -4 55
t-18.5 49t-43 35t-77.5 13q-46 0 -89.5 -13t-83.5 -49v70q32 26 74.5 40t106.5 14q57 0 94.5 -12t60 -33t33.5 -48t14 -57t3 -60v-337zM231 622l-96 153h67l88 -153h-59z" />
    <glyph glyph-name="aacute" unicode="&#xe1;" horiz-adv-x="538" 
d="M189 234q-34 -8 -53.5 -29t-19.5 -62q0 -48 29 -72t80 -24q37 0 74 13t63 43q22 25 27 66v72h-124q-42 0 -76 -7zM459 0h-70v69q-5 -8 -11 -16q-28 -33 -69 -49.5t-94 -16.5q-54 0 -92 18t-57.5 52t-19.5 82q0 44 14.5 73t39 47t53.5 27t59 12t56 3h121v32q0 28 -4 55
t-18.5 49t-43 35t-77.5 13q-46 0 -89.5 -13t-83.5 -49v70q32 26 74.5 40t106.5 14q57 0 94.5 -12t60 -33t33.5 -48t14 -57t3 -60v-337zM231 622l88 153h67l-96 -153h-59z" />
    <glyph glyph-name="acircumflex" unicode="&#xe2;" horiz-adv-x="538" 
d="M189 234q-34 -8 -53.5 -29t-19.5 -62q0 -48 29 -72t80 -24q37 0 74 13t63 43q22 25 27 66v72h-124q-42 0 -76 -7zM459 0h-70v69q-5 -8 -11 -16q-28 -33 -69 -49.5t-94 -16.5q-54 0 -92 18t-57.5 52t-19.5 82q0 44 14.5 73t39 47t53.5 27t59 12t56 3h121v32q0 28 -4 55
t-18.5 49t-43 35t-77.5 13q-46 0 -89.5 -13t-83.5 -49v70q32 26 74.5 40t106.5 14q57 0 94.5 -12t60 -33t33.5 -48t14 -57t3 -60v-337zM107 622l124 153h58l124 -153h-65l-88 112l-90 -112h-63z" />
    <glyph glyph-name="atilde" unicode="&#xe3;" horiz-adv-x="538" 
d="M189 234q-34 -8 -53.5 -29t-19.5 -62q0 -48 29 -72t80 -24q37 0 74 13t63 43q22 25 27 66v72h-124q-42 0 -76 -7zM459 0h-70v69q-5 -8 -11 -16q-28 -33 -69 -49.5t-94 -16.5q-54 0 -92 18t-57.5 52t-19.5 82q0 44 14.5 73t39 47t53.5 27t59 12t56 3h121v32q0 28 -4 55
t-18.5 49t-43 35t-77.5 13q-46 0 -89.5 -13t-83.5 -49v70q32 26 74.5 40t106.5 14q57 0 94.5 -12t60 -33t33.5 -48t14 -57t3 -60v-337zM196 683q-19 0 -40.5 -11.5t-39.5 -23.5v51q14 13 34.5 26t45.5 13q22 0 45 -10t46 -20.5t42 -10.5q20 0 39.5 11.5t36.5 24.5v-50
q-13 -15 -34.5 -28t-44.5 -13q-21 0 -44 10.5t-45 20.5t-41 10z" />
    <glyph glyph-name="adieresis" unicode="&#xe4;" horiz-adv-x="538" 
d="M189 234q-34 -8 -53.5 -29t-19.5 -62q0 -48 29 -72t80 -24q37 0 74 13t63 43q22 25 27 66v72h-124q-42 0 -76 -7zM459 0h-70v69q-5 -8 -11 -16q-28 -33 -69 -49.5t-94 -16.5q-54 0 -92 18t-57.5 52t-19.5 82q0 44 14.5 73t39 47t53.5 27t59 12t56 3h121v32q0 28 -4 55
t-18.5 49t-43 35t-77.5 13q-46 0 -89.5 -13t-83.5 -49v70q32 26 74.5 40t106.5 14q57 0 94.5 -12t60 -33t33.5 -48t14 -57t3 -60v-337zM122 651v99h71v-99h-71zM328 651v99h71v-99h-71z" />
    <glyph glyph-name="aring" unicode="&#xe5;" horiz-adv-x="538" 
d="M189 234q-34 -8 -53.5 -29t-19.5 -62q0 -48 29 -72t80 -24q37 0 74 13t63 43q22 25 27 66v72h-124q-42 0 -76 -7zM459 0h-70v69q-5 -8 -11 -16q-28 -33 -69 -49.5t-94 -16.5q-54 0 -92 18t-57.5 52t-19.5 82q0 44 14.5 73t39 47t53.5 27t59 12t56 3h121v32q0 28 -4 55
t-18.5 49t-43 35t-77.5 13q-46 0 -89.5 -13t-83.5 -49v70q32 26 74.5 40t106.5 14q57 0 94.5 -12t60 -33t33.5 -48t14 -57t3 -60v-337zM260 598q-40 0 -69 24.5t-29 70.5q0 45 29 71.5t69 26.5q41 0 70 -26.5t29 -71.5t-29 -70t-70 -25zM260 634q17 0 31 7t22 20.5t8 31.5
q0 19 -8 32.5t-22 21t-31 7.5t-31 -7.5t-22 -21t-8 -32.5q0 -28 17.5 -43.5t43.5 -15.5z" />
    <glyph glyph-name="ae" unicode="&#xe6;" horiz-adv-x="882" 
d="M827 240h-368v-11q0 -39 10.5 -71.5t32 -57t54 -38.5t77.5 -14q46 0 88.5 8.5t93.5 39.5v-63q-44 -26 -89 -36.5t-99 -10.5q-75 0 -128 29.5t-81 85.5l-2 4q-6 -12 -13 -24q-19 -29 -46 -50.5t-60.5 -33t-71.5 -11.5q-58 0 -98 18.5t-60.5 52.5t-20.5 81q0 86 55.5 124.5
t166.5 38.5h121v32q0 48 -11.5 82t-43 52.5t-90.5 18.5q-50 0 -90.5 -13.5t-80.5 -48.5v69q21 17 45.5 29.5t57.5 19t79 6.5q53 0 90 -13.5t60 -40.5q14 -17 24 -39q9 14 20 26q28 32 69 49.5t91 17.5q66 0 115 -26t76 -79t27 -133v-70zM757 300v13q0 56 -16 94.5
t-48.5 58.5t-83.5 20q-32 0 -59 -10.5t-47.5 -32t-32 -56t-11.5 -82.5v-5h298zM149 218q-33 -23 -33 -77q0 -46 29.5 -70.5t81.5 -24.5q41 0 77.5 17.5t60.5 52.5q22 32 26 79q-2 19 -2 39v7h-124q-83 0 -116 -23z" />
    <glyph glyph-name="ccedilla" unicode="&#xe7;" horiz-adv-x="493" 
d="M293 547q43 0 82 -8.5t72 -27.5v-72q-40 27 -79 36.5t-75 9.5q-35 0 -65 -9.5t-52.5 -30.5t-35 -55.5t-12.5 -84.5v-76q0 -38 10 -70.5t30 -57.5t51 -38.5t72 -13.5q37 0 75 10.5t80 36.5v-66q-28 -19 -69 -31t-89 -12q-71 0 -122.5 30.5t-79.5 86.5t-28 130v66
q0 72 25.5 127.5t77.5 87.5t132 32zM200 -222v46h49q34 0 48.5 7.5t14.5 28.5q-1 17 -12.5 24t-38.5 7h-37v29l22 85h42l-17 -75q50 -1 71 -19t21 -50q0 -37 -26.5 -60t-85.5 -23h-51z" />
    <glyph glyph-name="egrave" unicode="&#xe8;" horiz-adv-x="552" 
d="M426 297v16q0 56 -15.5 94.5t-48.5 58t-83 19.5q-32 0 -59.5 -10t-48 -31.5t-32 -56t-11.5 -82.5v-8h298zM496 237h-368v-8q0 -39 10.5 -71.5t32 -57t54.5 -38t78 -13.5t87.5 8t93.5 39v-63q-44 -26 -88.5 -36t-99.5 -10q-74 0 -127.5 29.5t-81.5 84.5t-28 133v66
q0 57 15 103t44 78t69.5 49t90.5 17q66 0 115.5 -25.5t76 -78.5t26.5 -133v-73zM248 622l-96 153h67l88 -153h-59z" />
    <glyph glyph-name="eacute" unicode="&#xe9;" horiz-adv-x="552" 
d="M426 297v16q0 56 -15.5 94.5t-48.5 58t-83 19.5q-32 0 -59.5 -10t-48 -31.5t-32 -56t-11.5 -82.5v-8h298zM496 237h-368v-8q0 -39 10.5 -71.5t32 -57t54.5 -38t78 -13.5t87.5 8t93.5 39v-63q-44 -26 -88.5 -36t-99.5 -10q-74 0 -127.5 29.5t-81.5 84.5t-28 133v66
q0 57 15 103t44 78t69.5 49t90.5 17q66 0 115.5 -25.5t76 -78.5t26.5 -133v-73zM248 622l88 153h67l-96 -153h-59z" />
    <glyph glyph-name="ecircumflex" unicode="&#xea;" horiz-adv-x="552" 
d="M426 297v16q0 56 -15.5 94.5t-48.5 58t-83 19.5q-32 0 -59.5 -10t-48 -31.5t-32 -56t-11.5 -82.5v-8h298zM496 237h-368v-8q0 -39 10.5 -71.5t32 -57t54.5 -38t78 -13.5t87.5 8t93.5 39v-63q-44 -26 -88.5 -36t-99.5 -10q-74 0 -127.5 29.5t-81.5 84.5t-28 133v66
q0 57 15 103t44 78t69.5 49t90.5 17q66 0 115.5 -25.5t76 -78.5t26.5 -133v-73zM125 622l124 153h58l124 -153h-65l-88 112l-90 -112h-63z" />
    <glyph glyph-name="edieresis" unicode="&#xeb;" horiz-adv-x="552" 
d="M426 297v16q0 56 -15.5 94.5t-48.5 58t-83 19.5q-32 0 -59.5 -10t-48 -31.5t-32 -56t-11.5 -82.5v-8h298zM496 237h-368v-8q0 -39 10.5 -71.5t32 -57t54.5 -38t78 -13.5t87.5 8t93.5 39v-63q-44 -26 -88.5 -36t-99.5 -10q-74 0 -127.5 29.5t-81.5 84.5t-28 133v66
q0 57 15 103t44 78t69.5 49t90.5 17q66 0 115.5 -25.5t76 -78.5t26.5 -133v-73zM140 651v99h71v-99h-71zM346 651v99h71v-99h-71z" />
    <glyph glyph-name="igrave" unicode="&#xec;" horiz-adv-x="237" 
d="M84 0v535h69v-535h-69zM89 622l-96 153h67l88 -153h-59z" />
    <glyph glyph-name="iacute" unicode="&#xed;" horiz-adv-x="237" 
d="M84 0v535h69v-535h-69zM89 622l88 153h67l-96 -153h-59z" />
    <glyph glyph-name="icircumflex" unicode="&#xee;" horiz-adv-x="237" 
d="M84 0v535h69v-535h-69zM-35 622l124 153h58l124 -153h-65l-88 112l-90 -112h-63z" />
    <glyph glyph-name="idieresis" unicode="&#xef;" horiz-adv-x="237" 
d="M84 0v535h69v-535h-69zM-20 651v99h71v-99h-71zM186 651v99h71v-99h-71z" />
    <glyph glyph-name="eth" unicode="&#xf0;" horiz-adv-x="581" 
d="M59 234v56q0 81 28 136.5t77 84t110 28.5q36 0 66 -11.5t53.5 -31t39.5 -43.5q-16 69 -51 119q-31 46 -70 80l-61 -58l-36 33l58 55q-31 22 -63 39l32 49q41 -21 76 -45l60 59l36 -36l-56 -53l12 -10q52 -46 83.5 -103t45.5 -125t14 -150v-73q0 -82 -29.5 -137.5
t-81 -83.5t-117.5 -28q-67 0 -118 28.5t-79.5 84t-28.5 136.5zM128 295v-66q0 -54 18 -95t52.5 -64t87.5 -23q32 0 60.5 10.5t50.5 32.5t34 56.5t12 82.5v66q0 36 -10 68.5t-30.5 58.5t-51 40.5t-70.5 14.5q-47 0 -81.5 -21.5t-53 -62.5t-18.5 -98z" />
    <glyph glyph-name="ntilde" unicode="&#xf1;" horiz-adv-x="598" 
d="M84 0v535h69v-82q14 22 32 40q27 26 63 40t80 14q67 0 109 -25.5t62 -75t20 -119.5v-327h-70v320q0 58 -17.5 93.5t-48.5 52t-71 16.5q-42 0 -78.5 -18t-58.5 -54.5t-22 -93.5v-316h-69zM237 683q-19 0 -40.5 -11.5t-39.5 -23.5v51q14 13 34.5 26t45.5 13q22 0 45 -10
t46 -20.5t42 -10.5q20 0 39.5 11.5t36.5 24.5v-50q-13 -15 -34.5 -28t-44.5 -13q-21 0 -44 10.5t-45 20.5t-41 10z" />
    <glyph glyph-name="ograve" unicode="&#xf2;" horiz-adv-x="571" 
d="M128 306v-78q0 -86 43 -132.5t114 -46.5q74 0 116 47t42 132v78q0 88 -43 134t-115 46q-71 0 -114 -46t-43 -134zM59 233v68q0 81 29 136t80 82.5t117 27.5t117.5 -27.5t81 -82.5t29.5 -136v-68q0 -61 -16.5 -107t-47.5 -77t-72.5 -46.5t-91.5 -15.5q-66 0 -117 28
t-80 82.5t-29 135.5zM257 622l-96 153h67l88 -153h-59z" />
    <glyph glyph-name="oacute" unicode="&#xf3;" horiz-adv-x="571" 
d="M128 306v-78q0 -86 43 -132.5t114 -46.5q74 0 116 47t42 132v78q0 88 -43 134t-115 46q-71 0 -114 -46t-43 -134zM59 233v68q0 81 29 136t80 82.5t117 27.5t117.5 -27.5t81 -82.5t29.5 -136v-68q0 -61 -16.5 -107t-47.5 -77t-72.5 -46.5t-91.5 -15.5q-66 0 -117 28
t-80 82.5t-29 135.5zM257 622l88 153h67l-96 -153h-59z" />
    <glyph glyph-name="ocircumflex" unicode="&#xf4;" horiz-adv-x="571" 
d="M128 306v-78q0 -86 43 -132.5t114 -46.5q74 0 116 47t42 132v78q0 88 -43 134t-115 46q-71 0 -114 -46t-43 -134zM59 233v68q0 81 29 136t80 82.5t117 27.5t117.5 -27.5t81 -82.5t29.5 -136v-68q0 -61 -16.5 -107t-47.5 -77t-72.5 -46.5t-91.5 -15.5q-66 0 -117 28
t-80 82.5t-29 135.5zM133 622l124 153h58l124 -153h-65l-88 112l-90 -112h-63z" />
    <glyph glyph-name="otilde" unicode="&#xf5;" horiz-adv-x="571" 
d="M128 306v-78q0 -86 43 -132.5t114 -46.5q74 0 116 47t42 132v78q0 88 -43 134t-115 46q-71 0 -114 -46t-43 -134zM59 233v68q0 81 29 136t80 82.5t117 27.5t117.5 -27.5t81 -82.5t29.5 -136v-68q0 -61 -16.5 -107t-47.5 -77t-72.5 -46.5t-91.5 -15.5q-66 0 -117 28
t-80 82.5t-29 135.5zM221 683q-19 0 -40.5 -11.5t-39.5 -23.5v51q14 13 34.5 26t45.5 13q22 0 45 -10t46 -20.5t42 -10.5q20 0 39.5 11.5t36.5 24.5v-50q-13 -15 -34.5 -28t-44.5 -13q-21 0 -44 10.5t-45 20.5t-41 10z" />
    <glyph glyph-name="odieresis" unicode="&#xf6;" horiz-adv-x="571" 
d="M128 306v-78q0 -86 43 -132.5t114 -46.5q74 0 116 47t42 132v78q0 88 -43 134t-115 46q-71 0 -114 -46t-43 -134zM59 233v68q0 81 29 136t80 82.5t117 27.5t117.5 -27.5t81 -82.5t29.5 -136v-68q0 -61 -16.5 -107t-47.5 -77t-72.5 -46.5t-91.5 -15.5q-66 0 -117 28
t-80 82.5t-29 135.5zM148 651v99h71v-99h-71zM354 651v99h71v-99h-71z" />
    <glyph glyph-name="divide" unicode="&#xf7;" horiz-adv-x="600" 
d="M76 348v60h448v-60h-448zM258 505v109h74v-109h-74zM258 139v109h74v-109h-74z" />
    <glyph glyph-name="oslash" unicode="&#xf8;" horiz-adv-x="572" 
d="M128 306v-78q0 -65 24 -107l233 333q-40 32 -100 32q-71 0 -114 -46t-43 -134zM285 49q74 0 116 47t42 132v78q0 68 -25 110l-234 -333q40 -34 101 -34zM526 570l-68 -96q14 -16 26 -37q29 -55 29 -136v-68q0 -61 -16.5 -107t-47.5 -77t-72.5 -46.5t-91.5 -15.5
q-66 0 -117 28q-11 6 -22 14l-44 -63h-59l68 96q-13 16 -23 35q-29 55 -29 136v68q0 81 29 136t80 82.5t117 27.5t118 -28q10 -5 19 -12l45 63h59z" />
    <glyph glyph-name="ugrave" unicode="&#xf9;" horiz-adv-x="594" 
d="M79 535h69v-327q0 -57 17 -91.5t47.5 -49t70.5 -14.5q43 0 78.5 20t57.5 57t22 85v320h70v-535h-70v79q-13 -20 -30 -37q-26 -26 -61 -40.5t-79 -14.5q-66 0 -109 26t-63 75.5t-20 119.5v327zM265 622l-96 153h67l88 -153h-59z" />
    <glyph glyph-name="uacute" unicode="&#xfa;" horiz-adv-x="594" 
d="M79 535h69v-327q0 -57 17 -91.5t47.5 -49t70.5 -14.5q43 0 78.5 20t57.5 57t22 85v320h70v-535h-70v79q-13 -20 -30 -37q-26 -26 -61 -40.5t-79 -14.5q-66 0 -109 26t-63 75.5t-20 119.5v327zM265 622l88 153h67l-96 -153h-59z" />
    <glyph glyph-name="ucircumflex" unicode="&#xfb;" horiz-adv-x="594" 
d="M79 535h69v-327q0 -57 17 -91.5t47.5 -49t70.5 -14.5q43 0 78.5 20t57.5 57t22 85v320h70v-535h-70v79q-13 -20 -30 -37q-26 -26 -61 -40.5t-79 -14.5q-66 0 -109 26t-63 75.5t-20 119.5v327zM141 622l124 153h58l124 -153h-65l-88 112l-90 -112h-63z" />
    <glyph glyph-name="udieresis" unicode="&#xfc;" horiz-adv-x="594" 
d="M79 535h69v-327q0 -57 17 -91.5t47.5 -49t70.5 -14.5q43 0 78.5 20t57.5 57t22 85v320h70v-535h-70v79q-13 -20 -30 -37q-26 -26 -61 -40.5t-79 -14.5q-66 0 -109 26t-63 75.5t-20 119.5v327zM156 651v99h71v-99h-71zM362 651v99h71v-99h-71z" />
    <glyph glyph-name="yacute" unicode="&#xfd;" horiz-adv-x="543" 
d="M238 -222h-75l76 207l-215 550h76l175 -464l176 464h72l-209 -535h-1zM246 622l88 153h67l-96 -153h-59z" />
    <glyph glyph-name="thorn" unicode="&#xfe;" 
d="M174 139q21 -39 58 -65t85 -26q31 0 58 11t47.5 33t32.5 56.5t12 82.5v73q0 38 -9.5 71t-28.5 58t-47.5 39t-66.5 14q-45 0 -82 -24t-59 -63q-17 -30 -21 -64v-126q3 -36 21 -70zM84 -222v977h69v-302q26 42 68 67q44 28 104 28q71 0 118 -33t70 -89t23 -127v-63
q0 -76 -23.5 -132t-70 -87t-116.5 -31q-47 0 -83 18t-62 48q-15 18 -28 38v-312h-69z" />
    <glyph glyph-name="ydieresis" unicode="&#xff;" horiz-adv-x="543" 
d="M238 -222h-75l76 207l-215 550h76l175 -464l176 464h72l-209 -535h-1zM137 651v99h71v-99h-71zM343 651v99h71v-99h-71z" />
    <glyph glyph-name="Amacron" unicode="&#x100;" horiz-adv-x="671" 
d="M334 671l-146 -404h288zM13 0l286 762h76l281 -762h-86l-70 201h-336l-73 -201h-78zM188 858v52h299v-52h-299z" />
    <glyph glyph-name="amacron" unicode="&#x101;" horiz-adv-x="538" 
d="M189 234q-34 -8 -53.5 -29t-19.5 -62q0 -48 29 -72t80 -24q37 0 74 13t63 43q22 25 27 66v72h-124q-42 0 -76 -7zM459 0h-70v69q-5 -8 -11 -16q-28 -33 -69 -49.5t-94 -16.5q-54 0 -92 18t-57.5 52t-19.5 82q0 44 14.5 73t39 47t53.5 27t59 12t56 3h121v32q0 28 -4 55
t-18.5 49t-43 35t-77.5 13q-46 0 -89.5 -13t-83.5 -49v70q32 26 74.5 40t106.5 14q57 0 94.5 -12t60 -33t33.5 -48t14 -57t3 -60v-337zM128 658v52h265v-52h-265z" />
    <glyph glyph-name="Abreve" unicode="&#x102;" horiz-adv-x="671" 
d="M334 671l-146 -404h288zM13 0l286 762h76l281 -762h-86l-70 201h-336l-73 -201h-78zM413 954h57q0 -39 -14.5 -66.5t-44 -42t-74.5 -14.5q-47 0 -76.5 15t-42.5 43t-13 65h55q0 -44 21 -59t56 -15q36 0 56 16t20 58z" />
    <glyph glyph-name="abreve" unicode="&#x103;" horiz-adv-x="538" 
d="M189 234q-34 -8 -53.5 -29t-19.5 -62q0 -48 29 -72t80 -24q37 0 74 13t63 43q22 25 27 66v72h-124q-42 0 -76 -7zM459 0h-70v69q-5 -8 -11 -16q-28 -33 -69 -49.5t-94 -16.5q-54 0 -92 18t-57.5 52t-19.5 82q0 44 14.5 73t39 47t53.5 27t59 12t56 3h121v32q0 28 -4 55
t-18.5 49t-43 35t-77.5 13q-46 0 -89.5 -13t-83.5 -49v70q32 26 74.5 40t106.5 14q57 0 94.5 -12t60 -33t33.5 -48t14 -57t3 -60v-337zM331 755h57q0 -37 -13.5 -65.5t-41.5 -45t-71 -16.5q-45 0 -73 17t-41 46t-13 64h55q0 -40 20 -59t52 -19t50.5 20t18.5 58z" />
    <glyph glyph-name="Aogonek" unicode="&#x104;" horiz-adv-x="666" 
d="M13 0l286 762h76l281 -762h-1q-25 -10 -46.5 -24t-34.5 -33.5t-13 -44.5q0 -29 20 -48t56 -19q9 0 17 1l16 2v-57q-11 -2 -22 -3.5t-22 -1.5q-60 0 -95.5 31.5t-35.5 81.5q0 42 21.5 70t53.5 47l-70 199h-336l-73 -201h-78zM334 671l-146 -404h288z" />
    <glyph glyph-name="aogonek" unicode="&#x105;" horiz-adv-x="538" 
d="M442 -228q-60 0 -95 28.5t-35 80.5q0 41 18 68t47 47l12 8v65q-5 -8 -11 -16q-28 -33 -69 -49.5t-94 -16.5q-54 0 -92 18t-57.5 52t-19.5 82q0 44 14.5 73t39 47t53.5 27t59 12t56 3h121v32q0 28 -4 55t-18.5 49t-43 35t-77.5 13q-46 0 -89.5 -13t-83.5 -49v70
q32 26 74.5 40t106.5 14q57 0 94.5 -12t60 -33t33.5 -48t14 -57t3 -60v-337q-21 -9 -40 -23t-30 -32.5t-11 -43.5q0 -31 20 -50.5t56 -19.5q9 0 17 1l16 2v-57q-11 -2 -22.5 -3.5t-22.5 -1.5zM189 234q-34 -8 -53.5 -29t-19.5 -62q0 -48 29 -72t80 -24q37 0 74 13t63 43
q22 25 27 66v72h-124q-42 0 -76 -7z" />
    <glyph glyph-name="Cacute" unicode="&#x106;" horiz-adv-x="602" 
d="M566 717v-75q-23 17 -51 30.5t-63 21t-77 7.5q-70 0 -122.5 -30t-82.5 -90.5t-30 -153.5v-106q0 -91 27.5 -150t80 -88.5t125.5 -29.5q34 0 66.5 4t64 14t60.5 26v-68q-26 -14 -55.5 -23.5t-63 -14t-71.5 -4.5q-94 0 -163.5 38t-107.5 114t-38 189v92q0 114 38.5 191
t108.5 116.5t162 39.5q48 0 84 -7t62 -18.5t46 -24.5zM337 827l77 133h67l-85 -133h-59z" />
    <glyph glyph-name="cacute" unicode="&#x107;" horiz-adv-x="493" 
d="M293 547q43 0 82 -8.5t72 -27.5v-72q-40 27 -79 36.5t-75 9.5q-35 0 -65 -9.5t-52.5 -30.5t-35 -55.5t-12.5 -84.5v-76q0 -38 10 -70.5t30 -57.5t51 -38.5t72 -13.5q37 0 75 10.5t80 36.5v-66q-28 -19 -69 -31t-89 -12q-71 0 -122.5 30.5t-79.5 86.5t-28 130v66
q0 72 25.5 127.5t77.5 87.5t132 32zM253 622l88 153h67l-96 -153h-59z" />
    <glyph glyph-name="Ccircumflex" unicode="&#x108;" horiz-adv-x="602" 
d="M566 717v-75q-23 17 -51 30.5t-63 21t-77 7.5q-70 0 -122.5 -30t-82.5 -90.5t-30 -153.5v-106q0 -91 27.5 -150t80 -88.5t125.5 -29.5q34 0 66.5 4t64 14t60.5 26v-68q-26 -14 -55.5 -23.5t-63 -14t-71.5 -4.5q-94 0 -163.5 38t-107.5 114t-38 189v92q0 114 38.5 191
t108.5 116.5t162 39.5q48 0 84 -7t62 -18.5t46 -24.5zM217 827l121 133h58l121 -133h-70l-80 89l-79 -89h-71z" />
    <glyph glyph-name="ccircumflex" unicode="&#x109;" horiz-adv-x="493" 
d="M293 547q43 0 82 -8.5t72 -27.5v-72q-40 27 -79 36.5t-75 9.5q-35 0 -65 -9.5t-52.5 -30.5t-35 -55.5t-12.5 -84.5v-76q0 -38 10 -70.5t30 -57.5t51 -38.5t72 -13.5q37 0 75 10.5t80 36.5v-66q-28 -19 -69 -31t-89 -12q-71 0 -122.5 30.5t-79.5 86.5t-28 130v66
q0 72 25.5 127.5t77.5 87.5t132 32zM130 622l124 153h58l124 -153h-65l-88 112l-90 -112h-63z" />
    <glyph glyph-name="Cdotaccent" unicode="&#x10a;" horiz-adv-x="602" 
d="M566 717v-75q-23 17 -51 30.5t-63 21t-77 7.5q-70 0 -122.5 -30t-82.5 -90.5t-30 -153.5v-106q0 -91 27.5 -150t80 -88.5t125.5 -29.5q34 0 66.5 4t64 14t60.5 26v-68q-26 -14 -55.5 -23.5t-63 -14t-71.5 -4.5q-94 0 -163.5 38t-107.5 114t-38 189v92q0 114 38.5 191
t108.5 116.5t162 39.5q48 0 84 -7t62 -18.5t46 -24.5zM331 846v99h71v-99h-71z" />
    <glyph glyph-name="cdotaccent" unicode="&#x10b;" horiz-adv-x="493" 
d="M293 547q43 0 82 -8.5t72 -27.5v-72q-40 27 -79 36.5t-75 9.5q-35 0 -65 -9.5t-52.5 -30.5t-35 -55.5t-12.5 -84.5v-76q0 -38 10 -70.5t30 -57.5t51 -38.5t72 -13.5q37 0 75 10.5t80 36.5v-66q-28 -19 -69 -31t-89 -12q-71 0 -122.5 30.5t-79.5 86.5t-28 130v66
q0 72 25.5 127.5t77.5 87.5t132 32zM245 651v99h75v-99h-75z" />
    <glyph glyph-name="Ccaron" unicode="&#x10c;" horiz-adv-x="602" 
d="M566 717v-75q-23 17 -51 30.5t-63 21t-77 7.5q-70 0 -122.5 -30t-82.5 -90.5t-30 -153.5v-106q0 -91 27.5 -150t80 -88.5t125.5 -29.5q34 0 66.5 4t64 14t60.5 26v-68q-26 -14 -55.5 -23.5t-63 -14t-71.5 -4.5q-94 0 -163.5 38t-107.5 114t-38 189v92q0 114 38.5 191
t108.5 116.5t162 39.5q48 0 84 -7t62 -18.5t46 -24.5zM338 827l-121 133h70l80 -89l79 89h71l-121 -133h-58z" />
    <glyph glyph-name="ccaron" unicode="&#x10d;" horiz-adv-x="493" 
d="M293 547q43 0 82 -8.5t72 -27.5v-72q-40 27 -79 36.5t-75 9.5q-35 0 -65 -9.5t-52.5 -30.5t-35 -55.5t-12.5 -84.5v-76q0 -38 10 -70.5t30 -57.5t51 -38.5t72 -13.5q37 0 75 10.5t80 36.5v-66q-28 -19 -69 -31t-89 -12q-71 0 -122.5 30.5t-79.5 86.5t-28 130v66
q0 72 25.5 127.5t77.5 87.5t132 32zM254 622l-124 153h65l88 -112l91 112h62l-124 -153h-58z" />
    <glyph glyph-name="Dcaron" unicode="&#x10e;" horiz-adv-x="690" 
d="M173 66h143q51 0 94.5 13t75 43t48.5 79t17 120v106q0 91 -29.5 148.5t-82.5 85.5t-123 28h-143v-623zM100 0v755h216q93 0 162.5 -36.5t108.5 -110.5t39 -188v-92q0 -113 -39 -186t-108.5 -107.5t-162.5 -34.5h-216zM286 827l-121 133h70l80 -89l79 89h71l-121 -133h-58
z" />
    <glyph glyph-name="dcaron" unicode="&#x10f;" horiz-adv-x="625" 
d="M420 399q-21 38 -58 62t-82 24q-32 0 -59.5 -10.5t-48.5 -32.5t-32.5 -56t-11.5 -82v-73q0 -38 9.5 -71t28 -58t46.5 -39t66 -14q49 0 85.5 25.5t57 64t20.5 79.5v114q-3 35 -21 67zM441 0v90q-11 -19 -26 -36q-26 -30 -62 -48.5t-83 -18.5q-70 0 -117.5 31t-71 87
t-23.5 131v63q0 72 23.5 128t70.5 88t117 32q60 0 104 -26q42 -26 68 -69v303h70v-755h-70zM633 546h-48l14 209h61z" />
    <glyph glyph-name="Dcroat" unicode="&#x110;" horiz-adv-x="694" 
d="M30 357v60h73v338h216q93 0 163 -36.5t108.5 -110.5t38.5 -188v-92q0 -113 -38.5 -186t-108.5 -107.5t-163 -34.5h-216v357h-73zM176 417h142v-60h-142v-291h143q52 0 95 13t74.5 43t49 79t17.5 120v106q0 91 -30 148.5t-83 85.5t-123 28h-143v-272z" />
    <glyph glyph-name="dcroat" unicode="&#x111;" 
d="M274 609v55h167v91h70v-91h61v-55h-61v-609h-70v89q-11 -19 -26 -36q-26 -30 -62 -48.5t-83 -18.5q-70 0 -117.5 31.5t-71 87.5t-23.5 131v63q0 72 23.5 128t70.5 88.5t117 32.5q60 0 104 -27q42 -26 68 -69v157h-167zM420 399q-21 38 -58 62.5t-82 24.5
q-32 0 -59.5 -10.5t-48.5 -33t-32.5 -56.5t-11.5 -82v-73q0 -38 9.5 -71.5t28 -58.5t46.5 -39t66 -14q49 0 85.5 25.5t57 64.5t20.5 80v114q-3 35 -21 67z" />
    <glyph glyph-name="Emacron" unicode="&#x112;" horiz-adv-x="603" 
d="M539 755v-66h-366v-271h337v-64h-337v-288h375v-66h-448v755h439zM171 858v52h299v-52h-299z" />
    <glyph glyph-name="emacron" unicode="&#x113;" horiz-adv-x="552" 
d="M426 297v16q0 56 -15.5 94.5t-48.5 58t-83 19.5q-32 0 -59.5 -10t-48 -31.5t-32 -56t-11.5 -82.5v-8h298zM496 237h-368v-8q0 -39 10.5 -71.5t32 -57t54.5 -38t78 -13.5t87.5 8t93.5 39v-63q-44 -26 -88.5 -36t-99.5 -10q-74 0 -127.5 29.5t-81.5 84.5t-28 133v66
q0 57 15 103t44 78t69.5 49t90.5 17q66 0 115.5 -25.5t76 -78.5t26.5 -133v-73zM145 658v52h265v-52h-265z" />
    <glyph glyph-name="Ebreve" unicode="&#x114;" horiz-adv-x="603" 
d="M539 755v-66h-366v-271h337v-64h-337v-288h375v-66h-448v755h439zM395 954h57q0 -39 -14.5 -66.5t-44 -42t-74.5 -14.5q-47 0 -76.5 15t-42.5 43t-13 65h55q0 -44 21 -59t56 -15q36 0 56 16t20 58z" />
    <glyph glyph-name="ebreve" unicode="&#x115;" horiz-adv-x="552" 
d="M426 297v16q0 56 -15.5 94.5t-48.5 58t-83 19.5q-32 0 -59.5 -10t-48 -31.5t-32 -56t-11.5 -82.5v-8h298zM496 237h-368v-8q0 -39 10.5 -71.5t32 -57t54.5 -38t78 -13.5t87.5 8t93.5 39v-63q-44 -26 -88.5 -36t-99.5 -10q-74 0 -127.5 29.5t-81.5 84.5t-28 133v66
q0 57 15 103t44 78t69.5 49t90.5 17q66 0 115.5 -25.5t76 -78.5t26.5 -133v-73zM348 755h57q0 -37 -13.5 -65.5t-41.5 -45t-71 -16.5q-45 0 -73 17t-41 46t-13 64h55q0 -40 20 -59t52 -19t50.5 20t18.5 58z" />
    <glyph glyph-name="Edotaccent" unicode="&#x116;" horiz-adv-x="603" 
d="M539 755v-66h-366v-271h337v-64h-337v-288h375v-66h-448v755h439zM285 846v99h71v-99h-71z" />
    <glyph glyph-name="edotaccent" unicode="&#x117;" horiz-adv-x="552" 
d="M426 297v16q0 56 -15.5 94.5t-48.5 58t-83 19.5q-32 0 -59.5 -10t-48 -31.5t-32 -56t-11.5 -82.5v-8h298zM496 237h-368v-8q0 -39 10.5 -71.5t32 -57t54.5 -38t78 -13.5t87.5 8t93.5 39v-63q-44 -26 -88.5 -36t-99.5 -10q-74 0 -127.5 29.5t-81.5 84.5t-28 133v66
q0 57 15 103t44 78t69.5 49t90.5 17q66 0 115.5 -25.5t76 -78.5t26.5 -133v-73zM240 651v99h75v-99h-75z" />
    <glyph glyph-name="Eogonek" unicode="&#x118;" horiz-adv-x="603" 
d="M539 755v-66h-366v-271h337v-64h-337v-288h375v-66q-28 -10 -52.5 -24.5t-39 -35t-14.5 -45.5q0 -28 20 -46t56 -18q9 0 17 1l16 2v-57q-11 -2 -22 -3.5t-22 -1.5q-60 0 -95.5 29t-35.5 80q0 34 15 58.5t39 42.5q14 11 18 14l-1 -1v0l9 5h-356v755h439zM449 -3l-1 -1v0z
" />
    <glyph glyph-name="eogonek" unicode="&#x119;" horiz-adv-x="552" 
d="M426 297v16q0 56 -15.5 94.5t-48.5 58t-83 19.5q-32 0 -59.5 -10t-48 -31.5t-32 -56t-11.5 -82.5v-8h298zM59 234v66q0 57 15 103t44 78t69.5 49t90.5 17q66 0 115.5 -25.5t76 -78.5t26.5 -133v-73h-368v-8q0 -39 10.5 -71.5t32 -57t54.5 -38t78 -13.5t87.5 8t93.5 39
v-63q-50 -27 -79.5 -55.5t-29.5 -74.5q0 -34 20 -53t56 -19q9 0 17 1l16 2v-57q-11 -2 -22.5 -3.5t-22.5 -1.5q-60 0 -95 31.5t-35 87.5q0 27 9.5 49.5t24.5 40.5l12 12q-9 -2 -19 -3q-20 -3 -40 -3q-74 0 -127.5 29.5t-81.5 84.5t-28 133z" />
    <glyph glyph-name="Ecaron" unicode="&#x11a;" horiz-adv-x="603" 
d="M539 755v-66h-366v-271h337v-64h-337v-288h375v-66h-448v755h439zM291 827l-121 133h70l80 -89l79 89h71l-121 -133h-58z" />
    <glyph glyph-name="ecaron" unicode="&#x11b;" horiz-adv-x="552" 
d="M426 297v16q0 56 -15.5 94.5t-48.5 58t-83 19.5q-32 0 -59.5 -10t-48 -31.5t-32 -56t-11.5 -82.5v-8h298zM496 237h-368v-8q0 -39 10.5 -71.5t32 -57t54.5 -38t78 -13.5t87.5 8t93.5 39v-63q-44 -26 -88.5 -36t-99.5 -10q-74 0 -127.5 29.5t-81.5 84.5t-28 133v66
q0 57 15 103t44 78t69.5 49t90.5 17q66 0 115.5 -25.5t76 -78.5t26.5 -133v-73zM249 622l-124 153h65l88 -112l91 112h62l-124 -153h-58z" />
    <glyph glyph-name="Gcircumflex" unicode="&#x11c;" horiz-adv-x="675" 
d="M65 328v92q0 85 23.5 150t66 109t101 66t128.5 22q48 0 87 -7t68 -18.5t49 -24.5v-75q-34 26 -87 42.5t-117 16.5q-51 0 -96 -17t-78 -50.5t-52 -85t-19 -121.5v-106q0 -91 30 -150t85 -88.5t129 -29.5q30 0 59.5 3t56.5 9q17 4 22 5h-1v0l11 4v265h-202v69h276v-372
q-40 -20 -95 -35t-127 -15q-70 0 -128.5 21.5t-101 64.5t-65.5 107t-23 149zM224 827l121 133h58l121 -133h-70l-80 89l-79 -89h-71z" />
    <glyph glyph-name="gcircumflex" unicode="&#x11d;" 
d="M420 399q-21 38 -58 62t-83 24q-31 0 -58.5 -10.5t-48.5 -32.5t-32.5 -56t-11.5 -82v-73q0 -38 9.5 -71t28 -58t46.5 -39t66 -14q48 0 84.5 25.5t58 64t21.5 79.5v114q-4 35 -22 67zM270 -13q-70 0 -117.5 31t-71 87t-23.5 131v63q0 72 23.5 128t70.5 88t116 32
q61 0 105 -26q42 -26 69 -69v83h69v-534q0 -70 -26.5 -123t-80 -82.5t-135.5 -29.5q-32 0 -63 4.5t-59.5 12t-53.5 17.5v66q46 -20 93 -28.5t84 -8.5q65 0 102.5 21.5t53.5 61t16 93.5v86q-12 -19 -26 -36q-26 -31 -62 -49.5t-84 -18.5zM142 622l124 153h58l124 -153h-65
l-88 112l-90 -112h-63z" />
    <glyph glyph-name="Gbreve" unicode="&#x11e;" horiz-adv-x="675" 
d="M65 328v92q0 85 23.5 150t66 109t101 66t128.5 22q48 0 87 -7t68 -18.5t49 -24.5v-75q-34 26 -87 42.5t-117 16.5q-51 0 -96 -17t-78 -50.5t-52 -85t-19 -121.5v-106q0 -91 30 -150t85 -88.5t129 -29.5q30 0 59.5 3t56.5 9q17 4 22 5h-1v0l11 4v265h-202v69h276v-372
q-40 -20 -95 -35t-127 -15q-70 0 -128.5 21.5t-101 64.5t-65.5 107t-23 149zM448 954h57q0 -39 -14.5 -66.5t-44 -42t-74.5 -14.5q-47 0 -76.5 15t-42.5 43t-13 65h55q0 -44 21 -59t56 -15q36 0 56 16t20 58z" />
    <glyph glyph-name="gbreve" unicode="&#x11f;" 
d="M420 399q-21 38 -58 62t-83 24q-31 0 -58.5 -10.5t-48.5 -32.5t-32.5 -56t-11.5 -82v-73q0 -38 9.5 -71t28 -58t46.5 -39t66 -14q48 0 84.5 25.5t58 64t21.5 79.5v114q-4 35 -22 67zM270 -13q-70 0 -117.5 31t-71 87t-23.5 131v63q0 72 23.5 128t70.5 88t116 32
q61 0 105 -26q42 -26 69 -69v83h69v-534q0 -70 -26.5 -123t-80 -82.5t-135.5 -29.5q-32 0 -63 4.5t-59.5 12t-53.5 17.5v66q46 -20 93 -28.5t84 -8.5q65 0 102.5 21.5t53.5 61t16 93.5v86q-12 -19 -26 -36q-26 -31 -62 -49.5t-84 -18.5zM366 755h57q0 -37 -13.5 -65.5
t-41.5 -45t-71 -16.5q-45 0 -73 17t-41 46t-13 64h55q0 -40 20 -59t52 -19t50.5 20t18.5 58z" />
    <glyph glyph-name="Gdotaccent" unicode="&#x120;" horiz-adv-x="675" 
d="M65 328v92q0 85 23.5 150t66 109t101 66t128.5 22q48 0 87 -7t68 -18.5t49 -24.5v-75q-34 26 -87 42.5t-117 16.5q-51 0 -96 -17t-78 -50.5t-52 -85t-19 -121.5v-106q0 -91 30 -150t85 -88.5t129 -29.5q30 0 59.5 3t56.5 9q17 4 22 5h-1v0l11 4v265h-202v69h276v-372
q-40 -20 -95 -35t-127 -15q-70 0 -128.5 21.5t-101 64.5t-65.5 107t-23 149zM338 846v99h71v-99h-71z" />
    <glyph glyph-name="gdotaccent" unicode="&#x121;" 
d="M420 399q-21 38 -58 62t-83 24q-31 0 -58.5 -10.5t-48.5 -32.5t-32.5 -56t-11.5 -82v-73q0 -38 9.5 -71t28 -58t46.5 -39t66 -14q48 0 84.5 25.5t58 64t21.5 79.5v114q-4 35 -22 67zM270 -13q-70 0 -117.5 31t-71 87t-23.5 131v63q0 72 23.5 128t70.5 88t116 32
q61 0 105 -26q42 -26 69 -69v83h69v-534q0 -70 -26.5 -123t-80 -82.5t-135.5 -29.5q-32 0 -63 4.5t-59.5 12t-53.5 17.5v66q46 -20 93 -28.5t84 -8.5q65 0 102.5 21.5t53.5 61t16 93.5v86q-12 -19 -26 -36q-26 -31 -62 -49.5t-84 -18.5zM257 651v99h75v-99h-75z" />
    <glyph glyph-name="uni0122" unicode="&#x122;" horiz-adv-x="675" 
d="M65 328v92q0 85 23.5 150t66 109t101 66t128.5 22q48 0 87 -7t68 -18.5t49 -24.5v-75q-34 26 -87 42.5t-117 16.5q-51 0 -96 -17t-78 -50.5t-52 -85t-19 -121.5v-106q0 -91 30 -150t85 -88.5t129 -29.5q30 0 59.5 3t56.5 9q17 4 22 5h-1v0l11 4v265h-202v69h276v-372
q-40 -20 -95 -35t-127 -15q-70 0 -128.5 21.5t-101 64.5t-65.5 107t-23 149zM384 -244h-52l9 151h64z" />
    <glyph glyph-name="uni0123" unicode="&#x123;" 
d="M420 399q-21 38 -58 62t-83 24q-31 0 -58.5 -10.5t-48.5 -32.5t-32.5 -56t-11.5 -82v-73q0 -38 9.5 -71t28 -58t46.5 -39t66 -14q48 0 84.5 25.5t58 64t21.5 79.5v114q-4 35 -22 67zM270 -13q-70 0 -117.5 31t-71 87t-23.5 131v63q0 72 23.5 128t70.5 88t116 32
q61 0 105 -26q42 -26 69 -69v83h69v-534q0 -70 -26.5 -123t-80 -82.5t-135.5 -29.5q-32 0 -63 4.5t-59.5 12t-53.5 17.5v66q46 -20 93 -28.5t84 -8.5q65 0 102.5 21.5t53.5 61t16 93.5v86q-12 -19 -26 -36q-26 -31 -62 -49.5t-84 -18.5zM285.013 778.971h51.9932
l-8.99902 -150.982h-63.9922z" />
    <glyph glyph-name="Hcircumflex" unicode="&#x124;" horiz-adv-x="738" 
d="M173 755v-333h392v333h73v-755h-73v354h-392v-354h-73v755h73zM220 827l121 133h58l121 -133h-70l-80 89l-79 -89h-71z" />
    <glyph glyph-name="hcircumflex" unicode="&#x125;" horiz-adv-x="598" 
d="M84 0v755h69v-302q14 22 32 40q27 26 63 40t80 14q67 0 109 -25.5t62 -75t20 -119.5v-327h-70v320q0 58 -17.5 93.5t-48.5 52t-71 16.5q-42 0 -78.5 -18t-58.5 -54.5t-22 -93.5v-316h-69zM-31 827l121 133h58l121 -133h-70l-80 89l-79 -89h-71z" />
    <glyph glyph-name="Hbar" unicode="&#x126;" horiz-adv-x="745" 
d="M24 563v60h79v132h74v-132h392v132h73v-132h76v-60h-76v-563h-73v354h-392v-354h-74v563h-79zM177 563v-141h392v141h-392z" />
    <glyph glyph-name="hbar" unicode="&#x127;" horiz-adv-x="598" 
d="M334 620h-181v-167q14 22 32 40q27 26 63 40t80 14q67 0 109 -25.5t62 -75t20 -119.5v-327h-70v320q0 58 -17.5 93.5t-48.5 52t-71 16.5q-42 0 -78.5 -18t-58.5 -54.5t-22 -93.5v-316h-69v620h-85v55h85v80h69v-80h181v-55z" />
    <glyph glyph-name="Itilde" unicode="&#x128;" horiz-adv-x="273" 
d="M173 755v-755h-73v755h73zM71 881q-19 0 -40.5 -11t-39.5 -25v51q14 13 34.5 26t45.5 13q21 0 44.5 -10t46.5 -20.5t42 -10.5q20 0 40 12t36 25v-50q-12 -15 -33.5 -28t-44.5 -13q-21 0 -44 10.5t-45 20.5t-42 10z" />
    <glyph glyph-name="itilde" unicode="&#x129;" horiz-adv-x="237" 
d="M84 0v535h69v-535h-69zM54 683q-19 0 -40.5 -11.5t-39.5 -23.5v51q14 13 34.5 26t45.5 13q22 0 45 -10t46 -20.5t42 -10.5q20 0 39.5 11.5t36.5 24.5v-50q-13 -15 -34.5 -28t-44.5 -13q-21 0 -44 10.5t-45 20.5t-41 10z" />
    <glyph glyph-name="Imacron" unicode="&#x12a;" horiz-adv-x="273" 
d="M173 755v-755h-73v755h73zM-13 858v52h299v-52h-299z" />
    <glyph glyph-name="imacron" unicode="&#x12b;" horiz-adv-x="237" 
d="M84 0v535h69v-535h-69zM-14 658v52h265v-52h-265z" />
    <glyph glyph-name="Ibreve" unicode="&#x12c;" horiz-adv-x="273" 
d="M173 755v-755h-73v755h73zM211 954h57q0 -39 -14.5 -66.5t-44 -42t-74.5 -14.5q-47 0 -76.5 15t-42.5 43t-13 65h55q0 -44 21 -59t56 -15q36 0 56 16t20 58z" />
    <glyph glyph-name="ibreve" unicode="&#x12d;" horiz-adv-x="237" 
d="M84 0v535h69v-535h-69zM189 755h57q0 -37 -13.5 -65.5t-41.5 -45t-71 -16.5q-45 0 -73 17t-41 46t-13 64h55q0 -40 20 -59t52 -19t50.5 20t18.5 58z" />
    <glyph glyph-name="Iogonek" unicode="&#x12e;" horiz-adv-x="273" 
d="M173 755v-755q-21 -9 -42 -23t-34 -32.5t-13 -43.5q0 -31 19.5 -50.5t55.5 -19.5q9 0 17 1t17 2v-57q-11 -2 -22.5 -3.5t-22.5 -1.5q-60 0 -95 32t-35 84q0 41 22 69t54 46q3 1 6 3v749h73z" />
    <glyph glyph-name="iogonek" unicode="&#x12f;" horiz-adv-x="237" 
d="M137 -228q-60 0 -95 30.5t-35 82.5q0 41 20 68.5t49 46.5l8 4v531h69v-535q-21 -9 -39.5 -23t-30 -32.5t-11.5 -43.5q0 -31 20 -50.5t56 -19.5q9 0 17 1l16 2v-57q-11 -2 -22 -3.5t-22 -1.5zM81 651v99h75v-99h-75z" />
    <glyph glyph-name="Idotaccent" unicode="&#x130;" horiz-adv-x="273" 
d="M173 755v-755h-73v755h73zM101 846v99h71v-99h-71z" />
    <glyph glyph-name="dotlessi" unicode="&#x131;" horiz-adv-x="237" 
d="M84 0v535h69v-535h-69z" />
    <glyph glyph-name="IJ" unicode="&#x132;" horiz-adv-x="555" 
d="M173 755v-453h-73v453h73zM388 192v563h73v-567q0 -47 -15.5 -84t-44 -63.5t-68.5 -40.5t-89 -14q-35 0 -68.5 8.5t-56.5 19.5v68q16 -9 36 -15.5t43 -10t46 -3.5q36 0 68.5 10t54 39.5t21.5 89.5z" />
    <glyph glyph-name="ij" unicode="&#x133;" horiz-adv-x="482" 
d="M84 0v535h69v-535h-69zM81 651v99h75v-99h-75zM399 535v-585q0 -44 -10 -78.5t-30.5 -58t-52 -35.5t-74.5 -12q-17 0 -28 2t-20 5v65q8 -4 21 -6.5t28 -2.5q50 0 73 30.5t23 94.5v581h70zM326 651v99h75v-99h-75z" />
    <glyph glyph-name="Jcircumflex" unicode="&#x134;" horiz-adv-x="480" 
d="M312 192v497h-259v66h332v-567q0 -63 -26.5 -108t-75 -69.5t-114.5 -24.5q-35 0 -68.5 8.5t-56.5 19.5v68q24 -14 56.5 -21.5t68.5 -7.5q35 0 68 10t54 39.5t21 89.5zM70 827l121 133h58l121 -133h-70l-80 89l-79 -89h-71z" />
    <glyph glyph-name="jcircumflex" unicode="&#x135;" horiz-adv-x="245" 
d="M162 535v-585q0 -44 -10 -78.5t-30.5 -58t-52 -35.5t-74.5 -12q-17 0 -28 2t-20 5v65q8 -4 21 -6.5t28 -2.5q50 0 73 30.5t23 94.5v581h70zM-26 622l124 153h58l124 -153h-65l-88 112l-90 -112h-63z" />
    <glyph glyph-name="uni0136" unicode="&#x136;" horiz-adv-x="643" 
d="M541 0l-237 354h-131v-354h-73v755h73v-336h132l228 336h84l-253 -364l265 -391h-88zM362 -244h-52l9 151h64z" />
    <glyph glyph-name="uni0137" unicode="&#x137;" horiz-adv-x="511" 
d="M84 0v755h69v-441h94l156 221h79l-182 -246l200 -289h-81l-175 255l-91 1v-256h-69zM290 -244h-52l9 151h64z" />
    <glyph glyph-name="kgreenlandic" unicode="&#x138;" horiz-adv-x="511" 
d="M418 0l-174 253h-91v-253h-69v535h69v-224h94l157 224h79l-183 -249l198 -286h-80z" />
    <glyph glyph-name="Lacute" unicode="&#x139;" horiz-adv-x="522" 
d="M173 755v-689h338v-66h-411v755h73zM107 827l77 133h67l-85 -133h-59z" />
    <glyph glyph-name="lacute" unicode="&#x13a;" horiz-adv-x="286" 
d="M80 133v622h70v-618q0 -45 12 -66t44 -21q16 0 30.5 3t22.5 7v-61q-10 -4 -26.5 -8t-34.5 -4q-45 0 -70.5 16.5t-36.5 49t-11 80.5zM83 827l77 133h67l-85 -133h-59z" />
    <glyph glyph-name="uni013B" unicode="&#x13b;" horiz-adv-x="522" 
d="M173 755v-689h338v-66h-411v755h73zM316 -244h-52l9 151h64z" />
    <glyph glyph-name="uni013C" unicode="&#x13c;" horiz-adv-x="275" 
d="M80 133v622h70v-618q0 -45 12 -66t44 -21q16 0 30.5 3t22.5 7v-61q-10 -4 -26.5 -8t-34.5 -4q-45 0 -70.5 16.5t-36.5 49t-11 80.5zM180 -244h-52l9 151h64z" />
    <glyph glyph-name="Lcaron" unicode="&#x13d;" horiz-adv-x="522" 
d="M173 755v-689h338v-66h-411v755h73zM371 627h-49l14 209h61z" />
    <glyph glyph-name="lcaron" unicode="&#x13e;" horiz-adv-x="279" 
d="M80 133v622h70v-618q0 -45 12 -66t44 -21q16 0 30.5 3t22.5 7v-61q-10 -4 -26.5 -8t-34.5 -4q-45 0 -70.5 16.5t-36.5 49t-11 80.5zM272 546h-49l14 209h61z" />
    <glyph glyph-name="Ldot" unicode="&#x13f;" horiz-adv-x="522" 
d="M173 755v-689h338v-66h-411v755h73zM366 349v109h74v-109h-74z" />
    <glyph glyph-name="ldot" unicode="&#x140;" horiz-adv-x="304" 
d="M80 133v622h70v-618q0 -45 12 -66t44 -21q16 0 30.5 3t22.5 7v-61q-10 -4 -26.5 -8t-34.5 -4q-45 0 -70.5 16.5t-36.5 49t-11 80.5zM234 329v109h74v-109h-74z" />
    <glyph glyph-name="Lslash" unicode="&#x141;" horiz-adv-x="537" 
d="M367 453l-179 -102v-285h337v-66h-411v310l-90 -52v62l90 52v383h74v-342l179 102v-62z" />
    <glyph glyph-name="lslash" unicode="&#x142;" horiz-adv-x="340" 
d="M292 435l-100 -62v-236q0 -45 12.5 -66t44.5 -21q16 0 30 3t22 7v-61q-10 -4 -26.5 -8t-33.5 -4q-45 0 -71 16.5t-36.5 49t-10.5 80.5v197l-89 -56v65l89 55v361h69v-318l100 61v-63z" />
    <glyph glyph-name="Nacute" unicode="&#x143;" horiz-adv-x="734" 
d="M100 0v755h70l395 -628v628h69v-755h-69l-395 631v-631h-70zM348 827l77 133h67l-85 -133h-59z" />
    <glyph glyph-name="nacute" unicode="&#x144;" horiz-adv-x="598" 
d="M84 0v535h69v-82q14 22 32 40q27 26 63 40t80 14q67 0 109 -25.5t62 -75t20 -119.5v-327h-70v320q0 58 -17.5 93.5t-48.5 52t-71 16.5q-42 0 -78.5 -18t-58.5 -54.5t-22 -93.5v-316h-69zM272 622l88 153h67l-96 -153h-59z" />
    <glyph glyph-name="uni0145" unicode="&#x145;" horiz-adv-x="734" 
d="M100 0v755h70l395 -628v628h69v-755h-69l-395 631v-631h-70zM378 -244h-52l9 151h64z" />
    <glyph glyph-name="uni0146" unicode="&#x146;" horiz-adv-x="598" 
d="M84 0v535h69v-82q14 22 32 40q27 26 63 40t80 14q67 0 109 -25.5t62 -75t20 -119.5v-327h-70v320q0 58 -17.5 93.5t-48.5 52t-71 16.5q-42 0 -78.5 -18t-58.5 -54.5t-22 -93.5v-316h-69zM312 -244h-52l9 151h64z" />
    <glyph glyph-name="Ncaron" unicode="&#x147;" horiz-adv-x="734" 
d="M100 0v755h70l395 -628v628h69v-755h-69l-395 631v-631h-70zM349 827l-121 133h70l80 -89l79 89h71l-121 -133h-58z" />
    <glyph glyph-name="ncaron" unicode="&#x148;" horiz-adv-x="598" 
d="M84 0v535h69v-82q14 22 32 40q27 26 63 40t80 14q67 0 109 -25.5t62 -75t20 -119.5v-327h-70v320q0 58 -17.5 93.5t-48.5 52t-71 16.5q-42 0 -78.5 -18t-58.5 -54.5t-22 -93.5v-316h-69zM273 622l-124 153h65l88 -112l91 112h62l-124 -153h-58z" />
    <glyph glyph-name="napostrophe" unicode="&#x149;" horiz-adv-x="820" 
d="M67 520l32 235h70l-46 -235h-56zM306 0v535h69v-82q14 22 32 40q27 26 63 40t80 14q67 0 109 -25.5t62 -75t20 -119.5v-327h-70v320q0 58 -17.5 93.5t-48.5 52t-71 16.5q-42 0 -78.5 -18t-58.5 -54.5t-22 -93.5v-316h-69z" />
    <glyph glyph-name="Eng" unicode="&#x14a;" horiz-adv-x="734" 
d="M565 -31v31l-395 630v-630h-70v755h70l395 -628v628h69v-790q0 -62 -25.5 -107t-73 -69.5t-113.5 -24.5q-35 0 -69 8t-57 19v69q24 -14 57 -22t69 -8q35 0 67.5 10t54 40t21.5 89z" />
    <glyph glyph-name="eng" unicode="&#x14b;" horiz-adv-x="598" 
d="M84 0v535h69v-82q16 24 36 43q27 25 62.5 38.5t79.5 13.5q67 0 108.5 -26t60.5 -75.5t19 -119.5v-377q0 -44 -10 -78.5t-30.5 -58t-51.5 -35.5t-74 -12q-17 0 -28.5 2t-20.5 5v65q8 -4 21.5 -6.5t28.5 -2.5q50 0 72.5 30.5t22.5 94.5v366q0 58 -16.5 93.5t-47 52
t-70.5 16.5q-42 0 -77.5 -18.5t-58 -53.5t-26.5 -84v-326h-69z" />
    <glyph glyph-name="Omacron" unicode="&#x14c;" horiz-adv-x="715" 
d="M140 427v-113q0 -87 25 -145t73.5 -87t118.5 -29q69 0 118 29t75 87t26 145v113q0 88 -26 149t-75 93t-118 32q-53 0 -93 -18.5t-68 -53.5t-42 -86t-14 -116zM65 321v99q0 114 35 191t101 117t156 40q69 0 123.5 -23t92.5 -67.5t58 -109t20 -148.5v-99q0 -85 -21.5 -148
t-61 -104.5t-93.5 -62t-118 -20.5t-118 20.5t-93 62t-60 104.5t-21 148zM208 858v52h299v-52h-299z" />
    <glyph glyph-name="omacron" unicode="&#x14d;" horiz-adv-x="571" 
d="M128 306v-78q0 -86 43 -132.5t114 -46.5q74 0 116 47t42 132v78q0 88 -43 134t-115 46q-71 0 -114 -46t-43 -134zM59 233v68q0 81 29 136t80 82.5t117 27.5t117.5 -27.5t81 -82.5t29.5 -136v-68q0 -61 -16.5 -107t-47.5 -77t-72.5 -46.5t-91.5 -15.5q-66 0 -117 28
t-80 82.5t-29 135.5zM153 658v52h265v-52h-265z" />
    <glyph glyph-name="Obreve" unicode="&#x14e;" horiz-adv-x="715" 
d="M140 427v-113q0 -87 25 -145t73.5 -87t118.5 -29q69 0 118 29t75 87t26 145v113q0 88 -26 149t-75 93t-118 32q-53 0 -93 -18.5t-68 -53.5t-42 -86t-14 -116zM65 321v99q0 114 35 191t101 117t156 40q69 0 123.5 -23t92.5 -67.5t58 -109t20 -148.5v-99q0 -85 -21.5 -148
t-61 -104.5t-93.5 -62t-118 -20.5t-118 20.5t-93 62t-60 104.5t-21 148zM433 954h57q0 -39 -14.5 -66.5t-44 -42t-74.5 -14.5q-47 0 -76.5 15t-42.5 43t-13 65h55q0 -44 21 -59t56 -15q36 0 56 16t20 58z" />
    <glyph glyph-name="obreve" unicode="&#x14f;" horiz-adv-x="571" 
d="M128 306v-78q0 -86 43 -132.5t114 -46.5q74 0 116 47t42 132v78q0 88 -43 134t-115 46q-71 0 -114 -46t-43 -134zM59 233v68q0 81 29 136t80 82.5t117 27.5t117.5 -27.5t81 -82.5t29.5 -136v-68q0 -61 -16.5 -107t-47.5 -77t-72.5 -46.5t-91.5 -15.5q-66 0 -117 28
t-80 82.5t-29 135.5zM357 755h57q0 -37 -13.5 -65.5t-41.5 -45t-71 -16.5q-45 0 -73 17t-41 46t-13 64h55q0 -40 20 -59t52 -19t50.5 20t18.5 58z" />
    <glyph glyph-name="Ohungarumlaut" unicode="&#x150;" horiz-adv-x="715" 
d="M140 427v-113q0 -87 25 -145t73.5 -87t118.5 -29q69 0 118 29t75 87t26 145v113q0 88 -26 149t-75 93t-118 32q-53 0 -93 -18.5t-68 -53.5t-42 -86t-14 -116zM65 321v99q0 114 35 191t101 117t156 40q69 0 123.5 -23t92.5 -67.5t58 -109t20 -148.5v-99q0 -85 -21.5 -148
t-61 -104.5t-93.5 -62t-118 -20.5t-118 20.5t-93 62t-60 104.5t-21 148zM247 827l77 133h67l-85 -133h-59zM395 827l77 133h67l-84 -133h-60z" />
    <glyph glyph-name="ohungarumlaut" unicode="&#x151;" horiz-adv-x="571" 
d="M128 306v-78q0 -86 43 -132.5t114 -46.5q74 0 116 47t42 132v78q0 88 -43 134t-115 46q-71 0 -114 -46t-43 -134zM59 233v68q0 81 29 136t80 82.5t117 27.5t117.5 -27.5t81 -82.5t29.5 -136v-68q0 -61 -16.5 -107t-47.5 -77t-72.5 -46.5t-91.5 -15.5q-66 0 -117 28
t-80 82.5t-29 135.5zM344 622l95 153h67l-103 -153h-59zM190 622l88 153h67l-96 -153h-59z" />
    <glyph glyph-name="OE" unicode="&#x152;" horiz-adv-x="1070" 
d="M65 321v99q0 114 35.5 191t101 117t156.5 40q69 0 118 -23t79 -68q6 -9 12 -20v98h439v-66h-366v-271h337v-64h-337v-288h375v-66h-448v94q-19 -32 -45 -55q-31 -26 -72 -39.5t-92 -13.5q-65 0 -118.5 20.5t-93 62t-60.5 104.5t-21 148zM140 427v-113q0 -87 25.5 -145
t74 -87t118.5 -29q69 0 115 29t70 87t24 145v113q0 88 -23.5 149t-70 93t-116.5 32q-52 0 -92.5 -18.5t-68 -53.5t-42 -86t-14.5 -116z" />
    <glyph glyph-name="oe" unicode="&#x153;" horiz-adv-x="937" 
d="M59 233v68q0 81 29 136t80 82.5t117 27.5q50 0 90.5 -15.5t69.5 -46.5q20 -20 33 -47q12 24 28 43q28 32 67.5 49t89.5 17q66 0 115.5 -25.5t76 -78.5t26.5 -133v-73h-368v-8q0 -39 10.5 -71.5t32 -57t54.5 -38t78 -13.5t87.5 8t93.5 39v-63q-44 -26 -88.5 -36t-99.5 -10
q-74 0 -126 29q-50 29 -76 82q-14 -28 -34 -49q-29 -31 -69.5 -46.5t-90.5 -15.5q-66 0 -117 28t-80 82.5t-29 135.5zM128 306v-78q0 -86 43 -132.5t114 -46.5q74 0 116 47t42 132v78q0 88 -43 134t-115 46q-71 0 -114 -46t-43 -134zM811 297v16q0 56 -15.5 94.5t-48.5 58
t-83 19.5q-32 0 -59.5 -10t-48 -31.5t-32 -56t-11.5 -82.5v-8h298z" />
    <glyph glyph-name="Racute" unicode="&#x154;" horiz-adv-x="664" 
d="M592 538q0 -70 -27 -121.5t-82 -79.5q-12 -6 -26 -11l166 -326h-87l-150 311q-20 -2 -41 -2h-172v-309h-73v755h241q86 0 141.5 -28.5t82.5 -77.5t27 -111zM173 374h169q51 0 85 12.5t53.5 34t28 50t8.5 61.5q0 53 -20.5 88t-61 52t-102.5 17h-160v-315zM296 827l77 133
h67l-85 -133h-59z" />
    <glyph glyph-name="racute" unicode="&#x155;" horiz-adv-x="354" 
d="M330 547v-67q-5 1 -9.5 1.5t-8.5 0.5q-42 0 -76.5 -22.5t-56.5 -60.5t-26 -86v-313h-69v535h69v-94q16 27 36 48q27 27 62 42.5t79 15.5zM177 622l88 153h67l-96 -153h-59z" />
    <glyph glyph-name="uni0156" unicode="&#x156;" horiz-adv-x="664" 
d="M592 538q0 -70 -27 -121.5t-82 -79.5q-12 -6 -26 -11l166 -326h-87l-150 311q-20 -2 -41 -2h-172v-309h-73v755h241q86 0 141.5 -28.5t82.5 -77.5t27 -111zM173 374h169q51 0 85 12.5t53.5 34t28 50t8.5 61.5q0 53 -20.5 88t-61 52t-102.5 17h-160v-315zM355 -244h-52
l9 151h64z" />
    <glyph glyph-name="uni0157" unicode="&#x157;" horiz-adv-x="354" 
d="M330 547v-67q-5 1 -9.5 1.5t-8.5 0.5q-42 0 -76.5 -22.5t-56.5 -60.5t-26 -86v-313h-69v535h69v-94q16 27 36 48q27 27 62 42.5t79 15.5zM129 -244h-52l9 151h64z" />
    <glyph glyph-name="Rcaron" unicode="&#x158;" horiz-adv-x="664" 
d="M592 538q0 -70 -27 -121.5t-82 -79.5q-12 -6 -26 -11l166 -326h-87l-150 311q-20 -2 -41 -2h-172v-309h-73v755h241q86 0 141.5 -28.5t82.5 -77.5t27 -111zM173 374h169q51 0 85 12.5t53.5 34t28 50t8.5 61.5q0 53 -20.5 88t-61 52t-102.5 17h-160v-315zM297 827
l-121 133h70l80 -89l79 89h71l-121 -133h-58z" />
    <glyph glyph-name="rcaron" unicode="&#x159;" horiz-adv-x="354" 
d="M330 547v-67q-5 1 -9.5 1.5t-8.5 0.5q-42 0 -76.5 -22.5t-56.5 -60.5t-26 -86v-313h-69v535h69v-94q16 27 36 48q27 27 62 42.5t79 15.5zM178 622l-124 153h65l88 -112l91 112h62l-124 -153h-58z" />
    <glyph glyph-name="Sacute" unicode="&#x15a;" horiz-adv-x="604" 
d="M63 44v76q53 -32 108 -49.5t117 -17.5t104.5 19.5t64 54.5t21.5 80q0 46 -16.5 74.5t-53.5 44.5t-98 23l-50 6q-60 7 -105 31t-70 65t-25 102q0 50 19 89.5t53 67t80 42t100 14.5q46 0 83 -7t68 -19t58 -31v-76q-49 34 -99 51.5t-108 17.5q-46 0 -80 -11t-56 -31
t-33 -47.5t-11 -60.5q0 -44 16 -70.5t50.5 -41t91.5 -21.5l50 -6q63 -7 110 -28.5t74 -63t27 -109.5q0 -54 -19.5 -95.5t-56 -70t-86 -43t-109.5 -14.5q-61 0 -112.5 13t-106.5 42zM276 827l77 133h67l-85 -133h-59z" />
    <glyph glyph-name="sacute" unicode="&#x15b;" horiz-adv-x="507" 
d="M60 28v69q46 -22 91 -35t92 -13q67 0 107.5 24.5t40.5 73.5q0 29 -14 49t-41.5 31.5t-68.5 14.5l-53 4q-43 3 -80 17t-59 45.5t-22 85.5q0 37 16 65.5t44.5 48t64.5 30t76 10.5t73.5 -5t60.5 -13.5t49 -21.5v-70q-45 26 -92 36.5t-84 10.5q-65 0 -102.5 -24t-37.5 -70
q0 -33 17 -50.5t44 -25t57 -10.5l60 -5q49 -3 85 -19t56 -48t20 -83q0 -42 -19.5 -73t-51.5 -50.5t-70.5 -29t-77.5 -9.5q-30 0 -63 4.5t-64 14t-54 21.5zM226 622l88 153h67l-96 -153h-59z" />
    <glyph glyph-name="Scircumflex" unicode="&#x15c;" horiz-adv-x="604" 
d="M63 44v76q53 -32 108 -49.5t117 -17.5t104.5 19.5t64 54.5t21.5 80q0 46 -16.5 74.5t-53.5 44.5t-98 23l-50 6q-60 7 -105 31t-70 65t-25 102q0 50 19 89.5t53 67t80 42t100 14.5q46 0 83 -7t68 -19t58 -31v-76q-49 34 -99 51.5t-108 17.5q-46 0 -80 -11t-56 -31
t-33 -47.5t-11 -60.5q0 -44 16 -70.5t50.5 -41t91.5 -21.5l50 -6q63 -7 110 -28.5t74 -63t27 -109.5q0 -54 -19.5 -95.5t-56 -70t-86 -43t-109.5 -14.5q-61 0 -112.5 13t-106.5 42zM156 827l121 133h58l121 -133h-70l-80 89l-79 -89h-71z" />
    <glyph glyph-name="scircumflex" unicode="&#x15d;" horiz-adv-x="507" 
d="M60 28v69q46 -22 91 -35t92 -13q67 0 107.5 24.5t40.5 73.5q0 29 -14 49t-41.5 31.5t-68.5 14.5l-53 4q-43 3 -80 17t-59 45.5t-22 85.5q0 37 16 65.5t44.5 48t64.5 30t76 10.5t73.5 -5t60.5 -13.5t49 -21.5v-70q-45 26 -92 36.5t-84 10.5q-65 0 -102.5 -24t-37.5 -70
q0 -33 17 -50.5t44 -25t57 -10.5l60 -5q49 -3 85 -19t56 -48t20 -83q0 -42 -19.5 -73t-51.5 -50.5t-70.5 -29t-77.5 -9.5q-30 0 -63 4.5t-64 14t-54 21.5zM102 622l124 153h58l124 -153h-65l-88 112l-90 -112h-63z" />
    <glyph glyph-name="Scedilla" unicode="&#x15e;" horiz-adv-x="604" 
d="M63 44v76q53 -32 108 -49.5t117 -17.5t104.5 19.5t64 54.5t21.5 80q0 46 -16.5 74.5t-53.5 44.5t-98 23l-50 6q-60 7 -105 31t-70 65t-25 102q0 50 19 89.5t53 67t80 42t100 14.5q46 0 83 -7t68 -19t58 -31v-76q-49 34 -99 51.5t-108 17.5q-46 0 -80 -11t-56 -31
t-33 -47.5t-11 -60.5q0 -44 16 -70.5t50.5 -41t91.5 -21.5l50 -6q63 -7 110 -28.5t74 -63t27 -109.5q0 -54 -19.5 -95.5t-56 -70t-86 -43t-109.5 -14.5q-61 0 -112.5 13t-106.5 42zM219 -222v46h49q34 0 48.5 7.5t14.5 28.5q-1 17 -12.5 24t-38.5 7h-37v29l22 85h42l-17 -75
q50 -1 71 -19t21 -50q0 -37 -26.5 -60t-85.5 -23h-51z" />
    <glyph glyph-name="scedilla" unicode="&#x15f;" horiz-adv-x="507" 
d="M60 28v69q46 -22 91 -35t92 -13q67 0 107.5 24.5t40.5 73.5q0 29 -14 49t-41.5 31.5t-68.5 14.5l-53 4q-43 3 -80 17t-59 45.5t-22 85.5q0 37 16 65.5t44.5 48t64.5 30t76 10.5t73.5 -5t60.5 -13.5t49 -21.5v-70q-45 26 -92 36.5t-84 10.5q-65 0 -102.5 -24t-37.5 -70
q0 -33 17 -50.5t44 -25t57 -10.5l60 -5q49 -3 85 -19t56 -48t20 -83q0 -42 -19.5 -73t-51.5 -50.5t-70.5 -29t-77.5 -9.5q-30 0 -63 4.5t-64 14t-54 21.5zM181 -222v46h49q34 0 48.5 7.5t14.5 28.5q-1 17 -12.5 24t-38.5 7h-37v29l22 85h42l-17 -75q50 -1 71 -19t21 -50
q0 -37 -26.5 -60t-85.5 -23h-51z" />
    <glyph glyph-name="Scaron" unicode="&#x160;" horiz-adv-x="604" 
d="M63 44v76q53 -32 108 -49.5t117 -17.5t104.5 19.5t64 54.5t21.5 80q0 46 -16.5 74.5t-53.5 44.5t-98 23l-50 6q-60 7 -105 31t-70 65t-25 102q0 50 19 89.5t53 67t80 42t100 14.5q46 0 83 -7t68 -19t58 -31v-76q-49 34 -99 51.5t-108 17.5q-46 0 -80 -11t-56 -31
t-33 -47.5t-11 -60.5q0 -44 16 -70.5t50.5 -41t91.5 -21.5l50 -6q63 -7 110 -28.5t74 -63t27 -109.5q0 -54 -19.5 -95.5t-56 -70t-86 -43t-109.5 -14.5q-61 0 -112.5 13t-106.5 42zM277 827l-121 133h70l80 -89l79 89h71l-121 -133h-58z" />
    <glyph glyph-name="scaron" unicode="&#x161;" horiz-adv-x="507" 
d="M60 28v69q46 -22 91 -35t92 -13q67 0 107.5 24.5t40.5 73.5q0 29 -14 49t-41.5 31.5t-68.5 14.5l-53 4q-43 3 -80 17t-59 45.5t-22 85.5q0 37 16 65.5t44.5 48t64.5 30t76 10.5t73.5 -5t60.5 -13.5t49 -21.5v-70q-45 26 -92 36.5t-84 10.5q-65 0 -102.5 -24t-37.5 -70
q0 -33 17 -50.5t44 -25t57 -10.5l60 -5q49 -3 85 -19t56 -48t20 -83q0 -42 -19.5 -73t-51.5 -50.5t-70.5 -29t-77.5 -9.5q-30 0 -63 4.5t-64 14t-54 21.5zM227 622l-124 153h65l88 -112l91 112h62l-124 -153h-58z" />
    <glyph glyph-name="uni0162" unicode="&#x162;" horiz-adv-x="612" 
d="M600 755v-68h-252v-687h-73v687h-263v68h588zM242 -222v46h49q34 0 48.5 7.5t14.5 28.5q-1 17 -12.5 24t-38.5 7h-37v29l22 85h42l-17 -75q50 -1 71 -19t21 -50q0 -37 -26.5 -60t-85.5 -23h-51z" />
    <glyph glyph-name="uni0163" unicode="&#x163;" horiz-adv-x="377" 
d="M124 162v313h-100v60h100v165h70v-165h145v-60h-145v-309q0 -40 9 -65.5t30 -38.5t56 -13q16 0 34.5 2.5t28.5 6.5v-62q-12 -4 -29 -6.5t-39 -2.5q-42 0 -72.5 12t-50 34.5t-28.5 55.5t-9 73zM169 -222v46h49q34 0 48.5 7.5t14.5 28.5q-1 17 -12.5 24t-38.5 7h-37v29
l22 85h42l-17 -75q50 -1 71 -19t21 -50q0 -37 -26.5 -60t-85.5 -23h-51z" />
    <glyph glyph-name="Tcaron" unicode="&#x164;" horiz-adv-x="614" 
d="M600 755v-68h-252v-687h-73v687h-263v68h588zM274 827l-121 133h70l80 -89l79 89h71l-121 -133h-58z" />
    <glyph glyph-name="tcaron" unicode="&#x165;" horiz-adv-x="377" 
d="M124 162v313h-100v60h100v165h70v-165h145v-60h-145v-309q0 -40 9 -65.5t30 -38.5t56 -13q16 0 34.5 2.5t28.5 6.5v-62q-12 -4 -29 -6.5t-39 -2.5q-42 0 -72.5 12t-50 34.5t-28.5 55.5t-9 73zM334 618h-48l14 209h61z" />
    <glyph glyph-name="Tbar" unicode="&#x166;" horiz-adv-x="629" 
d="M120 352v62h163v273h-263v68h588v-68h-252v-273h163v-62h-163v-352h-73v352h-163z" />
    <glyph glyph-name="tbar" unicode="&#x167;" horiz-adv-x="385" 
d="M130 162v103h-88v55h88v155h-99v60h99v165h71v-165h145v-60h-145v-155h126v-55h-126v-99q0 -40 9 -65.5t29.5 -38.5t55.5 -13q16 0 35 2.5t29 6.5v-62q-12 -4 -29 -6.5t-39 -2.5q-43 0 -73 12t-49.5 34.5t-29 55.5t-9.5 73z" />
    <glyph glyph-name="Utilde" unicode="&#x168;" horiz-adv-x="747" 
d="M582 755h74v-433q0 -85 -18.5 -148t-54.5 -104.5t-89 -62t-122 -20.5q-92 0 -155 36.5t-94 111t-31 187.5v433h73v-440q0 -90 21.5 -148t67 -86t118.5 -28q76 0 122 29.5t67 87.5t21 145v440zM309 881q-19 0 -40.5 -11t-39.5 -25v51q14 13 34.5 26t45.5 13q21 0 44.5 -10
t46.5 -20.5t42 -10.5q20 0 40 12t36 25v-50q-12 -15 -33.5 -28t-44.5 -13q-21 0 -44 10.5t-45 20.5t-42 10z" />
    <glyph glyph-name="utilde" unicode="&#x169;" horiz-adv-x="594" 
d="M79 535h69v-327q0 -57 17 -91.5t47.5 -49t70.5 -14.5q43 0 78.5 20t57.5 57t22 85v320h70v-535h-70v79q-13 -20 -30 -37q-26 -26 -61 -40.5t-79 -14.5q-66 0 -109 26t-63 75.5t-20 119.5v327zM230 683q-19 0 -40.5 -11.5t-39.5 -23.5v51q14 13 34.5 26t45.5 13
q22 0 45 -10t46 -20.5t42 -10.5q20 0 39.5 11.5t36.5 24.5v-50q-13 -15 -34.5 -28t-44.5 -13q-21 0 -44 10.5t-45 20.5t-41 10z" />
    <glyph glyph-name="Umacron" unicode="&#x16a;" horiz-adv-x="747" 
d="M582 755h74v-433q0 -85 -18.5 -148t-54.5 -104.5t-89 -62t-122 -20.5q-92 0 -155 36.5t-94 111t-31 187.5v433h73v-440q0 -90 21.5 -148t67 -86t118.5 -28q76 0 122 29.5t67 87.5t21 145v440zM224 858v52h299v-52h-299z" />
    <glyph glyph-name="umacron" unicode="&#x16b;" horiz-adv-x="594" 
d="M79 535h69v-327q0 -57 17 -91.5t47.5 -49t70.5 -14.5q43 0 78.5 20t57.5 57t22 85v320h70v-535h-70v79q-13 -20 -30 -37q-26 -26 -61 -40.5t-79 -14.5q-66 0 -109 26t-63 75.5t-20 119.5v327zM162 658v52h265v-52h-265z" />
    <glyph glyph-name="Ubreve" unicode="&#x16c;" horiz-adv-x="747" 
d="M582 755h74v-433q0 -85 -18.5 -148t-54.5 -104.5t-89 -62t-122 -20.5q-92 0 -155 36.5t-94 111t-31 187.5v433h73v-440q0 -90 21.5 -148t67 -86t118.5 -28q76 0 122 29.5t67 87.5t21 145v440zM449 954h57q0 -39 -14.5 -66.5t-44 -42t-74.5 -14.5q-47 0 -76.5 15t-42.5 43
t-13 65h55q0 -44 21 -59t56 -15q36 0 56 16t20 58z" />
    <glyph glyph-name="ubreve" unicode="&#x16d;" horiz-adv-x="594" 
d="M79 535h69v-327q0 -57 17 -91.5t47.5 -49t70.5 -14.5q43 0 78.5 20t57.5 57t22 85v320h70v-535h-70v79q-13 -20 -30 -37q-26 -26 -61 -40.5t-79 -14.5q-66 0 -109 26t-63 75.5t-20 119.5v327zM365 755h57q0 -37 -13.5 -65.5t-41.5 -45t-71 -16.5q-45 0 -73 17t-41 46
t-13 64h55q0 -40 20 -59t52 -19t50.5 20t18.5 58z" />
    <glyph glyph-name="Uring" unicode="&#x16e;" horiz-adv-x="747" 
d="M582 755h74v-433q0 -85 -18.5 -148t-54.5 -104.5t-89 -62t-122 -20.5q-92 0 -155 36.5t-94 111t-31 187.5v433h73v-440q0 -90 21.5 -148t67 -86t118.5 -28q76 0 122 29.5t67 87.5t21 145v440zM373 836q16 0 29.5 6.5t21 19.5t7.5 31q0 27 -16.5 43t-41.5 16t-41.5 -16
t-16.5 -43t16.5 -42t41.5 -15zM373 800q-40 0 -68 24t-28 69q0 44 28 69.5t68 25.5t68 -25.5t28 -69.5t-28 -68.5t-68 -24.5z" />
    <glyph glyph-name="uring" unicode="&#x16f;" horiz-adv-x="594" 
d="M79 535h69v-327q0 -57 17 -91.5t47.5 -49t70.5 -14.5q43 0 78.5 20t57.5 57t22 85v320h70v-535h-70v79q-13 -20 -30 -37q-26 -26 -61 -40.5t-79 -14.5q-66 0 -109 26t-63 75.5t-20 119.5v327zM295 598q-40 0 -69 24.5t-29 70.5q0 45 29 71.5t69 26.5q41 0 70 -26.5
t29 -71.5t-29 -70t-70 -25zM295 634q17 0 31 7t22 20.5t8 31.5q0 19 -8 32.5t-22 21t-31 7.5t-31 -7.5t-22 -21t-8 -32.5q0 -28 17.5 -43.5t43.5 -15.5z" />
    <glyph glyph-name="Uhungarumlaut" unicode="&#x170;" horiz-adv-x="747" 
d="M582 755h74v-433q0 -85 -18.5 -148t-54.5 -104.5t-89 -62t-122 -20.5q-92 0 -155 36.5t-94 111t-31 187.5v433h73v-440q0 -90 21.5 -148t67 -86t118.5 -28q76 0 122 29.5t67 87.5t21 145v440zM263 827l77 133h67l-85 -133h-59zM411 827l77 133h67l-84 -133h-60z" />
    <glyph glyph-name="uhungarumlaut" unicode="&#x171;" horiz-adv-x="594" 
d="M79 535h69v-327q0 -57 17 -91.5t47.5 -49t70.5 -14.5q43 0 78.5 20t57.5 57t22 85v320h70v-535h-70v79q-13 -20 -30 -37q-26 -26 -61 -40.5t-79 -14.5q-66 0 -109 26t-63 75.5t-20 119.5v327zM352 622l95 153h67l-103 -153h-59zM198 622l88 153h67l-96 -153h-59z" />
    <glyph glyph-name="Uogonek" unicode="&#x172;" horiz-adv-x="747" 
d="M582 755h74v-433q0 -85 -18.5 -148t-54.5 -104.5t-89 -62t-122 -20.5q-92 0 -155 36.5t-94 111t-31 187.5v433h73v-440q0 -90 21.5 -148t67 -86t118.5 -28q76 0 122 29.5t67 87.5t21 145v440zM414 -228q-60 0 -95 32t-35 84q0 41 19 68t48 46.5t57 31.5l22 -34
q-21 -9 -39.5 -23t-30 -32.5t-11.5 -43.5q0 -31 20 -50.5t56 -19.5q9 0 17 1l16 2v-57q-11 -2 -22 -3.5t-22 -1.5z" />
    <glyph glyph-name="uogonek" unicode="&#x173;" horiz-adv-x="594" 
d="M79 535h69v-327q0 -57 17 -91.5t47.5 -49t70.5 -14.5q43 0 78.5 20t57.5 57t22 85v320h70v-535q-22 -9 -40.5 -23t-29.5 -32.5t-11 -43.5q0 -31 19.5 -50.5t55.5 -19.5q9 0 17 1t17 2v-57q-11 -2 -22.5 -3.5t-22.5 -1.5q-60 0 -95 29.5t-35 81.5q0 41 21 69.5t52 46.5
q2 1 4 3v77q-13 -20 -30 -37q-26 -26 -61 -40.5t-79 -14.5q-66 0 -109 26t-63 75.5t-20 119.5v327z" />
    <glyph glyph-name="Wcircumflex" unicode="&#x174;" horiz-adv-x="961" 
d="M936 755l-201 -767h-72l-95 327l-89 319l-92 -318l-100 -327h-74l-178 766h79l142 -656l191 656h74l179 -658l159 658h77zM335 827l121 133h58l121 -133h-70l-80 89l-79 -89h-71z" />
    <glyph glyph-name="wcircumflex" unicode="&#x175;" horiz-adv-x="844" 
d="M26 535h76l135 -463l153 463h68l153 -458l134 458h72l-169 -544h-73l-152 443l-152 -443h-75zM271 622l124 153h58l124 -153h-65l-88 112l-90 -112h-63z" />
    <glyph glyph-name="Ycircumflex" unicode="&#x176;" horiz-adv-x="610" 
d="M587 755l-247 -455v-300h-73v302l-240 453h86l192 -379l203 379h79zM161 827l121 133h58l121 -133h-70l-80 89l-79 -89h-71z" />
    <glyph glyph-name="ycircumflex" unicode="&#x177;" horiz-adv-x="543" 
d="M238 -222h-75l76 207l-215 550h76l175 -464l176 464h72l-209 -535h-1zM122 622l124 153h58l124 -153h-65l-88 112l-90 -112h-63z" />
    <glyph glyph-name="Ydieresis" unicode="&#x178;" horiz-adv-x="610" 
d="M587 755l-247 -455v-300h-73v302l-240 453h86l192 -379l203 379h79zM176 846v99h71v-99h-71zM375 846v99h71v-99h-71z" />
    <glyph glyph-name="Zacute" unicode="&#x179;" horiz-adv-x="602" 
d="M559 687l-434 -619h434v-68h-515v68l438 619h-438v68h515v-68zM272 827l77 133h67l-85 -133h-59z" />
    <glyph glyph-name="zacute" unicode="&#x17a;" horiz-adv-x="497" 
d="M451 535v-50l-326 -423h329v-62h-414v53l324 420h-316v62h403zM220 622l88 153h67l-96 -153h-59z" />
    <glyph glyph-name="Zdotaccent" unicode="&#x17b;" horiz-adv-x="602" 
d="M559 687l-434 -619h434v-68h-515v68l438 619h-438v68h515v-68zM267 846v99h71v-99h-71z" />
    <glyph glyph-name="zdotaccent" unicode="&#x17c;" horiz-adv-x="497" 
d="M451 535v-50l-326 -423h329v-62h-414v53l324 420h-316v62h403zM212 651v99h75v-99h-75z" />
    <glyph glyph-name="Zcaron" unicode="&#x17d;" horiz-adv-x="602" 
d="M559 687l-434 -619h434v-68h-515v68l438 619h-438v68h515v-68zM273 827l-121 133h70l80 -89l79 89h71l-121 -133h-58z" />
    <glyph glyph-name="zcaron" unicode="&#x17e;" horiz-adv-x="497" 
d="M451 535v-50l-326 -423h329v-62h-414v53l324 420h-316v62h403zM221 622l-124 153h65l88 -112l91 112h62l-124 -153h-58z" />
    <glyph glyph-name="uni018E" unicode="&#x18e;" horiz-adv-x="603" 
d="M64.0654 755v-66h365.956v-271h-336.959v-64h336.959v-288h-374.955v-66h447.945v755h-438.946z" />
    <glyph glyph-name="uni018F" unicode="&#x18f;" horiz-adv-x="684" 
d="M150 169q22 -58 67.5 -87t115.5 -29q68 0 115.5 28t72.5 86t25 147v32h-418v-32q0 -87 22 -145zM54 414h492v13q0 88 -32.5 149t-89.5 93t-130 32q-39 0 -75.5 -8t-66.5 -21.5t-51 -29.5v75q20 13 51 24.5t70.5 18.5t82.5 7q72 0 130 -22.5t99.5 -67.5t63.5 -109t22 -148
v-99q0 -85 -21 -148t-59 -104.5t-91 -62t-118 -20.5q-64 0 -115 20.5t-87.5 62t-55.5 104.5t-19 148v93z" />
    <glyph glyph-name="uni0190" unicode="&#x190;" horiz-adv-x="573" 
d="M319 767q57 0 111 -12.5t94 -43.5v-72q-49 39 -99 50t-97 11q-69 0 -110.5 -15t-60 -44.5t-18.5 -74.5q0 -40 16.5 -67.5t46.5 -44.5t71 -24t89 -7h63v-65h-64q-55 0 -98.5 -7.5t-73.5 -24.5t-46 -47t-16 -75q0 -49 23 -83t70.5 -50.5t122.5 -16.5q34 0 65 4t61.5 13.5
t61.5 24.5v-70q-27 -14 -75 -26.5t-113 -12.5q-77 0 -132 15t-89.5 44t-50 69.5t-15.5 90.5q0 47 15 82.5t42.5 60t64.5 38.5q11 4 22 7q-9 3 -17 6q-35 14 -60.5 36.5t-39 56t-13.5 80.5q0 59 27.5 102.5t83 67.5t138.5 24z" />
    <glyph glyph-name="florin" unicode="&#x192;" horiz-adv-x="532" 
d="M470 420v-66h-221v-394q0 -38 -8 -72.5t-27 -62t-52.5 -43.5t-85.5 -16q-44 0 -77 12t-51 21v68q16 -10 38.5 -18t46 -12.5t43.5 -4.5q42 0 63.5 16.5t29 46t7.5 68.5v391h-127v66h127v125q0 70 23 120t70 77t116 27q33 0 56.5 -5t41.5 -12.5t32 -15.5v-69q-18 11 -38 19
t-43 12.5t-53 4.5q-45 0 -74.5 -15.5t-43.5 -50.5t-14 -96v-121h221z" />
    <glyph glyph-name="Ohorn" unicode="&#x1a0;" horiz-adv-x="722" 
d="M600 902h55v-65q0 -31 -9.5 -55.5t-27 -40.5t-42.5 -24q-16 -6 -36 -8q18 -14 33 -32q38 -44 58 -108.5t20 -148.5v-99q0 -85 -21.5 -148t-61 -104.5t-93.5 -62t-118 -20.5t-118 20.5t-93 62t-60 104.5t-21 148v99q0 114 35 191t101 117t156 40q51 0 94 -13h57
q47 0 69.5 21.5t22.5 68.5v57zM140 427v-113q0 -87 25 -145t73.5 -87t118.5 -29q69 0 118 29t75 87t26 145v113q0 88 -26 149t-75 93t-118 32q-53 0 -93 -18.5t-68 -53.5t-42 -86t-14 -116z" />
    <glyph glyph-name="ohorn" unicode="&#x1a1;" horiz-adv-x="590" 
d="M482 667h54v-77q0 -28 -7.5 -48t-21.5 -31.5t-34 -16.5q-13 -4 -29 -5q23 -22 40 -52q29 -55 29 -136v-68q0 -61 -16.5 -107t-47.5 -77t-72.5 -46.5t-91.5 -15.5q-66 0 -117 28t-80 82.5t-29 135.5v68q0 81 29 136t80 82.5t117 27.5q44 0 81 -12h44q40 0 56 15.5t16 47.5
v69zM128 306v-78q0 -86 43 -132.5t114 -46.5q74 0 116 47t42 132v78q0 88 -43 134t-115 46q-71 0 -114 -46t-43 -134z" />
    <glyph glyph-name="Uhorn" unicode="&#x1af;" horiz-adv-x="751" 
d="M718 889h55v-65q0 -28 -7.5 -50t-21.5 -36.5t-34 -21.5t-45 -7h-9v-387q0 -85 -18.5 -148t-54.5 -104.5t-89 -62t-122 -20.5q-92 0 -155 36.5t-94 111t-31 187.5v433h73v-440q0 -90 21.5 -148t67 -86t118.5 -28q76 0 122 29.5t67 87.5t21 145v440h65q40 0 55.5 22.5
t15.5 54.5v57z" />
    <glyph glyph-name="uhorn" unicode="&#x1b0;" horiz-adv-x="619" 
d="M586 683h55v-77q0 -28 -7.5 -50t-21.5 -37t-34 -22.5t-45 -7.5h-22v-489h-70v79q-13 -20 -30 -37q-26 -26 -61 -40.5t-79 -14.5q-66 0 -109 26t-63 75.5t-20 119.5v327h69v-327q0 -57 17 -91.5t47.5 -49t70.5 -14.5q43 0 78.5 20t57.5 57t22 85v320h74q40 0 55.5 23
t15.5 56v69z" />
    <glyph glyph-name="uni01C4" unicode="&#x1c4;" horiz-adv-x="1292" 
d="M173 66h143q51 0 94.5 13t75 43t48.5 79t17 120v106q0 91 -29.5 148.5t-82.5 85.5t-123 28h-143v-623zM100 0v755h216q93 0 162.5 -36.5t108.5 -110.5t39 -188v-92q0 -113 -39 -186t-108.5 -107.5t-162.5 -34.5h-216zM1249 687l-434 -619h434v-68h-515v68l438 619h-438
v68h515v-68zM964 827l-121 133h70l80 -89l79 89h71l-121 -133h-58z" />
    <glyph glyph-name="uni01C5" unicode="&#x1c5;" horiz-adv-x="1187" 
d="M173 66h143q51 0 94.5 13t75 43t48.5 79t17 120v106q0 91 -29.5 148.5t-82.5 85.5t-123 28h-143v-623zM100 0v755h216q93 0 162.5 -36.5t108.5 -110.5t39 -188v-92q0 -113 -39 -186t-108.5 -107.5t-162.5 -34.5h-216zM1141 535v-50l-326 -423h329v-62h-414v53l324 420
h-316v62h403zM912 622l-124 153h65l88 -112l91 112h62l-124 -153h-58z" />
    <glyph glyph-name="uni01C6" unicode="&#x1c6;" horiz-adv-x="1091" 
d="M420 399q-21 38 -58 62t-82 24q-32 0 -59.5 -10.5t-48.5 -32.5t-32.5 -56t-11.5 -82v-73q0 -38 9.5 -71t28 -58t46.5 -39t66 -14q49 0 85.5 25.5t57 64t20.5 79.5v114q-3 35 -21 67zM441 0v90q-11 -19 -26 -36q-26 -30 -62 -48.5t-83 -18.5q-70 0 -117.5 31t-71 87
t-23.5 131v63q0 72 23.5 128t70.5 88t117 32q60 0 104 -26q42 -26 68 -69v303h70v-755h-70zM1046 535v-50l-326 -423h329v-62h-414v53l324 420h-316v62h403zM816 622l-124 153h65l88 -112l91 112h62l-124 -153h-58z" />
    <glyph glyph-name="uni01C7" unicode="&#x1c7;" horiz-adv-x="1002" 
d="M173 755v-689h338v-66h-411v755h73zM834 192v497h-259v66h332v-567q0 -63 -26.5 -108t-75 -69.5t-114.5 -24.5q-35 0 -68.5 8.5t-56.5 19.5v68q24 -14 56.5 -21.5t68.5 -7.5q35 0 68 10t54 39.5t21 89.5z" />
    <glyph glyph-name="uni01C8" unicode="&#x1c8;" horiz-adv-x="767" 
d="M173 755v-689h338v-66h-411v755h73zM684 535v-585q0 -44 -10 -78.5t-30.5 -58t-52 -35.5t-74.5 -12q-17 0 -28 2t-20 5v65q8 -4 21 -6.5t28 -2.5q50 0 73 30.5t23 94.5v581h70zM611 651v99h75v-99h-75z" />
    <glyph glyph-name="uni01C9" unicode="&#x1c9;" horiz-adv-x="520" 
d="M80 133v622h70v-618q0 -45 12 -66t44 -21q16 0 30.5 3t22.5 7v-61q-10 -4 -26.5 -8t-34.5 -4q-45 0 -70.5 16.5t-36.5 49t-11 80.5zM437 535v-585q0 -44 -10 -78.5t-30.5 -58t-52 -35.5t-74.5 -12q-17 0 -28 2t-20 5v65q8 -4 21 -6.5t28 -2.5q50 0 73 30.5t23 94.5v581
h70zM364 651v99h75v-99h-75z" />
    <glyph glyph-name="uni01CA" unicode="&#x1ca;" horiz-adv-x="1214" 
d="M100 0v755h70l395 -628v628h69v-755h-69l-395 631v-631h-70zM1046 192v497h-259v66h332v-567q0 -63 -26.5 -108t-75 -69.5t-114.5 -24.5q-35 0 -68.5 8.5t-56.5 19.5v68q24 -14 56.5 -21.5t68.5 -7.5q35 0 68 10t54 39.5t21 89.5z" />
    <glyph glyph-name="uni01CB" unicode="&#x1cb;" horiz-adv-x="979" 
d="M100 0v755h70l395 -628v628h69v-755h-69l-395 631v-631h-70zM896 535v-585q0 -44 -10 -78.5t-30.5 -58t-52 -35.5t-74.5 -12q-17 0 -28 2t-20 5v65q8 -4 21 -6.5t28 -2.5q50 0 73 30.5t23 94.5v581h70zM823 651v99h75v-99h-75z" />
    <glyph glyph-name="uni01CC" unicode="&#x1cc;" horiz-adv-x="843" 
d="M84 0v535h69v-82q14 22 32 40q27 26 63 40t80 14q67 0 109 -25.5t62 -75t20 -119.5v-327h-70v320q0 58 -17.5 93.5t-48.5 52t-71 16.5q-42 0 -78.5 -18t-58.5 -54.5t-22 -93.5v-316h-69zM760 535v-585q0 -44 -10 -78.5t-30.5 -58t-52 -35.5t-74.5 -12q-17 0 -28 2t-20 5
v65q8 -4 21 -6.5t28 -2.5q50 0 73 30.5t23 94.5v581h70zM687 651v99h75v-99h-75z" />
    <glyph glyph-name="uni01CD" unicode="&#x1cd;" horiz-adv-x="671" 
d="M334 671l-146 -404h288zM13 0l286 762h76l281 -762h-86l-70 201h-336l-73 -201h-78zM309 827l-121 133h70l80 -89l79 89h71l-121 -133h-58z" />
    <glyph glyph-name="uni01CE" unicode="&#x1ce;" horiz-adv-x="538" 
d="M189 234q-34 -8 -53.5 -29t-19.5 -62q0 -48 29 -72t80 -24q37 0 74 13t63 43q22 25 27 66v72h-124q-42 0 -76 -7zM459 0h-70v69q-5 -8 -11 -16q-28 -33 -69 -49.5t-94 -16.5q-54 0 -92 18t-57.5 52t-19.5 82q0 44 14.5 73t39 47t53.5 27t59 12t56 3h121v32q0 28 -4 55
t-18.5 49t-43 35t-77.5 13q-46 0 -89.5 -13t-83.5 -49v70q32 26 74.5 40t106.5 14q57 0 94.5 -12t60 -33t33.5 -48t14 -57t3 -60v-337zM232 622l-124 153h65l88 -112l91 112h62l-124 -153h-58z" />
    <glyph glyph-name="uni01CF" unicode="&#x1cf;" horiz-adv-x="273" 
d="M173 755v-755h-73v755h73zM108 827l-121 133h70l80 -89l79 89h71l-121 -133h-58z" />
    <glyph glyph-name="uni01D0" unicode="&#x1d0;" horiz-adv-x="237" 
d="M84 0v535h69v-535h-69zM90 622l-124 153h65l88 -112l91 112h62l-124 -153h-58z" />
    <glyph glyph-name="uni01D1" unicode="&#x1d1;" horiz-adv-x="715" 
d="M140 427v-113q0 -87 25 -145t73.5 -87t118.5 -29q69 0 118 29t75 87t26 145v113q0 88 -26 149t-75 93t-118 32q-53 0 -93 -18.5t-68 -53.5t-42 -86t-14 -116zM65 321v99q0 114 35 191t101 117t156 40q69 0 123.5 -23t92.5 -67.5t58 -109t20 -148.5v-99q0 -85 -21.5 -148
t-61 -104.5t-93.5 -62t-118 -20.5t-118 20.5t-93 62t-60 104.5t-21 148zM329 827l-121 133h70l80 -89l79 89h71l-121 -133h-58z" />
    <glyph glyph-name="uni01D2" unicode="&#x1d2;" horiz-adv-x="571" 
d="M128 306v-78q0 -86 43 -132.5t114 -46.5q74 0 116 47t42 132v78q0 88 -43 134t-115 46q-71 0 -114 -46t-43 -134zM59 233v68q0 81 29 136t80 82.5t117 27.5t117.5 -27.5t81 -82.5t29.5 -136v-68q0 -61 -16.5 -107t-47.5 -77t-72.5 -46.5t-91.5 -15.5q-66 0 -117 28
t-80 82.5t-29 135.5zM258 622l-124 153h65l88 -112l91 112h62l-124 -153h-58z" />
    <glyph glyph-name="uni01D3" unicode="&#x1d3;" horiz-adv-x="747" 
d="M582 755h74v-433q0 -85 -18.5 -148t-54.5 -104.5t-89 -62t-122 -20.5q-92 0 -155 36.5t-94 111t-31 187.5v433h73v-440q0 -90 21.5 -148t67 -86t118.5 -28q76 0 122 29.5t67 87.5t21 145v440zM345 827l-121 133h70l80 -89l79 89h71l-121 -133h-58z" />
    <glyph glyph-name="uni01D4" unicode="&#x1d4;" horiz-adv-x="594" 
d="M79 535h69v-327q0 -57 17 -91.5t47.5 -49t70.5 -14.5q43 0 78.5 20t57.5 57t22 85v320h70v-535h-70v79q-13 -20 -30 -37q-26 -26 -61 -40.5t-79 -14.5q-66 0 -109 26t-63 75.5t-20 119.5v327zM266 622l-124 153h65l88 -112l91 112h62l-124 -153h-58z" />
    <glyph glyph-name="uni01D5" unicode="&#x1d5;" horiz-adv-x="747" 
d="M582 755h74v-433q0 -85 -18.5 -148t-54.5 -104.5t-89 -62t-122 -20.5q-92 0 -155 36.5t-94 111t-31 187.5v433h73v-440q0 -90 21.5 -148t67 -86t118.5 -28q76 0 122 29.5t67 87.5t21 145v440zM239 826v99h71v-99h-71zM438 826v99h71v-99h-71zM224 993v52h299v-52h-299z
" />
    <glyph glyph-name="uni01D6" unicode="&#x1d6;" horiz-adv-x="594" 
d="M79 535h69v-327q0 -57 17 -91.5t47.5 -49t70.5 -14.5q43 0 78.5 20t57.5 57t22 85v320h70v-535h-70v79q-13 -20 -30 -37q-26 -26 -61 -40.5t-79 -14.5q-66 0 -109 26t-63 75.5t-20 119.5v327zM156 622v99h71v-99h-71zM362 622v99h71v-99h-71zM162 794v52h265v-52h-265z
" />
    <glyph glyph-name="uni01D7" unicode="&#x1d7;" horiz-adv-x="747" 
d="M582 755h74v-433q0 -85 -18.5 -148t-54.5 -104.5t-89 -62t-122 -20.5q-92 0 -155 36.5t-94 111t-31 187.5v433h73v-440q0 -90 21.5 -148t67 -86t118.5 -28q76 0 122 29.5t67 87.5t21 145v440zM239 826v99h71v-99h-71zM438 826v99h71v-99h-71zM344 962l77 133h67l-85 -133
h-59z" />
    <glyph glyph-name="uni01D8" unicode="&#x1d8;" horiz-adv-x="594" 
d="M79 535h69v-327q0 -57 17 -91.5t47.5 -49t70.5 -14.5q43 0 78.5 20t57.5 57t22 85v320h70v-535h-70v79q-13 -20 -30 -37q-26 -26 -61 -40.5t-79 -14.5q-66 0 -109 26t-63 75.5t-20 119.5v327zM156 622v99h71v-99h-71zM362 622v99h71v-99h-71zM265 773l88 153h67l-96 -153
h-59z" />
    <glyph glyph-name="uni01D9" unicode="&#x1d9;" horiz-adv-x="747" 
d="M582 755h74v-433q0 -85 -18.5 -148t-54.5 -104.5t-89 -62t-122 -20.5q-92 0 -155 36.5t-94 111t-31 187.5v433h73v-440q0 -90 21.5 -148t67 -86t118.5 -28q76 0 122 29.5t67 87.5t21 145v440zM239 826v99h71v-99h-71zM438 826v99h71v-99h-71zM345 962l-121 133h70l80 -89
l79 89h71l-121 -133h-58z" />
    <glyph glyph-name="uni01DA" unicode="&#x1da;" horiz-adv-x="594" 
d="M79 535h69v-327q0 -57 17 -91.5t47.5 -49t70.5 -14.5q43 0 78.5 20t57.5 57t22 85v320h70v-535h-70v79q-13 -20 -30 -37q-26 -26 -61 -40.5t-79 -14.5q-66 0 -109 26t-63 75.5t-20 119.5v327zM156 622v99h71v-99h-71zM362 622v99h71v-99h-71zM266 773l-124 153h65
l88 -112l91 112h62l-124 -153h-58z" />
    <glyph glyph-name="uni01DB" unicode="&#x1db;" horiz-adv-x="747" 
d="M582 755h74v-433q0 -85 -18.5 -148t-54.5 -104.5t-89 -62t-122 -20.5q-92 0 -155 36.5t-94 111t-31 187.5v433h73v-440q0 -90 21.5 -148t67 -86t118.5 -28q76 0 122 29.5t67 87.5t21 145v440zM239 826v99h71v-99h-71zM438 826v99h71v-99h-71zM344 962l-85 133h67l77 -133
h-59z" />
    <glyph glyph-name="uni01DC" unicode="&#x1dc;" horiz-adv-x="594" 
d="M79 535h69v-327q0 -57 17 -91.5t47.5 -49t70.5 -14.5q43 0 78.5 20t57.5 57t22 85v320h70v-535h-70v79q-13 -20 -30 -37q-26 -26 -61 -40.5t-79 -14.5q-66 0 -109 26t-63 75.5t-20 119.5v327zM156 622v99h71v-99h-71zM362 622v99h71v-99h-71zM265 773l-96 153h67l88 -153
h-59z" />
    <glyph glyph-name="uni01DD" unicode="&#x1dd;" horiz-adv-x="551" 
d="M141 128q16 -39 48.5 -59t83.5 -20q32 0 59 10.5t47.5 32t32 56t11.5 82.5v8h-298v-16q0 -56 16 -94zM55 298h368v8q0 39 -10 71.5t-31.5 57t-54.5 38.5t-78 14t-88 -7.5t-93 -39.5v62q44 27 88.5 37t99.5 10q74 0 127 -29.5t81.5 -85t28.5 -133.5v-66q0 -57 -15.5 -103
t-44 -78t-69 -49.5t-91.5 -17.5q-65 0 -114 26.5t-76.5 79t-27.5 132.5v73z" />
    <glyph glyph-name="uni01E2" unicode="&#x1e2;" horiz-adv-x="935" 
d="M871 755v-66h-366v-271h337v-64h-337v-288h375v-66h-448v236h-240l-115 -236h-79l379 755h494zM414 689l-189 -387h207v387h-18zM475 858v52h299v-52h-299z" />
    <glyph glyph-name="uni01E3" unicode="&#x1e3;" horiz-adv-x="882" 
d="M827 240h-368v-11q0 -39 10.5 -71.5t32 -57t54 -38.5t77.5 -14q46 0 88.5 8.5t93.5 39.5v-63q-44 -26 -89 -36.5t-99 -10.5q-75 0 -128 29.5t-81 85.5l-2 4q-6 -12 -13 -24q-19 -29 -46 -50.5t-60.5 -33t-71.5 -11.5q-58 0 -98 18.5t-60.5 52.5t-20.5 81q0 86 55.5 124.5
t166.5 38.5h121v32q0 48 -11.5 82t-43 52.5t-90.5 18.5q-50 0 -90.5 -13.5t-80.5 -48.5v69q21 17 45.5 29.5t57.5 19t79 6.5q53 0 90 -13.5t60 -40.5q14 -17 24 -39q9 14 20 26q28 32 69 49.5t91 17.5q66 0 115 -26t76 -79t27 -133v-70zM757 300v13q0 56 -16 94.5
t-48.5 58.5t-83.5 20q-32 0 -59 -10.5t-47.5 -32t-32 -56t-11.5 -82.5v-5h298zM149 218q-33 -23 -33 -77q0 -46 29.5 -70.5t81.5 -24.5q41 0 77.5 17.5t60.5 52.5q22 32 26 79q-2 19 -2 39v7h-124q-83 0 -116 -23zM304 658v52h265v-52h-265z" />
    <glyph glyph-name="uni01E4" unicode="&#x1e4;" horiz-adv-x="675" 
d="M65 328v92q0 85 23.5 150t66 109t101 66t128.5 22q48 0 87 -7t68 -18.5t49 -24.5v-75q-34 26 -87 42.5t-117 16.5q-51 0 -96 -17t-78 -50.5t-52 -85t-19 -121.5v-106q0 -91 30 -150t85 -88.5t129 -29.5q30 0 59.5 3t56.5 9q17 4 22 5h-1v0l11 4v105h-98v57h98v103h-202
v69h276v-172h81v-57h-81v-143q-40 -20 -95 -35t-127 -15q-70 0 -128.5 21.5t-101 64.5t-65.5 107t-23 149z" />
    <glyph glyph-name="uni01E5" unicode="&#x1e5;" 
d="M269 -234q-32 0 -63 4.5t-59.5 12t-53.5 17.5v66q46 -20 93 -28.5t84 -8.5q65 0 102.5 21.5t53.5 61t16 93.5v86q-12 -19 -26 -36q-26 -31 -62 -49.5t-84 -18.5q-70 0 -117.5 31t-71 87t-23.5 131v63q0 72 23.5 128t70.5 88t116 32q61 0 105 -26q42 -26 69 -69v83h69
v-238h73v-56h-73v-240q0 -70 -26.5 -123t-80 -82.5t-135.5 -29.5zM331 297h111v35q-4 35 -22 67q-21 38 -58 62t-83 24q-31 0 -58.5 -10.5t-48.5 -32.5t-32.5 -56t-11.5 -82v-73q0 -38 9.5 -71t28 -58t46.5 -39t66 -14q48 0 84.5 25.5t58 64t21.5 79.5v23h-111v56z" />
    <glyph glyph-name="Gcaron" unicode="&#x1e6;" horiz-adv-x="675" 
d="M65 328v92q0 85 23.5 150t66 109t101 66t128.5 22q48 0 87 -7t68 -18.5t49 -24.5v-75q-34 26 -87 42.5t-117 16.5q-51 0 -96 -17t-78 -50.5t-52 -85t-19 -121.5v-106q0 -91 30 -150t85 -88.5t129 -29.5q30 0 59.5 3t56.5 9q17 4 22 5h-1v0l11 4v265h-202v69h276v-372
q-40 -20 -95 -35t-127 -15q-70 0 -128.5 21.5t-101 64.5t-65.5 107t-23 149zM345 827l-121 133h70l80 -89l79 89h71l-121 -133h-58z" />
    <glyph glyph-name="gcaron" unicode="&#x1e7;" 
d="M420 399q-21 38 -58 62t-83 24q-31 0 -58.5 -10.5t-48.5 -32.5t-32.5 -56t-11.5 -82v-73q0 -38 9.5 -71t28 -58t46.5 -39t66 -14q48 0 84.5 25.5t58 64t21.5 79.5v114q-4 35 -22 67zM270 -13q-70 0 -117.5 31t-71 87t-23.5 131v63q0 72 23.5 128t70.5 88t116 32
q61 0 105 -26q42 -26 69 -69v83h69v-534q0 -70 -26.5 -123t-80 -82.5t-135.5 -29.5q-32 0 -63 4.5t-59.5 12t-53.5 17.5v66q46 -20 93 -28.5t84 -8.5q65 0 102.5 21.5t53.5 61t16 93.5v86q-12 -19 -26 -36q-26 -31 -62 -49.5t-84 -18.5zM267 622l-124 153h65l88 -112l91 112
h62l-124 -153h-58z" />
    <glyph glyph-name="uni01E8" unicode="&#x1e8;" horiz-adv-x="643" 
d="M541 0l-237 354h-131v-354h-73v755h73v-336h132l228 336h84l-253 -364l265 -391h-88zM318 827l-121 133h70l80 -89l79 89h71l-121 -133h-58z" />
    <glyph glyph-name="uni01E9" unicode="&#x1e9;" horiz-adv-x="511" 
d="M84 0v755h69v-441h94l156 221h79l-182 -246l200 -289h-81l-175 255l-91 1v-256h-69zM90 827l-121 133h70l80 -89l79 89h71l-121 -133h-58z" />
    <glyph glyph-name="uni01EA" unicode="&#x1ea;" horiz-adv-x="715" 
d="M140 427v-113q0 -87 25 -145t73.5 -87t118.5 -29q69 0 118 29t75 87t26 145v113q0 88 -26 149t-75 93t-118 32q-53 0 -93 -18.5t-68 -53.5t-42 -86t-14 -116zM65 321v99q0 114 35 191t101 117t156 40q69 0 123.5 -23t92.5 -67.5t58 -109t20 -148.5v-99q0 -85 -21.5 -148
t-61 -104.5t-93.5 -62t-118 -20.5t-118 20.5t-93 62t-60 104.5t-21 148zM418 -228q-60 0 -95 32t-35 84q0 41 19 68t48 46.5t57 31.5l22 -34q-21 -9 -39.5 -23t-30 -32.5t-11.5 -43.5q0 -31 20 -50.5t56 -19.5q9 0 17 1l16 2v-57q-11 -2 -22 -3.5t-22 -1.5z" />
    <glyph glyph-name="uni01EB" unicode="&#x1eb;" horiz-adv-x="571" 
d="M128 306v-78q0 -86 43 -132.5t114 -46.5q74 0 116 47t42 132v78q0 88 -43 134t-115 46q-71 0 -114 -46t-43 -134zM59 233v68q0 81 29 136t80 82.5t117 27.5t117.5 -27.5t81 -82.5t29.5 -136v-68q0 -61 -16.5 -107t-47.5 -77t-72.5 -46.5t-91.5 -15.5q-66 0 -117 28
t-80 82.5t-29 135.5zM339 -228q-60 0 -95 32t-35 84q0 41 19 68t48 46.5t57 31.5l22 -34q-21 -9 -39.5 -23t-30 -32.5t-11.5 -43.5q0 -31 20 -50.5t56 -19.5q9 0 17 1l16 2v-57q-11 -2 -22 -3.5t-22 -1.5z" />
    <glyph glyph-name="uni01EC" unicode="&#x1ec;" horiz-adv-x="715" 
d="M140 427v-113q0 -87 25 -145t73.5 -87t118.5 -29q69 0 118 29t75 87t26 145v113q0 88 -26 149t-75 93t-118 32q-53 0 -93 -18.5t-68 -53.5t-42 -86t-14 -116zM65 321v99q0 114 35 191t101 117t156 40q69 0 123.5 -23t92.5 -67.5t58 -109t20 -148.5v-99q0 -85 -21.5 -148
t-61 -104.5t-93.5 -62t-118 -20.5t-118 20.5t-93 62t-60 104.5t-21 148zM418 -228q-60 0 -95 32t-35 84q0 41 19 68t48 46.5t57 31.5l22 -34q-21 -9 -39.5 -23t-30 -32.5t-11.5 -43.5q0 -31 20 -50.5t56 -19.5q9 0 17 1l16 2v-57q-11 -2 -22 -3.5t-22 -1.5zM208 858v52h299
v-52h-299z" />
    <glyph glyph-name="uni01ED" unicode="&#x1ed;" horiz-adv-x="571" 
d="M128 306v-78q0 -86 43 -132.5t114 -46.5q74 0 116 47t42 132v78q0 88 -43 134t-115 46q-71 0 -114 -46t-43 -134zM59 233v68q0 81 29 136t80 82.5t117 27.5t117.5 -27.5t81 -82.5t29.5 -136v-68q0 -61 -16.5 -107t-47.5 -77t-72.5 -46.5t-91.5 -15.5q-66 0 -117 28
t-80 82.5t-29 135.5zM339 -228q-60 0 -95 32t-35 84q0 41 19 68t48 46.5t57 31.5l22 -34q-21 -9 -39.5 -23t-30 -32.5t-11.5 -43.5q0 -31 20 -50.5t56 -19.5q9 0 17 1l16 2v-57q-11 -2 -22 -3.5t-22 -1.5zM153 658v52h265v-52h-265z" />
    <glyph glyph-name="uni01EE" unicode="&#x1ee;" horiz-adv-x="589" 
d="M52 687v68h476v-68l-289 -269h11q97 0 159.5 -25t92.5 -72.5t30 -113.5q0 -43 -15 -83t-47.5 -71t-85.5 -49t-131 -18q-41 0 -79.5 9t-70.5 22.5t-55 26.5v76q25 -17 58.5 -32.5t71 -25t76.5 -9.5q62 0 107 16t70 49.5t25 84.5t-23 84.5t-72 50.5t-130 17h-82v61l285 271
h-382zM261 827l-120 133h70l79 -89l80 89h71l-122 -133h-58z" />
    <glyph glyph-name="uni01EF" unicode="&#x1ef;" horiz-adv-x="480" 
d="M317 168q60 -23 91.5 -70.5t31.5 -118.5q0 -60 -30 -108t-83 -76t-126 -28q-29 0 -60.5 5t-61 14.5t-51.5 21.5v67q28 -16 55 -25.5t56.5 -14.5t63.5 -5q44 0 81.5 16.5t60.5 50t23 84.5q0 74 -50.5 112t-148.5 38h-70v60l245 282h-312v62h402v-51l-255 -292
q80 -1 138 -24zM204 622l-124 153h65l88 -112l91 112h62l-124 -153h-58z" />
    <glyph glyph-name="uni01F1" unicode="&#x1f1;" horiz-adv-x="1292" 
d="M173 66h143q51 0 94.5 13t75 43t48.5 79t17 120v106q0 91 -29.5 148.5t-82.5 85.5t-123 28h-143v-623zM100 0v755h216q93 0 162.5 -36.5t108.5 -110.5t39 -188v-92q0 -113 -39 -186t-108.5 -107.5t-162.5 -34.5h-216zM1249 687l-434 -619h434v-68h-515v68l438 619h-438
v68h515v-68z" />
    <glyph glyph-name="uni01F2" unicode="&#x1f2;" horiz-adv-x="1187" 
d="M173 66h143q51 0 94.5 13t75 43t48.5 79t17 120v106q0 91 -29.5 148.5t-82.5 85.5t-123 28h-143v-623zM100 0v755h216q93 0 162.5 -36.5t108.5 -110.5t39 -188v-92q0 -113 -39 -186t-108.5 -107.5t-162.5 -34.5h-216zM1141 535v-50l-326 -423h329v-62h-414v53l324 420
h-316v62h403z" />
    <glyph glyph-name="uni01F3" unicode="&#x1f3;" horiz-adv-x="1091" 
d="M420 399q-21 38 -58 62t-82 24q-32 0 -59.5 -10.5t-48.5 -32.5t-32.5 -56t-11.5 -82v-73q0 -38 9.5 -71t28 -58t46.5 -39t66 -14q49 0 85.5 25.5t57 64t20.5 79.5v114q-3 35 -21 67zM441 0v90q-11 -19 -26 -36q-26 -30 -62 -48.5t-83 -18.5q-70 0 -117.5 31t-71 87
t-23.5 131v63q0 72 23.5 128t70.5 88t117 32q60 0 104 -26q42 -26 68 -69v303h70v-755h-70zM1046 535v-50l-326 -423h329v-62h-414v53l324 420h-316v62h403z" />
    <glyph glyph-name="uni01F4" unicode="&#x1f4;" horiz-adv-x="675" 
d="M65 328v92q0 85 23.5 150t66 109t101 66t128.5 22q48 0 87 -7t68 -18.5t49 -24.5v-75q-34 26 -87 42.5t-117 16.5q-51 0 -96 -17t-78 -50.5t-52 -85t-19 -121.5v-106q0 -91 30 -150t85 -88.5t129 -29.5q30 0 59.5 3t56.5 9q17 4 22 5h-1v0l11 4v265h-202v69h276v-372
q-40 -20 -95 -35t-127 -15q-70 0 -128.5 21.5t-101 64.5t-65.5 107t-23 149zM344 827l77 133h67l-85 -133h-59z" />
    <glyph glyph-name="uni01F5" unicode="&#x1f5;" 
d="M420 399q-21 38 -58 62t-83 24q-31 0 -58.5 -10.5t-48.5 -32.5t-32.5 -56t-11.5 -82v-73q0 -38 9.5 -71t28 -58t46.5 -39t66 -14q48 0 84.5 25.5t58 64t21.5 79.5v114q-4 35 -22 67zM270 -13q-70 0 -117.5 31t-71 87t-23.5 131v63q0 72 23.5 128t70.5 88t116 32
q61 0 105 -26q42 -26 69 -69v83h69v-534q0 -70 -26.5 -123t-80 -82.5t-135.5 -29.5q-32 0 -63 4.5t-59.5 12t-53.5 17.5v66q46 -20 93 -28.5t84 -8.5q65 0 102.5 21.5t53.5 61t16 93.5v86q-12 -19 -26 -36q-26 -31 -62 -49.5t-84 -18.5zM266 622l88 153h67l-96 -153h-59z
" />
    <glyph glyph-name="uni01F8" unicode="&#x1f8;" horiz-adv-x="734" 
d="M100 0v755h70l395 -628v628h69v-755h-69l-395 631v-631h-70zM348 827l-85 133h67l77 -133h-59z" />
    <glyph glyph-name="uni01F9" unicode="&#x1f9;" horiz-adv-x="598" 
d="M84 0v535h69v-82q14 22 32 40q27 26 63 40t80 14q67 0 109 -25.5t62 -75t20 -119.5v-327h-70v320q0 58 -17.5 93.5t-48.5 52t-71 16.5q-42 0 -78.5 -18t-58.5 -54.5t-22 -93.5v-316h-69zM272 622l-96 153h67l88 -153h-59z" />
    <glyph glyph-name="AEacute" unicode="&#x1fc;" horiz-adv-x="935" 
d="M871 755v-66h-366v-271h337v-64h-337v-288h375v-66h-448v236h-240l-115 -236h-79l379 755h494zM414 689l-189 -387h207v387h-18zM595 827l77 133h67l-85 -133h-59z" />
    <glyph glyph-name="aeacute" unicode="&#x1fd;" horiz-adv-x="882" 
d="M827 240h-368v-11q0 -39 10.5 -71.5t32 -57t54 -38.5t77.5 -14q46 0 88.5 8.5t93.5 39.5v-63q-44 -26 -89 -36.5t-99 -10.5q-75 0 -128 29.5t-81 85.5l-2 4q-6 -12 -13 -24q-19 -29 -46 -50.5t-60.5 -33t-71.5 -11.5q-58 0 -98 18.5t-60.5 52.5t-20.5 81q0 86 55.5 124.5
t166.5 38.5h121v32q0 48 -11.5 82t-43 52.5t-90.5 18.5q-50 0 -90.5 -13.5t-80.5 -48.5v69q21 17 45.5 29.5t57.5 19t79 6.5q53 0 90 -13.5t60 -40.5q14 -17 24 -39q9 14 20 26q28 32 69 49.5t91 17.5q66 0 115 -26t76 -79t27 -133v-70zM757 300v13q0 56 -16 94.5
t-48.5 58.5t-83.5 20q-32 0 -59 -10.5t-47.5 -32t-32 -56t-11.5 -82.5v-5h298zM149 218q-33 -23 -33 -77q0 -46 29.5 -70.5t81.5 -24.5q41 0 77.5 17.5t60.5 52.5q22 32 26 79q-2 19 -2 39v7h-124q-83 0 -116 -23zM407 622l88 153h67l-96 -153h-59z" />
    <glyph glyph-name="Oslashacute" unicode="&#x1fe;" horiz-adv-x="718" 
d="M142 427v-113q0 -87 25 -145q4 -9 8 -17l332 493q-14 14 -30 24q-49 32 -118 32q-53 0 -93 -18.5t-68 -53.5t-42 -86t-14 -116zM241 82q48 -29 118 -29q69 0 118 29t75 87t26 145v113q0 88 -26 149q-5 11 -11 22l-331 -493q14 -13 31 -23zM51 -34l81 121q-28 36 -44 86
q-22 63 -22 148v99q0 114 35.5 191t101.5 117t156 40q69 0 124 -23q36 -16 65 -40l52 78h66l-80 -119q30 -41 47 -96q20 -64 20 -148v-99q0 -85 -21.5 -148t-61 -104.5t-93.5 -62t-118 -20.5t-118 21q-39 14 -70 40l-54 -81h-66zM329 827l77 133h67l-85 -133h-59z" />
    <glyph glyph-name="oslashacute" unicode="&#x1ff;" horiz-adv-x="572" 
d="M128 306v-78q0 -65 24 -107l233 333q-40 32 -100 32q-71 0 -114 -46t-43 -134zM285 49q74 0 116 47t42 132v78q0 68 -25 110l-234 -333q40 -34 101 -34zM526 570l-68 -96q14 -16 26 -37q29 -55 29 -136v-68q0 -61 -16.5 -107t-47.5 -77t-72.5 -46.5t-91.5 -15.5
q-66 0 -117 28q-11 6 -22 14l-44 -63h-59l68 96q-13 16 -23 35q-29 55 -29 136v68q0 81 29 136t80 82.5t117 27.5t118 -28q10 -5 19 -12l45 63h59zM257 622l88 153h67l-96 -153h-59z" />
    <glyph glyph-name="uni0200" unicode="&#x200;" horiz-adv-x="671" 
d="M334 671l-146 -404h288zM13 0l286 762h76l281 -762h-86l-70 201h-336l-73 -201h-78zM439.006 827l-76.9902 133h-66.9922l84.9902 -133h58.9922zM291.024 827l-76.9912 133h-66.9912l83.9893 -133h59.9932z" />
    <glyph glyph-name="uni0201" unicode="&#x201;" horiz-adv-x="536" 
d="M188 234q-34 -8 -53.5 -29t-19.5 -62q0 -48 29 -72t80 -24q37 0 74 13t63 43q22 25 27 66v72h-124q-42 0 -76 -7zM458 0h-70v69q-5 -8 -11 -16q-28 -33 -69 -49.5t-94 -16.5q-54 0 -92 18t-57.5 52t-19.5 82q0 44 14.5 73t39 47t53.5 27t59 12t56 3h121v32q0 28 -4 55
t-18.5 49t-43 35t-77.5 13q-46 0 -89.5 -13t-83.5 -49v70q32 26 74.5 40t106.5 14q57 0 94.5 -12t60 -33t33.5 -48t14 -57t3 -60v-337zM212.025 622l-94.9893 153h-66.9912l102.987 -153h58.9932zM366.006 622l-87.9893 153h-66.9912l95.9883 -153h58.9922z" />
    <glyph glyph-name="uni0202" unicode="&#x202;" horiz-adv-x="671" 
d="M334 671l-146 -404h288zM13 0l286 762h76l281 -762h-86l-70 201h-336l-73 -201h-78zM262.031 830.116h-56.9932q0 38.9951 14.499 66.4922q14.498 27.4971 43.9941 41.9951t74.4912 14.498q46.9941 0 76.4902 -14.998q29.4971 -14.998 42.4951 -42.9951
q12.998 -27.9961 12.998 -64.9922h-54.9932q0 43.9951 -20.9971 58.9932q-20.998 14.998 -55.9932 14.998q-35.9961 0 -55.9932 -15.998q-19.998 -15.998 -19.998 -57.9932z" />
    <glyph glyph-name="uni0203" unicode="&#x203;" horiz-adv-x="538" 
d="M189 234q-34 -8 -53.5 -29t-19.5 -62q0 -48 29 -72t80 -24q37 0 74 13t63 43q22 25 27 66v72h-124q-42 0 -76 -7zM459 0h-70v69q-5 -8 -11 -16q-28 -33 -69 -49.5t-94 -16.5q-54 0 -92 18t-57.5 52t-19.5 82q0 44 14.5 73t39 47t53.5 27t59 12t56 3h121v32q0 28 -4 55
t-18.5 49t-43 35t-77.5 13q-46 0 -89.5 -13t-83.5 -49v70q32 26 74.5 40t106.5 14q57 0 94.5 -12t60 -33t33.5 -48t14 -57t3 -60v-337zM186.03 645.092h-56.9932q0 36.9961 13.498 65.4922q13.498 28.4971 41.4951 44.9951q27.9971 16.4971 70.9912 16.4971
q44.9941 0 72.9912 -16.9971q27.9971 -16.998 40.9951 -45.9951q12.998 -28.9961 12.998 -63.9922h-54.9932q0 39.9951 -19.9971 58.9932q-19.998 18.998 -51.9941 18.998t-50.4941 -19.998q-18.4971 -19.9971 -18.4971 -57.9932z" />
    <glyph glyph-name="uni0204" unicode="&#x204;" horiz-adv-x="603" 
d="M539 755v-66h-366v-271h337v-64h-337v-288h375v-66h-448v755h439zM422.006 827l-76.9902 133h-66.9922l84.9902 -133h58.9922zM274.024 827l-76.9912 133h-66.9912l83.9893 -133h59.9932z" />
    <glyph glyph-name="uni0205" unicode="&#x205;" horiz-adv-x="552" 
d="M426 297v16q0 56 -15.5 94.5t-48.5 58t-83 19.5q-32 0 -59.5 -10t-48 -31.5t-32 -56t-11.5 -82.5v-8h298zM496 237h-368v-8q0 -39 10.5 -71.5t32 -57t54.5 -38t78 -13.5t87.5 8t93.5 39v-63q-44 -26 -88.5 -36t-99.5 -10q-74 0 -127.5 29.5t-81.5 84.5t-28 133v66
q0 57 15 103t44 78t69.5 49t90.5 17q66 0 115.5 -25.5t76 -78.5t26.5 -133v-73zM230.025 622l-94.9893 153h-66.9912l102.987 -153h58.9932zM384.006 622l-87.9893 153h-66.9912l95.9883 -153h58.9922z" />
    <glyph glyph-name="uni0206" unicode="&#x206;" horiz-adv-x="603" 
d="M539 755v-66h-366v-271h337v-64h-337v-288h375v-66h-448v755h439zM244.031 830.116h-56.9932q0 38.9951 14.499 66.4922q14.498 27.4971 43.9941 41.9951t74.4912 14.498q46.9941 0 76.4902 -14.998q29.4971 -14.998 42.4951 -42.9951q12.998 -27.9961 12.998 -64.9922
h-54.9932q0 43.9951 -20.9971 58.9932q-20.998 14.998 -55.9932 14.998q-35.9961 0 -55.9932 -15.998q-19.998 -15.998 -19.998 -57.9932z" />
    <glyph glyph-name="uni0207" unicode="&#x207;" horiz-adv-x="552" 
d="M426 297v16q0 56 -15.5 94.5t-48.5 58t-83 19.5q-32 0 -59.5 -10t-48 -31.5t-32 -56t-11.5 -82.5v-8h298zM496 237h-368v-8q0 -39 10.5 -71.5t32 -57t54.5 -38t78 -13.5t87.5 8t93.5 39v-63q-44 -26 -88.5 -36t-99.5 -10q-74 0 -127.5 29.5t-81.5 84.5t-28 133v66
q0 57 15 103t44 78t69.5 49t90.5 17q66 0 115.5 -25.5t76 -78.5t26.5 -133v-73zM203.03 645.092h-56.9932q0 36.9961 13.498 65.4922q13.498 28.4971 41.4951 44.9951q27.9971 16.4971 70.9912 16.4971q44.9941 0 72.9912 -16.9971q27.9971 -16.998 40.9951 -45.9951
q12.998 -28.9961 12.998 -63.9922h-54.9932q0 39.9951 -19.9971 58.9932q-19.998 18.998 -51.9941 18.998t-50.4941 -19.998q-18.4971 -19.9971 -18.4971 -57.9932z" />
    <glyph glyph-name="uni0208" unicode="&#x208;" horiz-adv-x="269" 
d="M171 755v-755h-73v755h73zM236.006 827l-76.9902 133h-66.9922l84.9902 -133h58.9922zM88.0244 827l-76.9912 133h-66.9912l83.9893 -133h59.9932z" />
    <glyph glyph-name="uni0209" unicode="&#x209;" horiz-adv-x="232" 
d="M81 0v535h69v-535h-69zM68.0254 622l-94.9893 153h-66.9912l102.987 -153h58.9932zM222.006 622l-87.9893 153h-66.9912l95.9883 -153h58.9922z" />
    <glyph glyph-name="uni020A" unicode="&#x20a;" horiz-adv-x="299" 
d="M186 755v-755h-73v755h73zM74.0312 830.116h-56.9932q0 38.9951 14.499 66.4922q14.498 27.4971 43.9941 41.9951t74.4912 14.498q46.9941 0 76.4902 -14.998q29.4971 -14.998 42.4951 -42.9951q12.998 -27.9961 12.998 -64.9922h-54.9932q0 43.9951 -20.9971 58.9932
q-20.998 14.998 -55.9932 14.998q-35.9961 0 -55.9932 -15.998q-19.998 -15.998 -19.998 -57.9932z" />
    <glyph glyph-name="uni020B" unicode="&#x20b;" horiz-adv-x="248" 
d="M89 0v535h69v-535h-69zM50.0303 645.092h-56.9932q0 36.9961 13.498 65.4922q13.498 28.4971 41.4951 44.9951q27.9971 16.4971 70.9912 16.4971q44.9941 0 72.9912 -16.9971q27.9971 -16.998 40.9951 -45.9951q12.998 -28.9961 12.998 -63.9922h-54.9932
q0 39.9951 -19.9971 58.9932q-19.998 18.998 -51.9941 18.998t-50.4941 -19.998q-18.4971 -19.9971 -18.4971 -57.9932z" />
    <glyph glyph-name="uni020C" unicode="&#x20c;" horiz-adv-x="715" 
d="M140 427v-113q0 -87 25 -145t73.5 -87t118.5 -29q69 0 118 29t75 87t26 145v113q0 88 -26 149t-75 93t-118 32q-53 0 -93 -18.5t-68 -53.5t-42 -86t-14 -116zM65 321v99q0 114 35 191t101 117t156 40q69 0 123.5 -23t92.5 -67.5t58 -109t20 -148.5v-99q0 -85 -21.5 -148
t-61 -104.5t-93.5 -62t-118 -20.5t-118 20.5t-93 62t-60 104.5t-21 148zM459.006 827l-76.9902 133h-66.9922l84.9902 -133h58.9922zM311.024 827l-76.9912 133h-66.9912l83.9893 -133h59.9932z" />
    <glyph glyph-name="uni020D" unicode="&#x20d;" horiz-adv-x="571" 
d="M128 306v-78q0 -86 43 -132.5t114 -46.5q74 0 116 47t42 132v78q0 88 -43 134t-115 46q-71 0 -114 -46t-43 -134zM59 233v68q0 81 29 136t80 82.5t117 27.5t117.5 -27.5t81 -82.5t29.5 -136v-68q0 -61 -16.5 -107t-47.5 -77t-72.5 -46.5t-91.5 -15.5q-66 0 -117 28
t-80 82.5t-29 135.5zM238.025 622l-94.9893 153h-66.9912l102.987 -153h58.9932zM392.006 622l-87.9893 153h-66.9912l95.9883 -153h58.9922z" />
    <glyph glyph-name="uni020E" unicode="&#x20e;" horiz-adv-x="715" 
d="M140 427v-113q0 -87 25 -145t73.5 -87t118.5 -29q69 0 118 29t75 87t26 145v113q0 88 -26 149t-75 93t-118 32q-53 0 -93 -18.5t-68 -53.5t-42 -86t-14 -116zM65 321v99q0 114 35 191t101 117t156 40q69 0 123.5 -23t92.5 -67.5t58 -109t20 -148.5v-99q0 -85 -21.5 -148
t-61 -104.5t-93.5 -62t-118 -20.5t-118 20.5t-93 62t-60 104.5t-21 148zM282.031 830.116h-56.9932q0 38.9951 14.499 66.4922q14.498 27.4971 43.9941 41.9951t74.4912 14.498q46.9941 0 76.4902 -14.998q29.4971 -14.998 42.4951 -42.9951
q12.998 -27.9961 12.998 -64.9922h-54.9932q0 43.9951 -20.9971 58.9932q-20.998 14.998 -55.9932 14.998q-35.9961 0 -55.9932 -15.998q-19.998 -15.998 -19.998 -57.9932z" />
    <glyph glyph-name="uni020F" unicode="&#x20f;" horiz-adv-x="571" 
d="M128 306v-78q0 -86 43 -132.5t114 -46.5q74 0 116 47t42 132v78q0 88 -43 134t-115 46q-71 0 -114 -46t-43 -134zM59 233v68q0 81 29 136t80 82.5t117 27.5t117.5 -27.5t81 -82.5t29.5 -136v-68q0 -61 -16.5 -107t-47.5 -77t-72.5 -46.5t-91.5 -15.5q-66 0 -117 28
t-80 82.5t-29 135.5zM212.03 645.092h-56.9932q0 36.9961 13.498 65.4922q13.498 28.4971 41.4951 44.9951q27.9971 16.4971 70.9912 16.4971q44.9941 0 72.9912 -16.9971q27.9971 -16.998 40.9951 -45.9951q12.998 -28.9961 12.998 -63.9922h-54.9932
q0 39.9951 -19.9971 58.9932q-19.998 18.998 -51.9941 18.998t-50.4941 -19.998q-18.4971 -19.9971 -18.4971 -57.9932z" />
    <glyph glyph-name="uni0214" unicode="&#x214;" horiz-adv-x="747" 
d="M582 755h74v-433q0 -85 -18.5 -148t-54.5 -104.5t-89 -62t-122 -20.5q-92 0 -155 36.5t-94 111t-31 187.5v433h73v-440q0 -90 21.5 -148t67 -86t118.5 -28q76 0 122 29.5t67 87.5t21 145v440zM475.006 827l-76.9902 133h-66.9922l84.9902 -133h58.9922zM327.024 827
l-76.9912 133h-66.9912l83.9893 -133h59.9932z" />
    <glyph glyph-name="uni0215" unicode="&#x215;" horiz-adv-x="594" 
d="M79 535h69v-327q0 -57 17 -91.5t47.5 -49t70.5 -14.5q43 0 78.5 20t57.5 57t22 85v320h70v-535h-70v79q-13 -20 -30 -37q-26 -26 -61 -40.5t-79 -14.5q-66 0 -109 26t-63 75.5t-20 119.5v327zM247.025 622l-94.9893 153h-66.9912l102.987 -153h58.9932zM401.006 622
l-87.9893 153h-66.9912l95.9883 -153h58.9922z" />
    <glyph glyph-name="uni0216" unicode="&#x216;" horiz-adv-x="747" 
d="M582 755h74v-433q0 -85 -18.5 -148t-54.5 -104.5t-89 -62t-122 -20.5q-92 0 -155 36.5t-94 111t-31 187.5v433h73v-440q0 -90 21.5 -148t67 -86t118.5 -28q76 0 122 29.5t67 87.5t21 145v440zM298.031 830.116h-56.9932q0 38.9951 14.499 66.4922
q14.498 27.4971 43.9941 41.9951t74.4912 14.498q46.9941 0 76.4902 -14.998q29.4971 -14.998 42.4951 -42.9951q12.998 -27.9961 12.998 -64.9922h-54.9932q0 43.9951 -20.9971 58.9932q-20.998 14.998 -55.9932 14.998q-35.9961 0 -55.9932 -15.998
q-19.998 -15.998 -19.998 -57.9932z" />
    <glyph glyph-name="uni0217" unicode="&#x217;" horiz-adv-x="594" 
d="M79 535h69v-327q0 -57 17 -91.5t47.5 -49t70.5 -14.5q43 0 78.5 20t57.5 57t22 85v320h70v-535h-70v79q-13 -20 -30 -37q-26 -26 -61 -40.5t-79 -14.5q-66 0 -109 26t-63 75.5t-20 119.5v327zM220.03 645.092h-56.9932q0 36.9961 13.498 65.4922
q13.498 28.4971 41.4951 44.9951q27.9971 16.4971 70.9912 16.4971q44.9941 0 72.9912 -16.9971q27.9971 -16.998 40.9951 -45.9951q12.998 -28.9961 12.998 -63.9922h-54.9932q0 39.9951 -19.9971 58.9932q-19.998 18.998 -51.9941 18.998t-50.4941 -19.998
q-18.4971 -19.9971 -18.4971 -57.9932z" />
    <glyph glyph-name="uni0218" unicode="&#x218;" horiz-adv-x="604" 
d="M63 44v76q53 -32 108 -49.5t117 -17.5t104.5 19.5t64 54.5t21.5 80q0 46 -16.5 74.5t-53.5 44.5t-98 23l-50 6q-60 7 -105 31t-70 65t-25 102q0 50 19 89.5t53 67t80 42t100 14.5q46 0 83 -7t68 -19t58 -31v-76q-49 34 -99 51.5t-108 17.5q-46 0 -80 -11t-56 -31
t-33 -47.5t-11 -60.5q0 -44 16 -70.5t50.5 -41t91.5 -21.5l50 -6q63 -7 110 -28.5t74 -63t27 -109.5q0 -54 -19.5 -95.5t-56 -70t-86 -43t-109.5 -14.5q-61 0 -112.5 13t-106.5 42zM299 -244h-52l9 151h64z" />
    <glyph glyph-name="uni0219" unicode="&#x219;" horiz-adv-x="507" 
d="M60 28v69q46 -22 91 -35t92 -13q67 0 107.5 24.5t40.5 73.5q0 29 -14 49t-41.5 31.5t-68.5 14.5l-53 4q-43 3 -80 17t-59 45.5t-22 85.5q0 37 16 65.5t44.5 48t64.5 30t76 10.5t73.5 -5t60.5 -13.5t49 -21.5v-70q-45 26 -92 36.5t-84 10.5q-65 0 -102.5 -24t-37.5 -70
q0 -33 17 -50.5t44 -25t57 -10.5l60 -5q49 -3 85 -19t56 -48t20 -83q0 -42 -19.5 -73t-51.5 -50.5t-70.5 -29t-77.5 -9.5q-30 0 -63 4.5t-64 14t-54 21.5zM261 -244h-52l9 151h64z" />
    <glyph glyph-name="uni021A" unicode="&#x21a;" horiz-adv-x="612" 
d="M600 755v-68h-252v-687h-73v687h-263v68h588zM322 -244h-52l9 151h64z" />
    <glyph glyph-name="uni021B" unicode="&#x21b;" horiz-adv-x="377" 
d="M124 162v313h-100v60h100v165h70v-165h145v-60h-145v-309q0 -40 9 -65.5t30 -38.5t56 -13q16 0 34.5 2.5t28.5 6.5v-62q-12 -4 -29 -6.5t-39 -2.5q-42 0 -72.5 12t-50 34.5t-28.5 55.5t-9 73zM249 -244h-52l9 151h64z" />
    <glyph glyph-name="uni021C" unicode="&#x21c;" horiz-adv-x="594" 
d="M52 687v68h476v-68l-284 -277l16 1q58 0 102.5 -9t77 -26.5t52.5 -41.5t30 -56t10 -69q0 -46 -19 -88.5t-51 -81.5t-71 -77t-80 -77h-95q44 43 86.5 85t77 82.5t55.5 79.5t21 76q0 31 -9 54t-26.5 39.5t-43.5 26.5t-60 15t-76 5h-91v53l287 286h-385z" />
    <glyph glyph-name="uni021D" unicode="&#x21d;" horiz-adv-x="463" 
d="M23 473v62h375v-62l-231 -249l18 1q64 0 108.5 -13.5t71.5 -37t39 -54.5t12 -66q0 -48 -21 -95t-57.5 -92.5t-82.5 -88.5h-87q59 58 96.5 104t56.5 86.5t19 79.5q0 40 -19 65t-58 37t-97 12h-81v53l233 258h-295z" />
    <glyph glyph-name="uni021E" unicode="&#x21e;" horiz-adv-x="738" 
d="M173 755v-333h392v333h73v-755h-73v354h-392v-354h-73v755h73zM341 827l-121 133h70l80 -89l79 89h71l-121 -133h-58z" />
    <glyph glyph-name="uni021F" unicode="&#x21f;" horiz-adv-x="598" 
d="M84 0v755h69v-302q14 22 32 40q27 26 63 40t80 14q67 0 109 -25.5t62 -75t20 -119.5v-327h-70v320q0 58 -17.5 93.5t-48.5 52t-71 16.5q-42 0 -78.5 -18t-58.5 -54.5t-22 -93.5v-316h-69zM90 827l-121 133h70l80 -89l79 89h71l-121 -133h-58z" />
    <glyph glyph-name="uni0226" unicode="&#x226;" horiz-adv-x="671" 
d="M334 671l-146 -404h288zM13 0l286 762h76l281 -762h-86l-70 201h-336l-73 -201h-78zM302 846v99h71v-99h-71z" />
    <glyph glyph-name="uni0227" unicode="&#x227;" horiz-adv-x="538" 
d="M189 234q-34 -8 -53.5 -29t-19.5 -62q0 -48 29 -72t80 -24q37 0 74 13t63 43q22 25 27 66v72h-124q-42 0 -76 -7zM459 0h-70v69q-5 -8 -11 -16q-28 -33 -69 -49.5t-94 -16.5q-54 0 -92 18t-57.5 52t-19.5 82q0 44 14.5 73t39 47t53.5 27t59 12t56 3h121v32q0 28 -4 55
t-18.5 49t-43 35t-77.5 13q-46 0 -89.5 -13t-83.5 -49v70q32 26 74.5 40t106.5 14q57 0 94.5 -12t60 -33t33.5 -48t14 -57t3 -60v-337zM222 651v99h75v-99h-75z" />
    <glyph glyph-name="uni0228" unicode="&#x228;" horiz-adv-x="603" 
d="M539 755v-66h-366v-271h337v-64h-337v-288h375v-66h-448v755h439zM255 -222v46h49q34 0 48.5 7.5t14.5 28.5q-1 17 -12.5 24t-38.5 7h-37v29l22 85h42l-17 -75q50 -1 71 -19t21 -50q0 -37 -26.5 -60t-85.5 -23h-51z" />
    <glyph glyph-name="uni0229" unicode="&#x229;" horiz-adv-x="552" 
d="M426 297v16q0 56 -15.5 94.5t-48.5 58t-83 19.5q-32 0 -59.5 -10t-48 -31.5t-32 -56t-11.5 -82.5v-8h298zM496 237h-368v-8q0 -39 10.5 -71.5t32 -57t54.5 -38t78 -13.5t87.5 8t93.5 39v-63q-44 -26 -88.5 -36t-99.5 -10q-74 0 -127.5 29.5t-81.5 84.5t-28 133v66
q0 57 15 103t44 78t69.5 49t90.5 17q66 0 115.5 -25.5t76 -78.5t26.5 -133v-73zM209 -222v46h49q34 0 48.5 7.5t14.5 28.5q-1 17 -12.5 24t-38.5 7h-37v29l22 85h42l-17 -75q50 -1 71 -19t21 -50q0 -37 -26.5 -60t-85.5 -23h-51z" />
    <glyph glyph-name="uni022E" unicode="&#x22e;" horiz-adv-x="715" 
d="M140 427v-113q0 -87 25 -145t73.5 -87t118.5 -29q69 0 118 29t75 87t26 145v113q0 88 -26 149t-75 93t-118 32q-53 0 -93 -18.5t-68 -53.5t-42 -86t-14 -116zM65 321v99q0 114 35 191t101 117t156 40q69 0 123.5 -23t92.5 -67.5t58 -109t20 -148.5v-99q0 -85 -21.5 -148
t-61 -104.5t-93.5 -62t-118 -20.5t-118 20.5t-93 62t-60 104.5t-21 148zM323 846v99h71v-99h-71z" />
    <glyph glyph-name="uni022F" unicode="&#x22f;" horiz-adv-x="571" 
d="M128 306v-78q0 -86 43 -132.5t114 -46.5q74 0 116 47t42 132v78q0 88 -43 134t-115 46q-71 0 -114 -46t-43 -134zM59 233v68q0 81 29 136t80 82.5t117 27.5t117.5 -27.5t81 -82.5t29.5 -136v-68q0 -61 -16.5 -107t-47.5 -77t-72.5 -46.5t-91.5 -15.5q-66 0 -117 28
t-80 82.5t-29 135.5zM248 651v99h75v-99h-75z" />
    <glyph glyph-name="uni0232" unicode="&#x232;" horiz-adv-x="610" 
d="M587 755l-247 -455v-300h-73v302l-240 453h86l192 -379l203 379h79zM162 858v52h299v-52h-299z" />
    <glyph glyph-name="uni0233" unicode="&#x233;" horiz-adv-x="543" 
d="M238 -222h-75l76 207l-215 550h76l175 -464l176 464h72l-209 -535h-1zM142 658v52h265v-52h-265z" />
    <glyph glyph-name="uni0237" unicode="&#x237;" horiz-adv-x="245" 
d="M162 535v-585q0 -44 -10 -78.5t-30.5 -58t-52 -35.5t-74.5 -12q-17 0 -28 2t-20 5v65q8 -4 21 -6.5t28 -2.5q50 0 73 30.5t23 94.5v581h70z" />
    <glyph glyph-name="uni0250" unicode="&#x250;" horiz-adv-x="538" 
d="M349.023 301.028q33.9951 7.99902 53.4932 28.9971q19.4971 20.9971 19.4971 61.9922q0 47.9941 -28.9961 71.9912t-79.9902 23.9971q-36.9951 0 -73.9912 -12.998q-36.9951 -12.999 -62.9922 -42.9951q-21.9971 -24.9971 -26.9961 -65.9922v-71.9912h123.984
q41.9951 0 75.9912 6.99902zM79.0557 535h69.9922v-68.9912q4.99902 7.99902 10.998 15.998q27.9971 32.9951 68.9922 49.4932t93.9883 16.498q53.9932 0 91.9883 -17.9971q37.9961 -17.998 57.4932 -51.9941q19.498 -33.9961 19.498 -81.9902q0 -43.9941 -14.498 -72.9912
q-14.499 -28.9961 -38.9961 -46.9941q-24.4961 -17.9971 -53.4932 -26.9961q-28.9961 -8.99902 -58.9932 -11.999q-29.9961 -2.99902 -55.9922 -2.99902h-120.985v-31.9961q0 -27.9971 3.99902 -54.9941q4 -26.9961 18.498 -48.9932q14.498 -21.998 42.9941 -34.9961
q28.4971 -12.998 77.4912 -12.998q45.9941 0 89.4893 12.998q43.4941 12.998 83.4893 48.9941v-69.9912q-31.9961 -25.9971 -74.4912 -39.9951q-42.4941 -13.999 -106.486 -13.999q-56.9932 0 -94.4883 11.999q-37.4961 11.998 -59.9932 32.9961
q-22.4971 20.9971 -33.4961 47.9941q-10.998 26.9961 -13.998 56.9932q-3 29.9961 -3 59.9922v336.959z" />
    <glyph glyph-name="uni0251" unicode="&#x251;" 
d="M441 218v114q-3 35 -21 67q-21 38 -58 62t-82 24q-32 0 -59.5 -10.5t-48.5 -32.5t-32.5 -56t-11.5 -82v-73q0 -38 9.5 -71.5t28 -58.5t46.5 -39t66 -14q49 0 85.5 25.5t57 64.5t20.5 80zM441 0v89q-11 -19 -26 -36q-26 -30 -62 -48.5t-83 -18.5q-70 0 -117.5 31.5
t-71 87.5t-23.5 131v63q0 72 23.5 128t70.5 88t117 32q60 0 104 -26q42 -26 68 -69v83h70v-535h-70z" />
    <glyph glyph-name="uni0254" unicode="&#x254;" horiz-adv-x="493" 
d="M200.036 -11.9336q-42.9951 0 -81.9902 8.49902t-71.9912 27.4971v71.9912q39.9951 -26.9971 78.9902 -36.4961q38.9951 -9.49805 74.9912 -9.49805q34.9951 0 64.9912 9.49805q29.9971 9.49902 52.4941 30.4971q22.4971 20.9971 34.9961 55.4932
q12.498 34.4951 12.498 84.4893v75.9912q0 37.9951 -9.99902 70.4912t-29.9961 57.4932t-50.9941 38.4951q-30.9961 13.498 -71.9912 13.498q-36.9951 0 -74.9902 -10.499q-37.9961 -10.498 -79.9902 -36.4951v65.9922q27.9961 18.9971 68.9912 30.9961
q40.9951 11.998 88.9893 11.998q70.9912 0 122.485 -30.4961q51.4932 -30.4961 79.4902 -86.4893q27.9961 -55.9932 27.9961 -129.984v-65.9912q0 -71.9922 -25.4971 -127.485q-25.4961 -55.4932 -77.4902 -87.4893q-51.9932 -31.9961 -131.983 -31.9961z" />
    <glyph glyph-name="uni0259" unicode="&#x259;" horiz-adv-x="551" 
d="M141 128q16 -39 48.5 -59t83.5 -20q32 0 59 10.5t47.5 32t32 56t11.5 82.5v8h-298v-16q0 -56 16 -94zM55 298h368v8q0 39 -10 71.5t-31.5 57t-54.5 38.5t-78 14t-88 -7.5t-93 -39.5v62q44 27 88.5 37t99.5 10q74 0 127 -29.5t81.5 -85t28.5 -133.5v-66q0 -57 -15.5 -103
t-44 -78t-69 -49.5t-91.5 -17.5q-65 0 -114 26.5t-76.5 79t-27.5 132.5v73z" />
    <glyph glyph-name="uni025B" unicode="&#x25b;" horiz-adv-x="503" 
d="M276 -12q-63 0 -105 13t-68 35.5t-37.5 51.5t-11.5 62q0 45 20.5 74t54.5 43q15 7 32 12q-13 4 -25 11q-30 15 -46.5 41t-16.5 64q0 43 20 77.5t65.5 55t123.5 20.5q33 0 63.5 -4.5t57.5 -12.5t48 -19v-70q-42 24 -86 33.5t-76 9.5q-39 0 -72.5 -8t-53.5 -27.5t-20 -54.5
q0 -32 17.5 -52t48 -29t71.5 -9h85v-61h-90q-43 0 -77.5 -7.5t-54.5 -27.5t-20 -58q0 -55 42 -78.5t114 -23.5q34 0 82 10t91 34v-65q-25 -14 -56 -23t-62 -13t-58 -4z" />
    <glyph glyph-name="uni0261" unicode="&#x261;" 
d="M420 399q-21 38 -58 62t-83 24q-31 0 -58.5 -10.5t-48.5 -32.5t-32.5 -56t-11.5 -82v-73q0 -38 9.5 -71t28 -58t46.5 -39t66 -14q48 0 84.5 25.5t58 64t21.5 79.5v114q-4 35 -22 67zM270 -13q-70 0 -117.5 31t-71 87t-23.5 131v63q0 72 23.5 128t70.5 88t116 32
q61 0 105 -26q42 -26 69 -69v83h69v-534q0 -70 -26.5 -123t-80 -82.5t-135.5 -29.5q-32 0 -63 4.5t-59.5 12t-53.5 17.5v66q46 -20 93 -28.5t84 -8.5q65 0 102.5 21.5t53.5 61t16 93.5v86q-12 -19 -26 -36q-26 -31 -62 -49.5t-84 -18.5z" />
    <glyph glyph-name="uni026A" unicode="&#x26a;" horiz-adv-x="393" 
d="M352 535v-59h-119v-417h120v-59h-313v59h120v417h-119v59h311z" />
    <glyph glyph-name="uni026C" unicode="&#x26c;" horiz-adv-x="492" 
d="M217 486q-20 8 -43 8q-41 0 -63.5 -22.5t-22.5 -61.5q0 -44 23 -68t62 -34q34 -8 74 -9v167q-12 12 -30 20zM247 133v110q-43 1 -80 8q-42 9 -73 28t-49 51.5t-18 79.5q0 62 36.5 100t102.5 38q40 0 64 -13q9 -4 17 -10v230h70v-452q10 1 21 4q38 7 71.5 19.5t59.5 27.5
v-63q-18 -11 -51.5 -22t-74.5 -19l-26 -4v-109q0 -45 12 -66t44 -21q16 0 30.5 3t22.5 7v-61q-10 -4 -26.5 -8t-34.5 -4q-45 0 -70.5 16.5t-36.5 49t-11 80.5z" />
    <glyph glyph-name="uni0275" unicode="&#x275;" horiz-adv-x="571" 
d="M171 96q43 -47 114 -47q74 0 116 47t42 132v15h-315v-15q0 -86 43 -132zM128 306v-6h315v6q0 88 -43 134t-115 46q-71 0 -114 -46t-43 -134zM59 233v68q0 81 29 136t80 82.5t117 27.5t117.5 -27.5t81 -82.5t29.5 -136v-68q0 -61 -16.5 -107t-47.5 -77t-72.5 -46.5
t-91.5 -15.5q-66 0 -117 28t-80 82.5t-29 135.5z" />
    <glyph glyph-name="uni0279" unicode="&#x279;" horiz-adv-x="354" 
d="M24.04 -11.9336v66.9922q5 -1 9.49902 -1.5q4.5 -0.5 8.49902 -0.5q41.9951 0 76.4902 22.4971q34.4961 22.498 56.4932 60.4932q21.998 37.9951 25.9971 85.9893v312.962h68.9912v-534.935h-68.9912v93.9883q-15.998 -26.9971 -35.9951 -47.9941
q-26.9971 -26.9971 -61.9932 -42.4951q-34.9951 -15.498 -78.9902 -15.498z" />
    <glyph glyph-name="uni0281" unicode="&#x281;" horiz-adv-x="535" 
d="M478 156q0 -36 -9.5 -64.5t-31.5 -49t-59 -31.5t-93 -11h-201v535h69v-219h135h12l103 219h79l-115 -228q16 -4 29 -10q43 -19 62.5 -54.5t19.5 -86.5zM153 60h128q71 0 99.5 23.5t28.5 73.5q0 37 -13 58.5t-40.5 31t-70.5 9.5h-132v-196z" />
    <glyph glyph-name="uni0283" unicode="&#x283;" horiz-adv-x="384" 
d="M12 -233v59q58 0 89 12t43 44.5t12 91.5v589q0 66 19.5 106.5t52 61.5t72.5 28t83 7v-60q-54 0 -88.5 -11t-51.5 -42t-17 -92v-589q0 -61 -13 -100.5t-39 -62.5t-66.5 -32.5t-95.5 -9.5z" />
    <glyph glyph-name="uni028A" unicode="&#x28a;" horiz-adv-x="628" 
d="M367 416v119h204v-62h-144v-23q25 -9 46 -22q31 -19 52 -47t31.5 -64t10.5 -82v-5q0 -54 -15.5 -98t-47.5 -76t-80 -50t-113 -18q-59 0 -105.5 15.5t-79 46.5t-49.5 76t-17 104v5q0 62 20.5 107t56.5 74q27 21 59 32v25h-137v62h197v-118q-41 -13 -69 -34.5t-42 -55.5
t-14 -86v-17q0 -55 19.5 -94t60 -60t102.5 -21q86 0 134.5 42.5t48.5 132.5v17q0 46 -14.5 81.5t-43 59.5t-71.5 34z" />
    <glyph glyph-name="uni0292" unicode="&#x292;" horiz-adv-x="480" 
d="M317 168q60 -23 91.5 -70.5t31.5 -118.5q0 -60 -30 -108t-83 -76t-126 -28q-29 0 -60.5 5t-61 14.5t-51.5 21.5v67q28 -16 55 -25.5t56.5 -14.5t63.5 -5q44 0 81.5 16.5t60.5 50t23 84.5q0 74 -50.5 112t-148.5 38h-70v60l245 282h-312v62h402v-51l-255 -292
q80 -1 138 -24z" />
    <glyph glyph-name="uni0294" unicode="&#x294;" horiz-adv-x="461" 
d="M411 529q0 -63 -16.5 -110t-51.5 -78.5t-88 -45.5q-43 -12 -48 -13v0q0 1 -48 1v-283h-70v347q6 -1 16.5 -2t23.5 -1q58 0 98.5 11t65.5 33.5t36.5 57.5t11.5 83q0 61 -19 100t-59 57.5t-101 18.5q-42 0 -80.5 -9.5t-71.5 -28.5v68q20 11 59.5 21.5t101.5 10.5
q72 0 126.5 -24.5t84 -77t29.5 -136.5zM207 282v0v0v0z" />
    <glyph glyph-name="uni02B9" unicode="&#x2b9;" horiz-adv-x="222" 
d="M67 520l32 235h70l-46 -235h-56z" />
    <glyph glyph-name="uni02BA" unicode="&#x2ba;" horiz-adv-x="415" 
d="M67 520l32 235h70l-39 -235h-63zM258 520l32 235h70l-39 -235h-63z" />
    <glyph glyph-name="uni02BB" unicode="&#x2bb;" horiz-adv-x="222" 
d="M60 520l46 235h56l-32 -235h-70z" />
    <glyph glyph-name="uni02BC" unicode="&#x2bc;" horiz-adv-x="222" 
d="M67 520l32 235h70l-46 -235h-56z" />
    <glyph glyph-name="uni02BE" unicode="&#x2be;" horiz-adv-x="272" 
d="M60.0254 418q47.9941 0 86.9902 23.5q38.9951 23.5 61.9922 63t22.9971 87.5q0 52 -22.9971 92t-61.9922 62.5q-38.9961 22.5 -86.9902 22.5v-58q31.9961 0 57.9932 -15t41.4951 -41.5t15.498 -62.5q0 -32 -15.498 -58.5t-41.4951 -42.5t-57.9932 -16v-57z" />
    <glyph glyph-name="uni02BF" unicode="&#x2bf;" horiz-adv-x="272" 
d="M212 418q-48 0 -87 23.5t-62 63t-23 87.5q0 52 23 92t62 62.5t87 22.5v-58q-32 0 -58 -15t-41.5 -41.5t-15.5 -62.5q0 -32 15.5 -58.5t41.5 -42.5t58 -16v-57z" />
    <glyph glyph-name="circumflex" unicode="&#x2c6;" horiz-adv-x="406" 
d="M50 622l124 153h58l124 -153h-65l-88 112l-90 -112h-63z" />
    <glyph glyph-name="caron" unicode="&#x2c7;" horiz-adv-x="406" 
d="M174 622l-124 153h65l88 -112l91 112h62l-124 -153h-58z" />
    <glyph glyph-name="breve" unicode="&#x2d8;" horiz-adv-x="353" 
d="M246 755h57q0 -37 -13.5 -65.5t-41.5 -45t-71 -16.5q-45 0 -73 17t-41 46t-13 64h55q0 -40 20 -59t52 -19t50.5 20t18.5 58z" />
    <glyph glyph-name="dotaccent" unicode="&#x2d9;" horiz-adv-x="171" 
d="M47 651v99h75v-99h-75z" />
    <glyph glyph-name="ring" unicode="&#x2da;" horiz-adv-x="297" 
d="M148 598q-40 0 -69 24.5t-29 70.5q0 45 29 71.5t69 26.5q41 0 70 -26.5t29 -71.5t-29 -70t-70 -25zM148 634q17 0 31 7t22 20.5t8 31.5q0 19 -8 32.5t-22 21t-31 7.5t-31 -7.5t-22 -21t-8 -32.5q0 -28 17.5 -43.5t43.5 -15.5z" />
    <glyph glyph-name="ogonek" unicode="&#x2db;" horiz-adv-x="271" 
d="M177 -228q-60 0 -95 32t-35 84q0 41 19 68t48 46.5t57 31.5l22 -34q-21 -9 -39.5 -23t-30 -32.5t-11.5 -43.5q0 -31 20 -50.5t56 -19.5q9 0 17 1l16 2v-57q-11 -2 -22 -3.5t-22 -1.5z" />
    <glyph glyph-name="tilde" unicode="&#x2dc;" horiz-adv-x="389" 
d="M130 683q-19 0 -40.5 -11.5t-39.5 -23.5v51q14 13 34.5 26t45.5 13q22 0 45 -10t46 -20.5t42 -10.5q20 0 39.5 11.5t36.5 24.5v-50q-13 -15 -34.5 -28t-44.5 -13q-21 0 -44 10.5t-45 20.5t-41 10z" />
    <glyph glyph-name="hungarumlaut" unicode="&#x2dd;" horiz-adv-x="416" 
d="M204 622l95 153h67l-103 -153h-59zM50 622l88 153h67l-96 -153h-59z" />
    <glyph glyph-name="gravecomb" unicode="&#x300;" horiz-adv-x="255" 
d="M146 622l-96 153h67l88 -153h-59z" />
    <glyph glyph-name="acutecomb" unicode="&#x301;" horiz-adv-x="255" 
d="M50 622l88 153h67l-96 -153h-59z" />
    <glyph glyph-name="uni0302" unicode="&#x302;" horiz-adv-x="406" 
d="M50 622l124 153h58l124 -153h-65l-88 112l-90 -112h-63z" />
    <glyph glyph-name="tildecomb" unicode="&#x303;" horiz-adv-x="389" 
d="M130 683q-19 0 -40.5 -11.5t-39.5 -23.5v51q14 13 34.5 26t45.5 13q22 0 45 -10t46 -20.5t42 -10.5q20 0 39.5 11.5t36.5 24.5v-50q-13 -15 -34.5 -28t-44.5 -13q-21 0 -44 10.5t-45 20.5t-41 10z" />
    <glyph glyph-name="uni0304" unicode="&#x304;" horiz-adv-x="365" 
d="M50 658v52h265v-52h-265z" />
    <glyph glyph-name="uni0306" unicode="&#x306;" horiz-adv-x="353" 
d="M246 755h57q0 -37 -13.5 -65.5t-41.5 -45t-71 -16.5q-45 0 -73 17t-41 46t-13 64h55q0 -40 20 -59t52 -19t50.5 20t18.5 58z" />
    <glyph glyph-name="uni0307" unicode="&#x307;" horiz-adv-x="171" 
d="M47 651v99h75v-99h-75z" />
    <glyph glyph-name="uni0308" unicode="&#x308;" horiz-adv-x="377" 
d="M50 651v99h71v-99h-71zM256 651v99h71v-99h-71z" />
    <glyph glyph-name="hookabovecomb" unicode="&#x309;" horiz-adv-x="265" 
d="M215 709q0 -28 -13 -53.5t-33 -48.5h-56q25 27 36.5 51t11.5 45q0 25 -13.5 37.5t-36.5 12.5q-14 0 -32.5 -3.5t-28.5 -8.5v46q13 5 33 8t34 3q27 0 49.5 -10.5t35.5 -30.5t13 -48z" />
    <glyph glyph-name="uni030A" unicode="&#x30a;" horiz-adv-x="297" 
d="M148 598q-40 0 -69 24.5t-29 70.5q0 45 29 71.5t69 26.5q41 0 70 -26.5t29 -71.5t-29 -70t-70 -25zM148 634q17 0 31 7t22 20.5t8 31.5q0 19 -8 32.5t-22 21t-31 7.5t-31 -7.5t-22 -21t-8 -32.5q0 -28 17.5 -43.5t43.5 -15.5z" />
    <glyph glyph-name="uni030B" unicode="&#x30b;" horiz-adv-x="416" 
d="M204 622l95 153h67l-103 -153h-59zM50 622l88 153h67l-96 -153h-59z" />
    <glyph glyph-name="uni030C" unicode="&#x30c;" horiz-adv-x="406" 
d="M174 622l-124 153h65l88 -112l91 112h62l-124 -153h-58z" />
    <glyph glyph-name="uni030F" unicode="&#x30f;" horiz-adv-x="0" 
d="M-303.975 622l-94.9893 153h-66.9912l102.987 -153h58.9932zM-149.994 622l-87.9893 153h-66.9912l95.9883 -153h58.9922z" />
    <glyph glyph-name="uni0310" unicode="&#x310;" horiz-adv-x="393" 
d="M160 751v92h71v-92h-71zM286 732h57q0 -39 -15 -68t-47 -45.5t-84 -16.5q-54 0 -86.5 17t-46.5 46.5t-14 66.5h55q0 -44 23 -62.5t69 -18.5q31 0 50.5 8.5t29 27t9.5 45.5z" />
    <glyph glyph-name="uni0311" unicode="&#x311;" horiz-adv-x="0" 
d="M-309.97 645.092h-56.9932q0 36.9961 13.498 65.4922q13.498 28.4971 41.4951 44.9951q27.9971 16.4971 70.9912 16.4971q44.9941 0 72.9912 -16.9971q27.9971 -16.998 40.9951 -45.9951q12.998 -28.9961 12.998 -63.9922h-54.9932q0 39.9951 -19.9971 58.9932
q-19.998 18.998 -51.9941 18.998t-50.4941 -19.998q-18.4971 -19.9971 -18.4971 -57.9932z" />
    <glyph glyph-name="dotbelowcomb" unicode="&#x323;" horiz-adv-x="171" 
d="M47 -192v99h75v-99h-75z" />
    <glyph glyph-name="uni0324" unicode="&#x324;" horiz-adv-x="377" 
d="M50 -192v99h71v-99h-71zM256 -192v99h71v-99h-71z" />
    <glyph glyph-name="uni0325" unicode="&#x325;" horiz-adv-x="297" 
d="M148 -214q17 0 31 7.5t22 20.5t8 31q0 19 -8 33t-22 21.5t-31 7.5t-31 -7.5t-22 -21.5t-8 -33q0 -27 17.5 -43t43.5 -16zM148 -249q-40 0 -69 24.5t-29 69.5q0 46 29 72t69 26q41 0 70 -26t29 -72q0 -44 -29 -69t-70 -25z" />
    <glyph glyph-name="uni0326" unicode="&#x326;" horiz-adv-x="173" 
d="M102 -244h-52l9 151h64z" />
    <glyph glyph-name="uni0327" unicode="&#x327;" horiz-adv-x="263" 
d="M50 -222v46h49q34 0 48.5 7.5t14.5 28.5q-1 17 -12.5 24t-38.5 7h-37v29l22 85h42l-17 -75q50 -1 71 -19t21 -50q0 -37 -26.5 -60t-85.5 -23h-51z" />
    <glyph glyph-name="uni0328" unicode="&#x328;" horiz-adv-x="271" 
d="M177 -228q-60 0 -95 32t-35 84q0 41 19 68t48 46.5t57 31.5l22 -34q-21 -9 -39.5 -23t-30 -32.5t-11.5 -43.5q0 -31 20 -50.5t56 -19.5q9 0 17 1l16 2v-57q-11 -2 -22 -3.5t-22 -1.5z" />
    <glyph glyph-name="uni032E" unicode="&#x32e;" horiz-adv-x="353" 
d="M246 -93h57q0 -37 -13.5 -65.5t-41.5 -45t-71 -16.5q-45 0 -73 17t-41 46t-13 64h55q0 -40 20 -59t52 -19t50.5 20t18.5 58z" />
    <glyph glyph-name="uni0331" unicode="&#x331;" horiz-adv-x="253" 
d="M-6 -182v53h265v-53h-265z" />
    <glyph glyph-name="pi" unicode="&#x3c0;" horiz-adv-x="584" 
d="M96 0v472h-76v63h544v-63h-75v-471h-70v471h-253v-472h-70z" />
    <glyph glyph-name="uni0E3F" unicode="&#xe3f;" horiz-adv-x="661" 
d="M289 865h69v-110q71 -3 118 -24q55 -23 81 -66.5t26 -103.5q0 -54 -22.5 -90t-60.5 -59q-21 -12 -27 -16q2 1 2 2v0q-2 0 -15 -6q28 -7 61 -24t58 -56.5t25 -100.5q0 -42 -14 -80t-44.5 -68t-80.5 -46q-44 -15 -107 -17v-122h-69v122h-189v755h189v110zM437 80
q43 15 67 46t24 81q0 52 -20.5 84.5t-62.5 47.5q-35 13 -87 14v-286q44 2 79 13zM173 354v-288h116v288h-116zM409 427q32 9 53.5 26t33 42.5t11.5 60.5q0 51 -23 80t-63 41q-28 8 -63 11v-269q28 2 51 8zM173 689v-270h116v270h-116zM472 395q0 1 1 1l-3 -2v0z" />
    <glyph glyph-name="uni10A0" unicode="&#x10a0;" horiz-adv-x="618" 
d="M86 689v66h488v-66h-170q-73 0 -131 -27.5t-91.5 -85t-33.5 -149.5v-106q0 -91 27.5 -150t80 -88.5t126.5 -29.5q33 0 66 4t64.5 14t59.5 26v-68q-26 -14 -55.5 -23.5t-62.5 -14.5t-72 -5q-94 0 -163.5 38.5t-107.5 114.5t-38 189v85q0 51 10 96.5t32.5 83.5t58.5 66
q22 17 49 30h-137z" />
    <glyph glyph-name="uni10A1" unicode="&#x10a1;" horiz-adv-x="731" 
d="M475 0v370q-12 -27 -34 -48q-29 -29 -68.5 -45t-86.5 -16q-57 0 -101 18.5t-74.5 52t-46.5 79.5t-16 101v70q0 38 6 70t15.5 58t19.5 45h76q-13 -26 -23 -54t-14.5 -58.5t-4.5 -62.5v-69q0 -56 21 -97.5t59.5 -64t92.5 -22.5q50 0 90.5 20.5t64.5 59t24 91.5v257h74v-690
h171v-65h-245z" />
    <glyph glyph-name="uni10A2" unicode="&#x10a2;" horiz-adv-x="752" 
d="M671 -113v113h-211v690h-335v-264h-73v329h482v-690h211v-178h-74z" />
    <glyph glyph-name="uni10A3" unicode="&#x10a3;" horiz-adv-x="657" 
d="M73 690v65h510v-65h-218v-178q54 -5 101 -27q61 -28 98 -82t37 -129v-48q0 -75 -37 -129t-98.5 -82.5t-138.5 -28.5q-76 0 -137.5 28.5t-97 82.5t-35.5 129v48q0 75 36 129t98 82q47 22 101 27v178h-219zM328 53q60 0 104.5 22t69 61t24.5 91v47q0 51 -24.5 90t-69 61.5
t-104.5 22.5q-58 0 -103 -22t-70 -61t-25 -89v-49q0 -52 24.5 -91t69 -61t104.5 -22z" />
    <glyph glyph-name="uni10A4" unicode="&#x10a4;" horiz-adv-x="634" 
d="M52 426v329h482v-755h-74v690h-335v-264h-73z" />
    <glyph glyph-name="uni10A5" unicode="&#x10a5;" horiz-adv-x="845" 
d="M52 426v329h439v-312h334v-274h-74v209h-260v-378h-74v690h-292v-264h-73z" />
    <glyph glyph-name="uni10A6" unicode="&#x10a6;" horiz-adv-x="791" 
d="M339 136q23 -39 63 -61t93 -22t93 22t62.5 61t22.5 91v47q0 52 -22 91t-61 61t-92 22q-50 0 -91 -20.5t-65.5 -58.5t-24.5 -92v-50q0 -52 22 -91zM11 690v65h306v-350q13 28 34 49q29 29 69.5 44.5t87.5 15.5q57 0 101 -18t75 -51t47.5 -77t16.5 -95v-47
q0 -75 -34.5 -129t-92 -82.5t-127.5 -28.5t-126.5 28.5t-90 82.5t-33.5 129v464h-233z" />
    <glyph glyph-name="uni10A7" unicode="&#x10a7;" horiz-adv-x="844" 
d="M749 250v128h-182v-378h-199q-89 0 -157.5 34.5t-107 107.5t-38.5 186v92q0 114 38.5 188t107 110.5t157.5 36.5h199v-312h256v-193h-74zM250 661q-52 -28 -81.5 -85.5t-29.5 -148.5v-106q0 -71 17 -120t48 -79t73 -43t91 -13h126v623h-126q-66 0 -118 -28z" />
    <glyph glyph-name="uni10A8" unicode="&#x10a8;" horiz-adv-x="529" 
d="M356 0v687h-344v68h418l-1 -755h-73z" />
    <glyph glyph-name="uni10A9" unicode="&#x10a9;" horiz-adv-x="638" 
d="M496 365v42q0 52 -22 91t-62 60.5t-94 21.5q-50 0 -91 -20t-64.5 -58.5t-23.5 -92.5v-42q0 -51 22 -90t62 -61t95 -22q50 0 90.5 20.5t64 59t23.5 91.5zM496 0v232q-14 -28 -37 -49q-30 -27 -69 -41t-85 -14q-57 0 -101.5 18t-75 50.5t-46.5 76.5t-16 95v387h73v-213
q15 29 39 49q29 27 68 41t85 14q57 0 101.5 -18t75 -50.5t46.5 -76.5t16 -95v-406h-74z" />
    <glyph glyph-name="uni10AA" unicode="&#x10aa;" horiz-adv-x="907" 
d="M455 136q22 -39 62 -61t93 -22t93.5 22t62.5 61t22 91v47q0 52 -22 91t-61 61t-92 22q-49 0 -90.5 -20.5t-66 -58.5t-24.5 -92v-50q0 -52 23 -91zM40 511v244h392v-350q14 28 35 49q29 29 69 44.5t88 15.5q56 0 100 -18t75 -51t47.5 -77t16.5 -95v-47q0 -75 -34.5 -129
t-91.5 -82.5t-127 -28.5t-127 28.5t-90.5 82.5t-33.5 129v464h-245v-179h-74z" />
    <glyph glyph-name="uni10AB" unicode="&#x10ab;" horiz-adv-x="716" 
d="M176 391q-49 -44 -49 -124v-40q0 -52 22.5 -91t63 -61t94.5 -22q53 0 92.5 22t61.5 61t22 91v208h-169q-90 0 -138 -44zM89 690v65h468v-254h139v-66h-139v-209q0 -75 -33.5 -129t-90 -82.5t-126.5 -28.5t-128 28.5t-92 82.5t-34 129v40q0 70 28.5 123t86 82.5
t142.5 29.5h173v189h-394z" />
    <glyph glyph-name="uni10AC" unicode="&#x10ac;" horiz-adv-x="664" 
d="M526 0v274q0 52 -21 91t-60 61t-92 22q-49 0 -90 -20.5t-65.5 -58.5t-24.5 -92v-277h-73v755h469v-66h-396v-284q14 28 35 49q29 29 68.5 44.5t86.5 15.5q57 0 101 -18t74.5 -51t46.5 -77t16 -95v-273h-75z" />
    <glyph glyph-name="uni10AD" unicode="&#x10ad;" horiz-adv-x="909" 
d="M744 -13q-48 0 -86 23.5t-64 63.5q-4 6 -8 13q-8 -10 -17 -19q-39 -41 -93 -61.5t-118 -20.5t-117.5 20.5t-93 62t-60.5 104.5t-21 148v99q0 114 35 191t101 117t157 40q69 0 123.5 -23t92.5 -67.5t57.5 -109t19.5 -148.5v-99q0 -85 -22 -148q-6 -20 -15 -37
q8 -16 18 -28q22 -27 47 -39t50 -12q24 0 41 9.5t26.5 31t9.5 54.5v49h72v-66q0 -75 -39 -111.5t-96 -36.5zM358 53q70 0 118.5 29t74.5 87t26 145v113q0 88 -26 149t-74.5 93t-118.5 32q-52 0 -92.5 -18.5t-68 -53.5t-42 -86t-14.5 -116v-113q0 -87 25.5 -145t74 -87
t117.5 -29z" />
    <glyph glyph-name="uni10AE" unicode="&#x10ae;" horiz-adv-x="862" 
d="M13 687v68h267v-440q0 -90 21.5 -148t67 -86t118.5 -28q76 0 122 29.5t67 87.5t21 145v440h74v-433q0 -85 -18.5 -148.5t-54.5 -105t-89 -62t-122 -20.5q-92 0 -155 37t-94.5 111.5t-31.5 187.5v365h-193z" />
    <glyph glyph-name="uni10AF" unicode="&#x10af;" horiz-adv-x="778" 
d="M11 687v68h243v-230q0 -56 20.5 -97.5t59 -64t91.5 -22.5q50 0 90.5 20.5t65 59t24.5 91.5v243h73v-755h-73v384q-13 -27 -34 -48q-30 -29 -69.5 -45t-86.5 -16q-56 0 -99.5 18.5t-74 52t-45.5 79.5t-15 101v161h-170z" />
    <glyph glyph-name="uni10B0" unicode="&#x10b0;" horiz-adv-x="944" 
d="M823 185v140q0 76 -41 117t-106 41q-42 0 -77 -17t-56.5 -50.5t-21.5 -80.5v-103q0 -77 -30.5 -132t-84.5 -84.5t-124 -29.5q-65 0 -119 29t-86.5 83t-32.5 127v39q0 31 5 58.5t13.5 51.5t17.5 42h75q-18 -38 -27 -76.5t-9 -77.5v-37q0 -57 21.5 -95.5t59 -58t82.5 -19.5
t82.5 19.5t60.5 58t23 94.5v531h73v-300q22 42 62 65q50 29 108 29q63 0 109 -28.5t71 -79t25 -116.5v-140h-73z" />
    <glyph glyph-name="uni10B1" unicode="&#x10b1;" horiz-adv-x="664" 
d="M351 -14q-78 0 -136.5 31t-90 91.5t-31.5 149.5v497h74v-496q0 -67 22 -113.5t63.5 -69.5t99.5 -23q56 0 98 23t64.5 69.5t22.5 113.5v66q0 27 -3.5 58t-11.5 62t-21 56h76q9 -18 16.5 -47.5t12.5 -63t5 -63.5v-69q0 -89 -33.5 -149.5t-92 -91.5t-134.5 -31z" />
    <glyph glyph-name="uni10B2" unicode="&#x10b2;" horiz-adv-x="642" 
d="M100 0v755h238q86 0 141.5 -27t82.5 -74t27 -109q0 -70 -27 -119.5t-82 -76t-138 -26.5h-169v-255h397v-68h-470zM173 388h166q51 0 85 11.5t53.5 31.5t28 47.5t8.5 60.5q0 53 -20.5 86t-61 48.5t-102.5 15.5h-157v-301z" />
    <glyph glyph-name="uni10B3" unicode="&#x10b3;" horiz-adv-x="860" 
d="M358 53q70 0 118.5 29t74.5 87t26 145v113q0 88 -26 149t-74.5 93t-118.5 32q-52 0 -92.5 -18.5t-68 -53.5t-42 -86t-14.5 -116v-113q0 -87 25.5 -145t74 -87t117.5 -29zM358 -14q-64 0 -117.5 20.5t-93 62t-60.5 104.5t-21 148v99q0 114 35 191t101 117t157 40
q69 0 123.5 -23t92.5 -67.5t57.5 -109t19.5 -148.5v-99q0 -39 -5 -73t-14 -64q16 14 36.5 21.5t46.5 7.5q31 0 58 -13t44.5 -43t17.5 -80v-77h-72v60q0 34 -10.5 53.5t-28 28t-39.5 8.5q-35 0 -58 -18t-43 -44q-38 -51 -96.5 -76.5t-130.5 -25.5z" />
    <glyph glyph-name="uni10B4" unicode="&#x10b4;" horiz-adv-x="804" 
d="M262 688q-41 -12 -73 -37.5t-51 -64.5t-19 -94v-37q0 -66 28.5 -111.5t79.5 -69t120 -23.5h18v450h-18q-44 0 -74.5 -9.5l-30.5 -9.5v0zM439 251h18q69 0 120.5 23.5t79.5 69t28 111.5v37q0 55 -19 94t-50.5 64.5t-72.5 38t-86 12.5h-18v-450zM365 0v187h-18
q-61 0 -116 16.5t-97 50t-65.5 85t-23.5 122.5v26q0 70 24 122t66 86.5t96.5 52t115.5 17.5h110q62 0 116 -17.5t96.5 -52t66.5 -86.5t24 -122v-26q0 -71 -24 -122.5t-66 -85t-96.5 -50t-116.5 -16.5h-18v-187h-74z" />
    <glyph glyph-name="uni10B5" unicode="&#x10b5;" horiz-adv-x="635" 
d="M284 0v419h-253v68h253v268h74v-268h247v-68h-247v-419h-74z" />
    <glyph glyph-name="uni10B6" unicode="&#x10b6;" horiz-adv-x="748" 
d="M656 0h-73v440q0 87 -21 145t-67 87.5t-122 29.5q-73 0 -119 -28t-67 -85.5t-21 -148.5v-440h-74v433q0 114 31.5 188t94.5 111t155 37q69 0 122 -20.5t89 -62t54 -105t18 -148.5v-433z" />
    <glyph glyph-name="uni10B7" unicode="&#x10b7;" horiz-adv-x="646" 
d="M473 0v384q-13 -27 -34 -48q-29 -29 -69 -45t-87 -16q-56 0 -100 18.5t-74.5 52t-46.5 79.5t-16 101v56q0 38 6 70t15.5 58t19.5 45h76q-13 -26 -23 -54t-14.5 -58.5t-4.5 -62.5v-55q0 -56 21 -97.5t59.5 -64t92.5 -22.5q50 0 90.5 20.5t64.5 59t24 91.5v243h74v-755h-74
z" />
    <glyph glyph-name="uni10B8" unicode="&#x10b8;" horiz-adv-x="660" 
d="M303 331q-56 0 -100.5 18.5t-75 51.5t-46 78.5t-15.5 99.5v30q0 28 3.5 54t10 49.5t13.5 42.5h74q-14 -39 -20.5 -74.5t-6.5 -74.5v-28q0 -55 21.5 -95.5t60 -63t92.5 -22.5q49 0 90 20.5t65 59t24 91.5v187h74v-544q0 -75 -34.5 -125t-91.5 -75t-127 -25q-68 1 -124 26
t-88.5 72.5t-32.5 113.5q0 17 1.5 32t6.5 29h72q-3 -14 -4.5 -28t-1.5 -29q0 -43 20.5 -77t59 -53t91.5 -19q52 0 92.5 17.5t63.5 52t23 84.5v233q-13 -27 -34 -48q-29 -29 -69 -45t-87 -16z" />
    <glyph glyph-name="uni10B9" unicode="&#x10b9;" horiz-adv-x="665" 
d="M100 0v755h73v-319h428v-436h-73v371h-355v-371h-73z" />
    <glyph glyph-name="uni10BA" unicode="&#x10ba;" horiz-adv-x="629" 
d="M506 -77v109q-26 -19 -64 -32.5t-99 -13.5t-112 21.5t-88 63.5t-57 105t-20 145v99q0 114 38.5 191t108.5 116.5t163 39.5q48 0 83.5 -7t61.5 -18.5t46 -24.5v-75q-22 17 -50.5 30.5t-63.5 21t-77 7.5q-69 0 -122 -30t-83 -90.5t-30 -153.5v-113q0 -86 26 -144.5
t76 -87.5t121 -29q47 0 86 15.5t66 40.5h63v-186h-73z" />
    <glyph glyph-name="uni10BB" unicode="&#x10bb;" horiz-adv-x="951" 
d="M298 -14q-71 0 -128.5 28.5t-92 82.5t-34.5 129v40q0 70 29 123t86 82.5t142 29.5h173v254h74v-254h334v-501h-74v435h-260v-209q0 -75 -33.5 -129t-89.5 -82.5t-126 -28.5zM166 391q-48 -44 -48 -124v-40q0 -52 22 -91t62.5 -61t94.5 -22q53 0 92.5 22t61.5 61t22 91
v208h-169q-90 0 -138 -44z" />
    <glyph glyph-name="uni10BC" unicode="&#x10bc;" horiz-adv-x="626" 
d="M390 84v73q0 35 -18.5 51t-53.5 16h-146v-224h-72v755h283q66 0 112 -24.5t69.5 -66t23.5 -92.5q0 -52 -24 -93.5t-69 -65.5t-108 -24h-215v-100h153q60 0 99 -32.5t39 -96.5v-76h-73zM172 454h208q45 0 74 16t43.5 42.5t14.5 59.5q0 52 -35.5 84.5t-97.5 32.5h-207v-235
z" />
    <glyph glyph-name="uni10BD" unicode="&#x10bd;" horiz-adv-x="618" 
d="M308 -13q-74 0 -131.5 26t-90 74.5t-32.5 115.5q0 17 2 32t6 28h73q-4 -14 -5.5 -28t-1.5 -29q0 -48 21.5 -82t62.5 -52.5t98 -18.5t96.5 18.5t61 51.5t21.5 78q0 31 -9.5 55.5t-28 43t-47 31.5t-66.5 21l-73 16q-53 11 -97 34.5t-70 65t-26 106.5q0 64 33 107t87.5 64.5
t117.5 21.5t117 -21t87 -63t33 -105q0 -12 -0.5 -24t-3.5 -24h-74q2 13 3 24.5t1 21.5q0 38 -19.5 66t-56.5 43.5t-88 15.5t-87.5 -16t-55.5 -44.5t-19 -67.5q0 -42 16 -69t47.5 -43.5t77.5 -26.5l72 -16q43 -9 80 -25.5t65 -42.5t43 -63t15 -86q0 -67 -33 -114.5t-91 -73.5
t-131 -26z" />
    <glyph glyph-name="uni10BE" unicode="&#x10be;" horiz-adv-x="674" 
d="M100 0v755h73v-347h358v347h73v-411h-431v-278h414v-66h-487z" />
    <glyph glyph-name="uni10BF" unicode="&#x10bf;" horiz-adv-x="672" 
d="M367 435l172 255h-333zM568 0l-204 328l-217 -328h-84l259 380l-199 310h-110v65h607v-65l-210 -306l246 -384h-88z" />
    <glyph glyph-name="uni10C0" unicode="&#x10c0;" horiz-adv-x="879" 
d="M40 511v244h391v-531q0 -56 23 -94.5t61 -58t82 -19.5q46 0 83 19.5t58.5 58t21.5 95.5v37q0 39 -8.5 77.5t-27.5 76.5h75q10 -18 18.5 -42t13 -51.5t4.5 -58.5v-39q0 -73 -32 -127t-86 -83t-120 -29q-70 0 -124 29.5t-84.5 84.5t-30.5 132v458h-244v-179h-74z" />
    <glyph glyph-name="uni10C1" unicode="&#x10c1;" horiz-adv-x="674" 
d="M100 0v755h73v-304q13 26 34 45q28 26 65 39.5t77 13.5q47 0 85 -16.5t66 -47t42.5 -72t14.5 -91.5v-43h102v-65h-175v108q0 51 -19.5 87t-53.5 55t-77 19q-42 0 -78.5 -18t-59.5 -51.5t-23 -81.5v-332h-73z" />
    <glyph glyph-name="uni10C2" unicode="&#x10c2;" horiz-adv-x="624" 
d="M251 -14q-48 0 -83.5 7t-61.5 18.5t-46 24.5v76q22 -18 50.5 -31.5t63 -21t77.5 -7.5q69 0 122 29.5t83 87.5t30 144v88q0 81 -26 137t-75 85t-119 29q-50 0 -89 -17t-67 -42h-62v162h73v-85q26 19 64.5 33.5t100.5 14.5q61 0 111 -21.5t87 -63t57 -101.5t20 -138v-74
q0 -106 -38.5 -181t-108 -114t-163.5 -39z" />
    <glyph glyph-name="uni10C3" unicode="&#x10c3;" horiz-adv-x="645" 
d="M472 0v279q-13 -26 -34 -46q-29 -29 -68.5 -45t-86.5 -16q-53 0 -96.5 17t-75.5 48.5t-49 74.5t-17 94v33q0 47 11.5 87.5t25.5 69.5h76q-19 -39 -28.5 -79.5t-9.5 -79.5v-32q0 -51 20.5 -88.5t59 -57.5t89.5 -20q52 0 93 20t66 59q20 31 24 72v365h73v-755h-73z" />
    <glyph glyph-name="uni10C4" unicode="&#x10c4;" horiz-adv-x="639" 
d="M283 0v274l-224 83v398h74v-356l186 -68l187 68v356h73v-398l-223 -83v-274h-73z" />
    <glyph glyph-name="uni10C5" unicode="&#x10c5;" horiz-adv-x="766" 
d="M222 -13q-63 0 -106 25.5t-64.5 67t-21.5 88.5q0 48 20.5 89t63 66.5t107.5 25.5h116v406h178q40 0 72 -10.5t54.5 -30.5t34.5 -47.5t12 -61.5t-12 -62t-35 -47.5t-54 -29.5t-69 -10h-109v-107h148q66 0 106.5 -34t40.5 -104v-124h-74v121q0 40 -20 58t-60 18h-141v-116
q0 -46 -19.5 -87.5t-60.5 -67.5t-107 -26zM155 267q-27 -16 -39 -42.5t-12 -56.5t13 -57t39 -44t69 -17q41 0 65.5 17t35.5 44t11 57v116h-111q-44 0 -64 -12.5l-20 -12.5v0zM409 520h101q48 0 75.5 20t27.5 65q0 28 -14 46.5t-37.5 28t-52.5 9.5h-100v-169z" />
    <glyph glyph-name="uni10C7" unicode="&#x10c7;" horiz-adv-x="618" 
d="M310 -13q-73 0 -130.5 26t-91 73.5t-33.5 114.5q0 49 15.5 86.5t43.5 63t64.5 42t79.5 25.5l73 16q46 10 77.5 26.5t47.5 43.5t16 69q0 39 -19.5 67.5t-56 44.5t-86.5 16q-52 0 -88.5 -15.5t-56.5 -43.5t-20 -66q0 -10 1.5 -21.5t3.5 -24.5h-75q-1 12 -2.5 24t-1.5 24
q0 63 34 105t88.5 63t117.5 21q64 0 117 -21.5t85.5 -64.5t32.5 -107q0 -65 -26 -106.5t-69.5 -65t-97.5 -34.5l-72 -16q-38 -8 -66.5 -21t-47.5 -31.5t-28.5 -43t-9.5 -55.5q0 -45 21.5 -78t61.5 -51.5t97 -18.5q58 0 98.5 18.5t61.5 52.5t21 82q0 15 -1.5 29t-4.5 28h72
q4 -13 6 -28t2 -32q0 -69 -32.5 -117t-89.5 -73.5t-132 -25.5z" />
    <glyph glyph-name="uni10CD" unicode="&#x10cd;" horiz-adv-x="601" 
d="M559 687l-434 -619h434v-68h-515v68l438 619h-438v68h515v-68z" />
    <glyph glyph-name="uni10D0" unicode="&#x10d0;" horiz-adv-x="496" 
d="M247 -14q-55 0 -102 23.5t-76 67.5t-29 106q0 15 2.5 34.5t7.5 38.5h71q-7 -20 -9 -39t-2 -32q0 -41 17 -72t47.5 -48t69.5 -17q38 0 68.5 16.5t48 46t17.5 69.5q0 42 -17 74t-44 54l-48 41q-34 29 -48 61t-14 59q0 16 4 32h65q-2 -11 -2 -21q0 -17 6.5 -39t30.5 -42
l52 -44q19 -16 38.5 -41t33 -58.5t13.5 -77.5q0 -61 -28 -103.5t-74 -65.5t-99 -23z" />
    <glyph glyph-name="uni10D1" unicode="&#x10d1;" horiz-adv-x="545" 
d="M273 -13q-46 0 -85.5 15t-68.5 44t-44.5 72.5t-15.5 100.5v63q0 57 15.5 100t44.5 72.5t68 44.5q33 12 70 14v50q0 25 -9.5 40t-32.5 24l-28 11q-37 14 -52.5 38.5t-15.5 49.5q0 14 4 29h65q-2 -9 -2 -17q0 -13 7.5 -25t29.5 -21l33 -13q31 -12 50 -35t19 -67v-69
q17 -3 33 -9q39 -15 68 -44.5t45 -72.5t16 -100v-63q0 -57 -16 -100.5t-45 -72.5t-68 -44t-85 -15zM273 49q68 0 106 44t38 121v73q0 79 -39 122t-105 43q-67 0 -106 -43t-39 -122v-73q0 -78 39 -121.5t106 -43.5z" />
    <glyph glyph-name="uni10D2" unicode="&#x10d2;" horiz-adv-x="517" 
d="M258 -172q68 0 106 43.5t38 119.5v64q0 77 -39 120t-105 43q-67 0 -105.5 -43t-38.5 -120v-64q0 -77 38.5 -120t105.5 -43zM258 -234q-46 0 -85.5 15t-68 44t-44.5 71.5t-16 99.5v54q0 73 26 121t72.5 74.5t106.5 32.5q35 4 58.5 12.5t35.5 27.5t12 51q0 36 -26 60
t-75 24q-48 0 -73.5 -25.5t-25.5 -61.5v-19h-69v21q0 47 21.5 79.5t59.5 49.5t87 17q52 0 90 -17.5t58.5 -49.5t20.5 -74q0 -26 -7 -48.5t-24.5 -39.5t-50.5 -27q45 -14 73.5 -43t43 -71t14.5 -94v-54q0 -57 -15.5 -99.5t-44.5 -71.5t-68.5 -44t-85.5 -15z" />
    <glyph glyph-name="uni10D3" unicode="&#x10d3;" horiz-adv-x="807" 
d="M550 93q56 0 93 39t37 116v49q0 76 -37 115.5t-93 39.5q-55 0 -92 -39t-37 -116v-49q0 -77 37 -116t92 -39zM555 -222q-1 23 -16.5 49t-50 43.5t-95.5 17.5h-254v55h94q-56 19 -94.5 59t-59 98t-20.5 127v59q0 69 22.5 120.5t62.5 79.5t92 28q55 0 95 -27.5t56 -84.5
q11 38 37 62.5t59 37t67 12.5q56 0 100.5 -24.5t72 -74t27.5 -123.5v-39q0 -74 -27.5 -123.5t-72 -74t-100.5 -24.5q-54 0 -99 24.5t-72.5 74t-27.5 123.5v65q0 40 -12 70t-36.5 47t-60.5 17q-32 0 -58 -19.5t-40.5 -55.5t-14.5 -88v-73q0 -57 18 -104t50 -82.5t75 -56
t93 -23.5l60 -3q60 -4 104.5 -27.5t69 -60.5t26.5 -81h-70z" />
    <glyph glyph-name="uni10D4" unicode="&#x10d4;" horiz-adv-x="537" 
d="M256 -234q-61 0 -108.5 26t-75 73.5t-27.5 111.5q0 23 5 49t13 47h69q-10 -23 -13.5 -47.5t-3.5 -48.5q0 -29 8.5 -55.5t27 -47.5t44.5 -33.5t61 -12.5q43 0 74 19.5t48.5 54.5t17.5 81v332q0 40 -17 71t-47.5 48.5t-69.5 17.5q-40 0 -69.5 -17t-45.5 -46.5t-16 -69.5
q0 -16 2 -34.5t8 -40.5h-70q-5 19 -7.5 38.5t-2.5 34.5q0 63 27.5 107t73.5 67t100 23q56 0 102 -23.5t74 -68.5t28 -109v-324q0 -72 -28 -122t-75.5 -75.5t-106.5 -25.5z" />
    <glyph glyph-name="uni10D5" unicode="&#x10d5;" horiz-adv-x="524" 
d="M259 -234q-62 0 -111 26t-76.5 73.5t-27.5 110.5q0 18 2.5 36.5t8.5 35.5h69q-5 -18 -7.5 -36t-2.5 -36q0 -28 9 -54.5t27 -47.5t45.5 -33.5t63.5 -12.5q47 0 79.5 20t49 54t16.5 77q0 48 -19 82t-52.5 52.5t-76.5 18.5h-37v61h37q61 0 97.5 32.5t37.5 93.5v5
q0 38 -16.5 67t-45.5 45t-68 16q-40 0 -70 -16t-46 -44.5t-16 -66.5q0 -12 1.5 -26t5.5 -31h-70q-3 15 -4.5 29.5t-1.5 25.5q0 62 27.5 104.5t73.5 64.5t100 22q55 0 100.5 -22t72.5 -64.5t27 -105.5q0 -53 -21.5 -88.5t-58.5 -54.5q-20 -10 -27 -14l2 1v1q-2 0 -14 -4
q22 -6 52.5 -23t55 -58.5t24.5 -99.5q0 -69 -28.5 -117.5t-76.5 -73.5t-110 -25zM351 164q1 0 2 1h1q-2 -1 -3 -1z" />
    <glyph glyph-name="uni10D6" unicode="&#x10d6;" horiz-adv-x="552" 
d="M282 -13q-46 0 -85 15t-67.5 44.5t-44 72t-15.5 98.5v58q0 41 9 75.5t28 60.5q15 19 17 22v0v-1q2 0 19 12q-31 5 -60.5 23t-49 52t-19.5 79q0 54 23.5 91.5t63 57.5t89.5 20q51 0 91 -20t63.5 -56t23.5 -86q0 -40 -18 -72q-13 -23 -15 -27v1v0q-3 0 -17 -11
q50 -4 90.5 -29t63 -75t22.5 -119v-56q0 -56 -15.5 -98.5t-44 -72t-67 -44.5t-85.5 -15zM282 49q69 0 105.5 44.5t36.5 118.5v66q0 75 -36.5 119t-105.5 44q-68 0 -105 -44t-37 -119v-66q0 -74 37 -118.5t105 -44.5zM190 491q52 0 81 30.5t29 77.5q0 49 -30.5 78t-79.5 29
q-48 0 -78.5 -29t-30.5 -78q0 -48 30 -78t79 -30zM335 506v0v0v0zM124 433v0l1 1z" />
    <glyph glyph-name="uni10D7" unicode="&#x10d7;" horiz-adv-x="817" 
d="M262 49q59 0 96.5 40.5t37.5 124.5v73q0 84 -37.5 124.5t-96.5 40.5q-58 0 -96 -41t-38 -124v-73q0 -83 38 -124t96 -41zM262 -13q-56 0 -102.5 25.5t-73.5 77t-27 129.5v63q0 79 27 130.5t73.5 76.5t102.5 25q37 0 71 -12.5t60 -37t37 -63.5q16 57 56 85t95 28
q54 0 93.5 -28t61.5 -79.5t22 -120.5v-50q0 -50 -9.5 -94.5t-23.5 -81t-28 -60.5h-71q30 56 46.5 111.5t16.5 121.5v56q0 52 -15 88t-40.5 55.5t-58.5 19.5q-36 0 -60.5 -17.5t-36.5 -49t-12 -74.5v-92q0 -78 -27.5 -129.5t-73.5 -77t-103 -25.5z" />
    <glyph glyph-name="uni10D8" unicode="&#x10d8;" horiz-adv-x="534" 
d="M114 0q-13 27 -25.5 65t-21.5 84.5t-9 97.5v38q0 76 27.5 126.5t75 76.5t106.5 26q60 0 107 -26t74.5 -76.5t27.5 -126.5v-38q0 -51 -8.5 -97.5t-21.5 -84.5t-26 -65h-71q27 59 42 118t15 125v46q0 80 -38.5 121.5t-100.5 41.5t-100.5 -42t-38.5 -121v-46q0 -66 15 -125
t42 -118h-71z" />
    <glyph glyph-name="uni10D9" unicode="&#x10d9;" horiz-adv-x="494" 
d="M241 -234q-61 0 -108.5 26t-75 73.5t-27.5 111.5q0 23 5 49t13 47h69q-9 -23 -13 -47.5t-4 -48.5q0 -29 9 -55.5t26.5 -47.5t44 -33.5t60.5 -12.5q45 0 76 20t48 57.5t17 88.5q0 53 -16.5 92t-47.5 60.5t-74 21.5h-50v62h25q61 0 92 33t31 89q0 40 -13 79t-37 70h73
q18 -26 32.5 -64.5t14.5 -81.5q0 -63 -36 -108q-26 -31 -30 -37v1q0 1 -2 1q-7 0 -34 -9q27 -7 60 -27.5t57.5 -67t24.5 -111.5q0 -77 -27.5 -128t-75 -77t-107.5 -26zM344 209v1v0v-1zM344 209v0v0zM344 209v0v0zM345 210h-1h1z" />
    <glyph glyph-name="uni10DA" unicode="&#x10da;" horiz-adv-x="1024" 
d="M682 -222q-2 31 -21.5 58.5t-61 44.5t-108.5 17h-329v55h93q-55 18 -100 57t-71 97t-26 132v56q0 105 49.5 162t127.5 57q35 0 63.5 -13t48 -36.5t28.5 -58.5q15 51 51 79.5t86 28.5q47 0 83 -28.5t50 -79.5q10 35 30 58.5t50 36.5t67 13q50 0 88.5 -25.5t60 -73.5
t21.5 -116v-56q0 -53 -11 -103.5t-25 -87.5h-71q18 43 28 90.5t10 97.5v62q0 75 -31 112.5t-79 37.5q-33 0 -56 -15.5t-35 -45.5t-12 -73v-161h-69v161q0 43 -11.5 73t-34 45.5t-53.5 15.5q-33 0 -56 -15.5t-34.5 -45.5t-11.5 -73v-161h-69v161q0 43 -12 73t-34.5 45.5
t-53.5 15.5q-33 0 -58.5 -16t-40 -51.5t-14.5 -94.5v-61q0 -57 21.5 -105t59.5 -83.5t89.5 -56.5t110.5 -23l111 -4q68 -3 118.5 -24.5t80 -60.5t33.5 -94h-70z" />
    <glyph glyph-name="uni10DB" unicode="&#x10db;" horiz-adv-x="555" 
d="M271 -14q-62 0 -110 27t-75.5 79t-27.5 126v60q0 53 12.5 96t38 74.5t62.5 48.5t86 17q56 0 96 -26q37 -23 61 -59v142q0 39 -17.5 69.5t-48 47.5t-71.5 17q-31 0 -56 -9t-42.5 -26t-26.5 -38t-9 -45v-14h-70v12q0 55 28 95.5t74.5 63.5t101.5 23q58 0 104.5 -23
t74.5 -68t28 -109v-349q0 -74 -28 -126t-76 -79t-109 -27zM394 369q-19 37 -52 60t-75 23q-28 0 -53.5 -9.5t-45 -30.5t-30.5 -52.5t-11 -76.5v-68q0 -76 37.5 -121.5t106.5 -45.5q67 0 105 45.5t38 121.5v76q0 42 -20 78z" />
    <glyph glyph-name="uni10DC" unicode="&#x10dc;" horiz-adv-x="555" 
d="M283 -14q-60 0 -108 27t-76 79t-28 126v365q0 54 22 92.5t62.5 59t93.5 20.5h206v-62h-206q-53 0 -80.5 -26t-27.5 -79v-160q23 37 60 60q41 26 97 26q48 0 85.5 -17t62.5 -48.5t38 -74.5t13 -96v-60q0 -74 -27.5 -126t-76 -79t-110.5 -27zM179 94q38 -46 105 -46
q69 0 106 45.5t37 121.5v68q0 45 -11 76.5t-30 52.5t-44.5 30.5t-54.5 9.5q-41 0 -74 -23t-52.5 -59.5t-19.5 -78.5v-76q0 -76 38 -121z" />
    <glyph glyph-name="uni10DD" unicode="&#x10dd;" horiz-adv-x="772" 
d="M120 0q-13 24 -27.5 60.5t-24 81t-9.5 94.5v49q0 70 22 121.5t63 79.5t96 28q56 0 94 -28.5t52 -79.5q14 51 52 79.5t94 28.5q55 0 95.5 -28t63 -79.5t22.5 -120.5v-50q0 -50 -9.5 -94.5t-23.5 -81t-28 -60.5h-71q30 56 46.5 111.5t16.5 121.5v56q0 52 -15.5 88
t-42.5 55.5t-63 19.5q-33 0 -56 -17.5t-34.5 -49t-11.5 -74.5v-154h-70v154q0 43 -11.5 74.5t-35 49t-56.5 17.5q-36 0 -63 -19.5t-41.5 -55.5t-14.5 -88v-56q0 -67 16.5 -122.5t44.5 -110.5h-70z" />
    <glyph glyph-name="uni10DE" unicode="&#x10de;" horiz-adv-x="526" 
d="M258 -14q-62 0 -111 26.5t-76.5 74t-27.5 109.5q0 18 2.5 37t8.5 36h69q-5 -18 -7.5 -36t-2.5 -37q0 -28 9 -54t27 -47t45.5 -34t62.5 -13q46 0 78.5 20.5t49.5 54.5t17 77q0 49 -18.5 83t-50.5 51.5t-73 17.5h-44v62h51q35 0 61 8t40 27t14 50q0 32 -16.5 55.5
t-41.5 40.5l-42 29q-20 14 -38.5 32t-25.5 37.5t-7 37.5q0 11 2 24h65q-1 -6 -1 -11q0 -24 15.5 -43t40.5 -37l45 -30q30 -21 52 -53.5t22 -80.5q0 -37 -17 -63t-46.5 -39l-29.5 -13v0h0.5t0.5 1v0q-4 0 -21 -3q29 -7 59.5 -27.5t52 -60t21.5 -95.5q0 -69 -28.5 -117
t-77 -72.5t-108.5 -24.5z" />
    <glyph glyph-name="uni10DF" unicode="&#x10df;" horiz-adv-x="548" 
d="M138 131q-19 0 -43 4t-44 11v55q14 -5 34.5 -9.5t39.5 -4.5q43 0 68 20.5t25 59.5q0 40 -28.5 63t-77.5 23h-35v57l324 91h70v-513q0 -74 -28.5 -123t-76 -74t-106.5 -25q-60 0 -107.5 24t-74.5 68t-27 103q0 16 2 29t6 25h68q-3 -12 -5 -25t-2 -24q0 -28 9.5 -52.5
t26.5 -44t43 -30.5t60 -11q45 0 76.5 19.5t48.5 54.5t17 81v460l-227 -63q24 -4 49 -16.5t42 -39t17 -63.5q0 -55 -36 -92.5t-108 -37.5z" />
    <glyph glyph-name="uni10E0" unicode="&#x10e0;" horiz-adv-x="782" 
d="M130 0q-20 36 -40.5 102.5t-20.5 163.5v78q0 88 15.5 156.5t47 117.5t81 79.5t116.5 42.5q56 9 101 14.5t77 8.5t48 4v-68q-16 -1 -41 -3t-55 -5t-61 -6.5t-57 -7.5q-66 -11 -110 -41t-68 -79.5t-32 -119.5q22 40 55 58.5t72 18.5q51 0 87.5 -28.5t50.5 -79.5
q14 51 51 79.5t93 28.5q54 0 95 -28t64.5 -79.5t23.5 -120.5v-50q0 -50 -9.5 -94.5t-23.5 -81t-28 -60.5h-71q30 56 46.5 111.5t16.5 121.5v56q0 52 -15.5 88t-42.5 55.5t-63 19.5q-33 0 -56 -17.5t-34.5 -49t-11.5 -74.5v-154h-70v154q0 43 -11.5 74.5t-35 49t-56.5 17.5
q-36 0 -63 -19t-41.5 -54t-14.5 -84v-56q0 -72 16.5 -128t44.5 -111h-70z" />
    <glyph glyph-name="uni10E1" unicode="&#x10e1;" horiz-adv-x="549" 
d="M284 -14q-59 0 -107.5 27t-77 78.5t-28.5 125.5v538h70v-540q0 -76 39 -121.5t104 -45.5q45 0 77 20t49 54t17 73q0 43 -14.5 74.5t-34.5 53.5l-22 24q-19 22 -33 46t-17 43.5t-3 31.5q0 16 3 33h66q-2 -12 -2 -25q0 -15 4.5 -36t25.5 -44l23 -26q16 -17 33 -41t29 -57
t12 -77q0 -61 -28 -108.5t-76 -74t-109 -26.5z" />
    <glyph glyph-name="uni10E2" unicode="&#x10e2;" horiz-adv-x="693" 
d="M347 -234q-82 0 -146.5 34.5t-101.5 105.5t-37 178v93q0 107 34.5 179.5t99.5 108.5q52 30 119 35q-1 2 -1 3q-2 20 -2 38v65h69v-65q0 -19 -2 -38v-3q68 -5 120 -35q64 -38 98.5 -110.5t34.5 -177.5v-93q0 -107 -37.5 -178t-102 -105.5t-145.5 -34.5zM312 87v265
q0 29 2 57q1 16 3 32q-52 -5 -89 -29q-48 -30 -72 -88t-24 -141v-106q0 -82 25.5 -137.5t74 -83.5t115.5 -28q66 0 114 27.5t74.5 83.5t26.5 138v106q0 85 -25 142.5t-73 87.5q-37 23 -87 28q0 -7 1 -14q1 -19 2 -37.5t1 -38.5v-264h-69z" />
    <glyph glyph-name="uni10E3" unicode="&#x10e3;" horiz-adv-x="544" 
d="M261 -234q-61 0 -109 26t-75 73.5t-27 111.5q0 23 4.5 49t13.5 47h68q-9 -23 -12.5 -47.5t-3.5 -48.5q0 -29 8.5 -55.5t26.5 -47.5t44.5 -33.5t60.5 -12.5q44 0 75 19.5t48 54.5t17 81v382q0 35 -19 61t-60 26q-28 0 -45 -11.5t-24.5 -31t-7.5 -43.5v-124h-70v115
q0 25 -8 44.5t-24.5 31.5t-43.5 12h-54v64h54q35 0 65 -13.5t46 -55.5q17 42 49.5 58t73.5 16q60 0 99 -39.5t39 -109.5v-376q0 -72 -27.5 -122t-75 -75.5t-106.5 -25.5z" />
    <glyph glyph-name="uni10E4" unicode="&#x10e4;" horiz-adv-x="773" 
d="M243 140q53 0 89.5 35t36.5 101v43q0 66 -36.5 101t-89.5 35t-89.5 -35.5t-36.5 -100.5v-43q0 -65 36.5 -100.5t89.5 -35.5zM454 -234q-46 0 -89.5 12t-79 35.5t-56.5 58.5t-21 82q0 7 1.5 16t2.5 14h68q-1 -5 -1.5 -13t-0.5 -15q0 -41 24.5 -69.5t65 -43.5t86.5 -15
q47 0 87.5 16t64.5 49.5t24 83.5q0 37 -13 66t-39 46.5t-66 17.5h-16v61h23q59 0 94 34.5t35 107.5q0 65 -29.5 103.5t-80.5 38.5q-32 0 -55.5 -14.5t-35 -41.5t-11.5 -63v-53q0 -66 -26.5 -110.5t-70.5 -66.5t-96 -22t-96.5 22.5t-71 67t-26.5 110.5v33q0 65 26.5 110
t71 67.5t96.5 22.5q32 0 64 -11.5t57 -34t36 -58.5q16 54 55.5 79t92.5 25t91 -26t58.5 -70.5t20.5 -100.5q0 -86 -38.5 -127.5l-38.5 -41.5v0v0.5v0.5q0 1 -1 1q-6 0 -44 -12q45 -15 74.5 -54t29.5 -107q0 -52 -20.5 -91.5t-56 -66t-79.5 -40t-90 -13.5z" />
    <glyph glyph-name="uni10E5" unicode="&#x10e5;" horiz-adv-x="542" 
d="M71 244q-5 19 -7.5 38.5t-2.5 34.5q0 63 25 107t67 67t92 23q56 0 95 -26q34 -22 56 -56v323h70v-766q0 -72 -28 -122t-75.5 -75.5t-106.5 -25.5q-61 0 -108.5 26t-75 73.5t-27.5 111.5q0 23 5 49t13 47h69q-10 -23 -13.5 -47.5t-3.5 -48.5q0 -29 8.5 -55.5t27 -47.5
t44.5 -33.5t61 -12.5q43 0 74 19.5t48.5 54.5t17.5 81v309q-1 42 -18 77q-17 37 -48 60t-73 23q-39 0 -67.5 -17t-43.5 -46.5t-15 -69.5q0 -16 2 -34.5t8 -40.5h-70z" />
    <glyph glyph-name="uni10E6" unicode="&#x10e6;" horiz-adv-x="773" 
d="M528 -222q-2 18 -9 39t-24 39.5t-47.5 30t-76.5 11.5h-232v55h93q-55 19 -94 58t-59.5 94.5t-20.5 121.5v58q0 70 22.5 121.5t64 79.5t96.5 28q56 0 93 -28.5t51 -79.5q15 51 53 79.5t94 28.5q54 0 94.5 -28t63 -79.5t22.5 -120.5v-50q0 -52 -10.5 -99.5t-25.5 -84.5h-71
q19 43 28.5 87t9.5 94v56q0 52 -15 88t-42 55.5t-63 19.5q-33 0 -56 -17.5t-35 -49t-12 -74.5v-154h-69v154q0 43 -12 74.5t-35 49t-57 17.5q-36 0 -63 -18.5t-41.5 -56.5t-14.5 -97v-64q0 -53 17.5 -98.5t49 -80t73 -54.5t89.5 -23l45 -3q62 -3 105 -28t66 -64t25 -87h-70z
" />
    <glyph glyph-name="uni10E7" unicode="&#x10e7;" horiz-adv-x="550" 
d="M252 97q-51 0 -95 23.5t-70.5 69.5t-26.5 115v24q0 46 12 89.5t33 82.5h68q-19 -38 -31 -80t-12 -89v-28q0 -46 17 -78.5t46.5 -50t66.5 -17.5q43 0 76 23t51 60t18 77v183h70v-513q0 -74 -28.5 -123t-76.5 -74t-107 -25t-106.5 24t-75 68t-27.5 103q0 16 2 29t6 25h69
q-4 -12 -5.5 -25t-1.5 -24q0 -28 9 -52.5t26.5 -44t43.5 -30.5t60 -11q45 0 76.5 19.5t48.5 54.5t17 81v197q-23 -35 -58 -58q-40 -25 -95 -25z" />
    <glyph glyph-name="uni10E8" unicode="&#x10e8;" horiz-adv-x="555" 
d="M271 -14q-62 0 -110 27t-75.5 79t-27.5 126v60q0 53 12.5 96t38 74.5t62.5 48.5t86 17q55 0 95 -25q38 -23 62 -61v180q0 41 -18.5 69t-61.5 28q-29 0 -45.5 -13.5t-24 -34t-7.5 -43.5v-32h-70v32q0 24 -8.5 45t-26 33.5t-44.5 12.5q-16 0 -29 -2.5t-21 -6.5v64
q10 3 23 5t30 2q36 0 65.5 -16t45.5 -57q17 41 48.5 57t74.5 16q64 0 101.5 -41.5t37.5 -119.5v-388q0 -74 -28 -126t-76 -79t-109 -27zM394 369q-19 37 -52 60t-75 23q-28 0 -53.5 -9.5t-45 -30.5t-30.5 -52.5t-11 -76.5v-68q0 -76 37.5 -121.5t106.5 -45.5q67 0 105 45.5
t38 121.5v76q0 42 -20 78z" />
    <glyph glyph-name="uni10E9" unicode="&#x10e9;" horiz-adv-x="553" 
d="M77 0v597q0 55 24.5 92.5t65 57.5t86.5 20q49 0 88 -19t61.5 -53t22.5 -80q0 -33 -14.5 -60t-39.5 -47q-18 -14 -39 -24q32 -4 59 -17q32 -15 55 -42t36 -67.5t13 -92.5v-36q0 -46 -8.5 -89t-21.5 -78t-26 -62h-71q27 59 42 113.5t15 114.5v39q0 47 -12.5 79t-32.5 50.5
t-44.5 27t-49.5 8.5q-40 0 -71.5 -23t-50 -59.5t-18.5 -78.5v-271h-69zM151 416q30 43 87 70q42 19 67.5 38t37.5 40.5t12 47.5q0 24 -11.5 45.5t-34 34.5t-56.5 13q-48 0 -77.5 -30t-29.5 -81v-185q3 4 5 7z" />
    <glyph glyph-name="uni10EA" unicode="&#x10ea;" horiz-adv-x="644" 
d="M355 -234q-54 0 -105.5 18.5t-93.5 59.5t-67 107.5t-25 164.5v53q0 75 12.5 136.5t32 110.5t42.5 85h71q-37 -63 -62.5 -144.5t-25.5 -182.5v-58q0 -102 30 -165.5t80.5 -93t110.5 -29.5q50 0 89 18.5t61 51t22 74.5q0 41 -18.5 73t-52 50t-77.5 18h-46v61h61
q37 0 64.5 8.5t43 27.5t15.5 51t-15.5 55.5t-37.5 41.5l-20 17q-31 26 -46 50.5t-15 50.5q0 12 2 25h66q-1 -7 -1 -13q0 -20 12 -37.5t34 -35.5l23 -20q27 -21 47.5 -53t20.5 -79q0 -38 -17 -64.5t-46 -40l-29 -13.5v0l0.5 0.5l0.5 0.5h-1q-4 0 -21 -2q29 -8 57 -28
t47 -57.5t19 -86.5q0 -66 -33.5 -112t-89 -70t-119.5 -24z" />
    <glyph glyph-name="uni10EB" unicode="&#x10eb;" horiz-adv-x="555" 
d="M271 -14q-62 0 -110 27t-75.5 79t-27.5 126v60q0 53 12.5 96t38 74.5t62.5 48.5t86 17q56 0 96 -26q37 -23 61 -59v326h70v-537q0 -74 -28 -126t-76 -79t-109 -27zM394 369q-19 37 -52 60t-75 23q-28 0 -53.5 -9.5t-45 -30.5t-30.5 -52.5t-11 -76.5v-68
q0 -76 37.5 -121.5t106.5 -45.5q67 0 105 45.5t38 121.5v76q0 42 -20 78z" />
    <glyph glyph-name="uni10EC" unicode="&#x10ec;" horiz-adv-x="555" 
d="M283 -14q-60 0 -108 27t-76 79t-28 126v388q0 78 37.5 119.5t101.5 41.5q44 0 75 -16t48 -57q16 41 45.5 57t65.5 16q17 0 30 -2t23 -5v-64q-8 4 -20.5 6.5t-29.5 2.5q-26 0 -44 -12.5t-27 -33.5t-9 -45v-32h-70v32q0 23 -7 43.5t-23.5 34t-45.5 13.5q-44 0 -62 -28
t-18 -69v-180q24 38 62 61q40 25 95 25q48 0 85.5 -17t62.5 -48.5t38 -74.5t13 -96v-60q0 -74 -27.5 -126t-76 -79t-110.5 -27zM179 94q38 -46 105 -46q69 0 106 45.5t37 121.5v68q0 45 -11 76.5t-30 52.5t-44.5 30.5t-54.5 9.5q-41 0 -74 -23t-52.5 -59.5t-19.5 -78.5v-76
q0 -76 38 -121z" />
    <glyph glyph-name="uni10ED" unicode="&#x10ed;" horiz-adv-x="597" 
d="M183 427q-26 -12 -39.5 -34t-13.5 -52t15.5 -52.5t43 -34.5t63.5 -12q44 0 76 17t49.5 48.5t17.5 72.5v59h-149q-37 0 -63 -12zM244 180q-49 0 -91.5 19t-67 54.5t-24.5 87.5q0 50 22.5 85.5t63.5 55t92 19.5h156v254h70v-254h115v-62h-115v-450q0 -72 -27.5 -122
t-75 -75.5t-106.5 -25.5q-61 0 -109 26t-75 73.5t-27 111.5q0 23 4.5 49t13.5 47h68q-9 -23 -12.5 -47.5t-3.5 -48.5q0 -29 8.5 -55.5t26.5 -47.5t44.5 -33.5t60.5 -12.5q44 0 75 19.5t48 54.5t17 81v272q-21 -31 -55 -51q-40 -24 -96 -24z" />
    <glyph glyph-name="uni10EE" unicode="&#x10ee;" horiz-adv-x="555" 
d="M283 -14q-60 0 -108 27t-76 79t-28 126v537h70v-327q23 37 60 60q41 26 97 26q48 0 85.5 -17t62.5 -48.5t38 -74.5t13 -96v-60q0 -74 -27.5 -126t-76 -79t-110.5 -27zM179 94q38 -46 105 -46q69 0 106 45.5t37 121.5v68q0 45 -11 76.5t-30 52.5t-44.5 30.5t-54.5 9.5
q-41 0 -74 -23t-52.5 -59.5t-19.5 -78.5v-76q0 -76 38 -121z" />
    <glyph glyph-name="uni10EF" unicode="&#x10ef;" horiz-adv-x="526" 
d="M54 327v60h170v114h69v-114h176v-60h-176v-123q42 -3 82.5 -26.5t68.5 -72t28 -115.5q0 -72 -27.5 -122t-75.5 -76t-110 -26q-59 0 -106 26t-74.5 73.5t-27.5 111.5q0 23 5 49t13 47h69q-9 -23 -13 -47.5t-4 -48.5q0 -29 9 -55.5t26.5 -47.5t43 -33.5t59.5 -12.5
q46 0 77.5 20t48.5 55.5t17 83.5q0 46 -16 82.5t-48 57.5t-79 21h-35v179h-170z" />
    <glyph glyph-name="uni10F0" unicode="&#x10f0;" horiz-adv-x="510" 
d="M247 -14q-56 0 -104.5 19.5t-77.5 58.5t-29 96q0 9 1 19t3 19h69l-2 -16t-1 -16q0 -36 16.5 -62t48 -41t75.5 -15q65 0 101.5 28.5t36.5 73.5q0 47 -32.5 74t-91.5 27h-35v61h64q39 0 62.5 18t23.5 51q0 32 -24 50.5t-62 18.5h-64v61h65q35 0 54 12t19 38q0 22 -14 39.5
t-45 32.5l-39 21q-32 16 -47 40.5t-15 53.5v7h66v-4q0 -21 17.5 -36t40.5 -29l40 -23q29 -17 47.5 -40t18.5 -57q0 -26 -13 -44.5t-41 -29.5q-11 -4 -24 -8q18 -3 32 -10q30 -15 44 -40t14 -53q0 -30 -14 -54.5t-42 -39.5l-22 -11l1 1h-2q-4 0 -17 -2q23 -4 48 -17.5
t41 -42.5t16 -65q0 -54 -28 -91t-75 -55t-104 -18z" />
    <glyph glyph-name="uni10F1" unicode="&#x10f1;" horiz-adv-x="648" 
d="M367 -14q-60 0 -115 20t-98.5 63t-68.5 113t-25 171v54q0 78 11.5 141t31.5 114.5t43 92.5h72q-40 -72 -64.5 -155t-24.5 -189v-58q0 -106 31 -173.5t85 -99.5t122 -32q74 0 115 27t41 75q0 47 -32.5 74t-92.5 27h-49v61h78q39 0 62.5 18t23.5 51q0 32 -23.5 50.5
t-61.5 18.5h-79v61h76q35 0 55.5 14t20.5 40q0 21 -12 40t-36 33l-27 15q-31 18 -45.5 43t-14.5 52v7h66v-5q0 -20 16 -34.5t39 -29.5l25 -16q29 -18 44 -43.5t15 -57.5q0 -31 -21 -54t-66 -31q52 -6 75.5 -36t23.5 -67q0 -39 -25 -67t-74 -37q32 -4 56.5 -22t38.5 -45.5
t14 -59.5q0 -40 -17.5 -70.5t-48.5 -51t-72 -31.5t-88 -11z" />
    <glyph glyph-name="uni10F2" unicode="&#x10f2;" horiz-adv-x="534" 
d="M267 99q47 23 79 55.5t48 71t16 79.5q0 67 -39 107t-104 40t-104 -40t-39 -107q0 -41 16 -79.5t48 -71t79 -55.5zM71 0v58q35 0 59 3t45 8q14 4 18 5v0l13 4q-44 21 -79 53t-54 77.5t-19 94.5q0 67 28 114t76.5 72t108.5 25q61 0 109 -25t76 -72t28 -114q0 -49 -19 -94.5
t-92 -113.5v0v1q-3 0 -41 -18q17 -5 35 -10t42.5 -7.5t57.5 -2.5v-58q-44 0 -77.5 3.5t-61.5 12.5t-57 24q-29 -16 -57.5 -24.5t-62 -12t-76.5 -3.5z" />
    <glyph glyph-name="uni10F3" unicode="&#x10f3;" horiz-adv-x="508" 
d="M257 -234q-62 0 -111 26t-76.5 73.5t-27.5 110.5q0 18 3 36.5t8 35.5h70q-6 -18 -8.5 -36t-2.5 -36q0 -28 9 -54.5t27 -47.5t45.5 -33.5t63.5 -12.5q47 0 79.5 20t49 54.5t16.5 79.5q0 42 -16.5 76t-48.5 54t-79 20h-72v57l177 250h-301v62h388v-51l-184 -256
q64 -1 110 -28q47 -28 71.5 -75.5t24.5 -106.5q0 -69 -28.5 -118.5t-76.5 -74.5t-110 -25z" />
    <glyph glyph-name="uni10F4" unicode="&#x10f4;" horiz-adv-x="502" 
d="M239 -234q-62 0 -111 26t-76.5 73.5t-27.5 110.5q0 18 3 36.5t8 35.5h69q-5 -18 -7.5 -36t-2.5 -36q0 -28 9 -54.5t27 -47.5t45.5 -33.5t63.5 -12.5q46 0 78.5 20t49 54t16.5 77q0 48 -19 82t-52.5 52.5t-76.5 18.5h-38v61h37q41 0 72 11t48 35t17 61q0 50 -29 79.5
t-72 45.5l-53 21q-34 13 -66.5 33t-53.5 53t-21 85q0 48 25.5 81.5t65.5 51t84 17.5q32 0 56 -4t46 -11t44 -19v-71q-44 26 -78.5 34t-64.5 8q-45 0 -78 -23t-33 -67q0 -31 15 -51.5t39 -34t49 -23.5l59 -22q36 -14 66.5 -35t49 -55t18.5 -87q0 -43 -15 -71.5t-42 -45.5
t-62 -26q37 -10 67 -34t48 -60.5t18 -86.5q0 -69 -28.5 -117.5t-76.5 -73.5t-109 -25z" />
    <glyph glyph-name="uni10F5" unicode="&#x10f5;" horiz-adv-x="620" 
d="M243 -14q-57 0 -103 22t-72 60.5t-26 89.5q0 50 24.5 87.5t67.5 58.5t101 21h155v116h-154q-52 0 -93.5 19.5t-66 56t-24.5 87.5q0 50 27 87.5t71.5 57.5t93.5 20q60 0 109 -21.5t78 -66.5t29 -116v-62h110v-62h-110v-116h110v-62h-110v-71q0 -53 -18 -92t-48.5 -64
t-69 -37.5t-81.5 -12.5zM169 249q-28 -14 -42.5 -37.5t-14.5 -53.5q0 -29 15.5 -54t45.5 -40.5t70 -15.5q47 0 80 17t50 49.5t17 78.5v70h-148q-44 0 -73 -14zM390 503v61q0 70 -38 106.5t-108 36.5q-36 0 -63.5 -13.5t-43 -37t-15.5 -52.5q0 -31 14 -53.5t41.5 -35
t65.5 -12.5h147z" />
    <glyph glyph-name="uni10F6" unicode="&#x10f6;" horiz-adv-x="840" 
d="M361 402q-21 26 -49 38t-54 12q-38 0 -63 -14t-39.5 -38.5t-21 -56.5t-6.5 -68v-50q0 -61 15 -100t43.5 -58t70.5 -19q26 0 54.5 13t50 39.5t23.5 67.5v162q-4 45 -24 72zM479 101q21 -27 50 -40t55 -13q42 0 70.5 19t43 58t14.5 100v50q0 36 -6 68t-21 56.5t-40 38.5
t-63 14q-25 0 -53.5 -12t-49.5 -38.5t-24 -71.5v-162q3 -41 24 -67zM248 -14q-65 0 -107.5 30t-62.5 84.5t-20 129.5v40q0 71 19.5 126t60.5 86.5t105 31.5q46 0 89 -26q30 -18 53 -51v155q0 41 9 73.5t28.5 55t50 34.5t72.5 12q22 0 39 -2.5t29 -6.5v-62q-10 4 -28.5 6.5
t-34.5 2.5q-35 0 -56 -12.5t-30 -38.5t-9 -66v-152q23 34 54 52q43 26 89 26q63 0 104 -31.5t60.5 -86.5t19.5 -126v-40q0 -75 -20 -129.5t-61.5 -84.5t-108.5 -30q-46 0 -87 26q-31 19 -50 50v-120q0 -41 -9.5 -74t-28.5 -55.5t-49.5 -34.5t-72.5 -12q-23 0 -39.5 2.5
t-29.5 6.5v62q11 -4 29.5 -6t34.5 -2q35 0 56 12.5t30 38t9 65.5v115q-19 -29 -50 -48q-41 -26 -87 -26z" />
    <glyph glyph-name="uni10F7" unicode="&#x10f7;" horiz-adv-x="511" 
d="M256 -234q-46 0 -85.5 15.5t-68 45t-45 71.5t-16.5 96q0 60 19.5 104.5t56.5 76t88 50.5l57 22q30 12 51 26t31.5 35t10.5 52q0 42 -26 67.5t-75 25.5q-48 0 -74 -26.5t-26 -62.5v-19h-68v21q0 44 21.5 77.5t59.5 52t87 18.5t87 -18.5t60 -52.5t22 -82v-4q0 -50 -19 -82
t-49.5 -51.5t-65.5 -32.5l-55 -22q-39 -15 -66.5 -39t-41.5 -58.5t-14 -81.5q0 -75 39 -118.5t105 -43.5q68 0 106 41.5t38 109.5q0 29 -3.5 54t-13.5 47h69q9 -21 13.5 -47.5t4.5 -53.5q0 -50 -16 -89.5t-44.5 -67t-68 -42t-85.5 -14.5z" />
    <glyph glyph-name="uni10F8" unicode="&#x10f8;" horiz-adv-x="550" 
d="M298.031 97q50.9932 0 94.9883 23.5q43.9941 23.5 70.4912 69.5t26.4971 115v24q0 46 -11.999 89.5t-32.9961 82.5h-67.9912q18.9971 -38 30.9961 -80q11.998 -42 11.998 -89v-28q0 -46 -16.998 -78.5t-46.4941 -50t-66.4922 -17.5q-42.9941 0 -75.9902 23t-50.9941 60
q-17.9971 37 -17.9971 77v183h-69.9922v-513q0 -74 28.4971 -123q28.4961 -49 76.4902 -74t106.987 -25t106.487 24t74.9902 68q27.4971 44 27.4971 103q0 16 -2 29t-5.99902 25h-68.9922q4 -12 5.5 -25t1.5 -24q0 -28 -8.99902 -52.5t-26.4971 -44t-43.4951 -30.5
q-25.9961 -11 -59.9922 -11q-44.9951 0 -76.4912 19.5t-48.4941 54.5q-16.9971 35 -16.9971 81v197q22.9971 -35 57.9922 -58q39.9951 -25 94.9893 -25z" />
    <glyph glyph-name="uni10F9" unicode="&#x10f9;" horiz-adv-x="543" 
d="M272.031 451.979q-67.9912 0 -105.986 -43.4941q-37.9961 -43.4951 -37.9961 -119.485v-63.9922q0 -76.9912 38.9951 -119.985q38.9951 -42.9951 104.987 -42.9951q66.9922 0 105.487 42.9951q38.4951 42.9941 38.4951 119.985v63.9922q0 76.9902 -38.4951 119.985
q-38.4951 42.9941 -105.487 42.9941zM272.031 513.972q45.9941 0 85.4902 -14.998q39.4951 -14.999 67.9912 -43.9951q28.4971 -28.9961 44.4951 -71.4912t15.998 -99.4873v-53.9941q0 -72.9912 -25.9971 -120.985t-72.4912 -74.4902q-46.4941 -26.4971 -106.487 -32.4961
q-34.9951 -4 -58.4932 -12.499q-23.4971 -8.49902 -35.4951 -27.4961q-11.999 -18.998 -11.999 -50.9941q0 -35.9951 25.9971 -59.9922t74.9912 -23.9971q47.9941 0 73.4912 25.4961q25.4961 25.4971 25.4961 61.4932v18.9971h68.9922v-20.9971q0 -46.9941 -21.498 -79.4902
q-21.4971 -32.4961 -59.4922 -49.4941t-86.9893 -16.998q-51.9941 0 -89.9893 17.498t-58.4932 49.4941q-20.4971 31.9961 -20.4971 73.9912q0 25.9961 6.99902 48.4941q6.99902 22.4971 24.4971 39.4951t50.4941 26.9961q-44.9951 13.998 -73.4912 42.9951
q-28.4971 28.9961 -42.9951 70.9912t-14.498 93.9883v53.9941q0 56.9922 15.498 99.4873t44.4951 71.4912q28.9961 28.9961 68.4912 43.9951q39.4951 14.998 85.4893 14.998z" />
    <glyph glyph-name="uni10FA" unicode="&#x10fa;" horiz-adv-x="456" 
d="M105 -63v58l100 38q-39 6 -73.5 30.5t-54.5 71t-20 104.5v61q0 59 25 106.5t74 76t124 28.5q28 0 60.5 -5.5t62.5 -19.5v-70q-35 20 -68 26.5t-56 6.5q-32 0 -59.5 -8.5t-48.5 -27t-33 -47t-12 -68.5v-63q0 -65 29 -106t61.5 -48.5t49.5 -7.5q36 0 79 16l58 22v-63z" />
    <glyph glyph-name="uni10FB" unicode="&#x10fb;" horiz-adv-x="470" 
d="M84 109h74v-109h-74v109zM84 501h74v-109h-74v109zM329 304h74v-109h-74v109z" />
    <glyph glyph-name="uni10FC" unicode="&#x10fc;" horiz-adv-x="346" 
d="M176 398q-44 0 -73.5 28t-29.5 82v171q0 37 25 59.5t62 22.5h103v-35h-101q-22 0 -34.5 -11.5t-12.5 -33.5v-71q5 7 11 13q22 25 61 25q23 0 40.5 -8.5t29.5 -23.5t18 -35.5t6 -44.5v-28q0 -53 -30 -81.5t-75 -28.5zM132 453q16 -20 44 -20q30 0 46.5 20.5t16.5 52.5v33
q0 25 -8.5 41t-22 24t-31.5 8q-17 0 -31.5 -10t-22.5 -26q-8 -15 -8 -33v-37q0 -32 17 -53z" />
    <glyph glyph-name="uni10FD" unicode="&#x10fd;" horiz-adv-x="527" 
d="M266 -13q-47 0 -87.5 14t-69.5 40.5t-45.5 66t-16.5 90.5q0 18 2.5 36.5t7.5 37.5h68q-4 -18 -6 -35.5t-2 -32.5q0 -72 39 -113.5t110 -41.5q65 0 105.5 37t40.5 106q0 51 -19.5 82.5t-47.5 49.5t-55 28l-71 26q-40 15 -75.5 39t-57.5 63t-22 97q0 66 28.5 107.5t74 62
t95.5 20.5q51 0 97.5 -20t76 -61.5t29.5 -106.5q0 -12 -0.5 -23.5t-2.5 -23.5h-70q2 14 3 24.5t1 21.5q0 65 -38.5 96t-93.5 31q-54 0 -92 -31.5t-38 -92.5q0 -56 32 -90.5t82 -51.5l66 -23q22 -7 51 -21.5t55.5 -39t44 -63.5t17.5 -95q0 -53 -17 -92.5t-46.5 -65.5
t-68.5 -39t-84 -13z" />
    <glyph glyph-name="uni10FE" unicode="&#x10fe;" horiz-adv-x="534" 
d="M267 401.012q47 -22.9971 79 -55.4932t48 -70.9912t16 -79.4902q0 -66.9922 -39 -106.986q-39 -39.9961 -104 -39.9961t-104 39.9961q-39 39.9941 -39 106.986q0 40.9951 16 79.4902t48 70.9912t79 55.4932zM71 500v-57.9932q35 0 59 -2.99902q24 -3 45 -7.99902
q14 -4 18 -5v0l13 -3.99902q-44 -20.998 -79 -52.9941t-54 -77.4902t-19 -94.4883q0 -66.9922 28 -113.986t76.5 -71.9912t108.5 -24.9971q61 0 109 24.9971t76 71.9912t28 113.986q0 48.9941 -19 94.4883t-92 113.486v0v-1q-3 0 -41 17.998q17 4.99902 35 9.99805
q18 5 42.5 7.5q24.5 2.49902 57.5 2.49902v57.9932q-44 0 -77.5 -3.5q-33.5 -3.49902 -61.5 -12.498t-57 -23.9971q-29 15.998 -57.5 24.4971t-62 11.998q-33.5 3.5 -76.5 3.5z" />
    <glyph glyph-name="uni10FF" unicode="&#x10ff;" horiz-adv-x="544" 
d="M272 49q68 0 106 44t38 121v73q0 79 -39 122t-105 43q-67 0 -105.5 -43t-38.5 -122v-73q0 -78 38.5 -121.5t105.5 -43.5zM272 -13q-46 0 -85.5 15t-68 44t-44.5 72.5t-16 100.5v63q0 57 16 100t44.5 72.5t68 44.5t85.5 15t85.5 -15t68.5 -44.5t44.5 -72.5t15.5 -100v-63
q0 -57 -15.5 -100.5t-44.5 -72.5t-68.5 -44t-85.5 -15z" />
    <glyph glyph-name="uni1C90" unicode="&#x1c90;" horiz-adv-x="562" 
d="M277 -14q-73 0 -126 30.5t-82 86.5t-29 133q0 33 6 67t17 65h73q-10 -30 -15.5 -65t-5.5 -64q0 -55 16.5 -97.5t52 -65.5t92.5 -23q55 0 90.5 22t53.5 63.5t18 97.5q0 68 -22.5 120.5t-53.5 91.5l-60 74q-27 34 -44 71.5t-21.5 67.5t-4.5 49q0 22 4 45h72q-3 -19 -3 -37
q0 -35 13 -76.5t46 -83.5l61 -73q34 -43 61 -102.5t27 -143.5q0 -81 -30 -137.5t-83 -86t-123 -29.5z" />
    <glyph glyph-name="uni1C91" unicode="&#x1c91;" horiz-adv-x="589" 
d="M294 -14q-69 0 -123.5 28t-86.5 81.5t-32 127.5v51q0 76 32 128.5t86 80.5q46 24 103 27v53q0 23 -9 38.5t-32 24.5l-28 11q-40 16 -57 41.5t-17 51.5q0 12 3 25h73q-1 -8 -1 -15q0 -13 6 -25t29 -21l34 -14q32 -13 52 -35.5t20 -73.5v-64q23 -4 44 -12q44 -16 77 -46
t51 -74.5t18 -100.5v-51q0 -56 -18 -100t-51 -74.5t-77 -46.5t-96 -16zM294 53q53 0 90.5 21.5t57 60t19.5 89.5v49q0 53 -19.5 91t-57 59.5t-90.5 21.5t-90.5 -21.5t-57 -60t-19.5 -90.5v-49q0 -51 19.5 -89.5t57 -60t90.5 -21.5z" />
    <glyph glyph-name="uni1C92" unicode="&#x1c92;" horiz-adv-x="598" 
d="M297 53q53 0 90.5 21.5t57 60t19.5 89.5v49q0 51 -19.5 89.5t-57 59.5t-90.5 21q-52 0 -90 -21t-57.5 -59.5t-19.5 -89.5v-49q0 -51 19.5 -89.5t57.5 -60t90 -21.5zM297 -14q-69 0 -123.5 28t-86 81.5t-31.5 127.5v51q0 72 29 121.5t80.5 78t117.5 36.5q23 3 45.5 7.5
t41 14.5t29.5 29t11 50q0 38 -29.5 65t-87.5 27t-88.5 -28t-30.5 -68v-15h-73v19q0 45 24.5 80.5t67.5 55.5t99 20q60 0 103 -20t66 -54t23 -78q0 -30 -10.5 -58t-38.5 -49q-19 -14 -22 -17v1q1 0 1 1h-1q-2 0 -21 -6q39 -12 72.5 -37.5t54 -70t20.5 -105.5v-51
q0 -56 -18 -100t-50.5 -74.5t-77 -46.5t-96.5 -16z" />
    <glyph glyph-name="uni1C93" unicode="&#x1c93;" horiz-adv-x="869" 
d="M603 349q65 0 105.5 40t40.5 115v43q0 75 -40.5 114.5t-105.5 39.5q-64 0 -105.5 -39.5t-41.5 -114.5v-43q0 -75 41.5 -115t105.5 -40zM617 0q-2 19 -11 39.5t-28.5 38t-52 28t-80.5 10.5h-284v58h85q-53 18 -96 58.5t-68 99.5t-25 134v72q0 70 25 121.5t70.5 79.5
t107.5 28q59 0 104 -28.5t61 -81.5q18 53 67.5 81.5t110.5 28.5q62 0 111.5 -25t79 -75t29.5 -125v-33q0 -74 -29.5 -124.5t-79 -75.5t-111.5 -25q-61 0 -111 25t-79.5 75.5t-29.5 124.5v56q0 40 -13 70.5t-40.5 48t-69.5 17.5q-38 0 -67 -19t-45.5 -56t-16.5 -91v-80
q0 -57 19.5 -106t55 -86.5t83 -59t103.5 -23.5l87 -3q67 -3 113.5 -28t71 -64t26.5 -85h-73z" />
    <glyph glyph-name="uni1C94" unicode="&#x1c94;" horiz-adv-x="603" 
d="M293 -14q-70 0 -123 30t-82.5 83t-29.5 123q0 23 3 45t10 46h73q-5 -23 -8 -43.5t-3 -41.5q0 -54 19 -93.5t55 -60.5t86 -21q49 0 85 20.5t56.5 57.5t20.5 88v331q0 45 -19.5 79t-54.5 53t-82 19t-81.5 -18t-53 -49.5t-18.5 -74.5q0 -17 2 -35t7 -41h-72q-5 22 -8 42
t-3 41q0 62 31 107t83 69.5t113 24.5q60 0 112.5 -24.5t84.5 -73t32 -120.5v-331q0 -74 -31 -126t-84 -79t-120 -27z" />
    <glyph glyph-name="uni1C95" unicode="&#x1c95;" 
d="M293 -14q-72 0 -126 28.5t-84 77.5t-30 113q0 18 3 37t8 35h71q-4 -17 -6.5 -35t-2.5 -37q0 -27 10 -54t31 -49.5t52 -35.5t74 -13q56 0 93 22t55 57.5t18 78.5q0 50 -20 85t-57.5 54t-89.5 19h-34v64h34q72 0 112.5 32.5t41.5 97.5q0 39 -18.5 70.5t-52.5 49.5t-81 18
t-80.5 -17.5t-52 -47.5t-18.5 -68q0 -12 1 -25.5t4 -31.5h-73q-2 15 -3.5 29t-1.5 27q0 62 30.5 107t81.5 69t112 24q64 0 115.5 -24t81 -69.5t29.5 -108.5q0 -51 -20.5 -87t-60.5 -58q-24 -12 -30 -16q2 1 2 2h-1q-3 0 -18 -5q24 -6 57 -24t59 -61t26 -104
q0 -69 -31 -119.5t-85 -78.5t-125 -28zM407 403l2 1v0q-1 -1 -2 -1z" />
    <glyph glyph-name="uni1C96" unicode="&#x1c96;" horiz-adv-x="620" 
d="M333 53q53 0 90.5 21.5t57 59.5t19.5 85v37q0 48 -19.5 85.5t-57 59t-90.5 21.5t-90.5 -21.5t-57 -59t-19.5 -85.5v-37q0 -47 19.5 -85t57 -59.5t90.5 -21.5zM244 477q52 0 85 30.5t33 82.5q0 50 -33 81.5t-85 31.5q-51 0 -84 -31.5t-33 -81.5q0 -52 33 -82.5t84 -30.5z
M333 -14q-70 0 -124.5 28.5t-86 80.5t-31.5 124v38q0 37 11.5 74t36.5 67q20 25 21 26l-1 -1v-1v0q2 0 20 11q-24 5 -52 21.5t-50 51t-22 85.5q0 56 25 95t68 60t96 21q54 0 96.5 -21t68 -59.5t25.5 -91.5q0 -44 -17 -74l-17 -30v0l0.5 0.5l0.5 0.5q0 1 -1 1q-2 0 -17 -11
q35 -4 69.5 -19t63 -45t44 -71t15.5 -90v-38q0 -54 -18 -97t-51 -73t-77 -46.5t-96 -16.5z" />
    <glyph glyph-name="uni1C97" unicode="&#x1c97;" horiz-adv-x="949" 
d="M306 52q76 0 118 50.5t42 148.5v251q0 99 -42 149t-118 50q-74 0 -117 -50.5t-43 -148.5v-251q0 -98 43 -148.5t117 -50.5zM306 -14q-72 0 -124 31.5t-80.5 91.5t-28.5 145v245q0 85 28 145t80 91.5t122 31.5q45 0 83.5 -14t67.5 -42.5t44 -70.5q13 42 38 70.5t61 42.5
t79 14q59 0 104 -29t70 -86t25 -144v-133q0 -130 -22 -223t-50 -152h-74q23 47 39.5 104t25.5 124.5t9 143.5v148q0 63 -18.5 102.5t-49 58.5t-67.5 19q-36 0 -65 -16t-46.5 -50.5t-17.5 -92.5v-287q0 -85 -28 -145t-80.5 -91.5t-124.5 -31.5z" />
    <glyph glyph-name="uni1C98" unicode="&#x1c98;" horiz-adv-x="614" 
d="M143 0q-14 30 -30.5 82t-27.5 125.5t-11 167.5v124q0 85 28 145t80.5 91.5t124.5 31.5t124 -31.5t80.5 -91.5t28.5 -145v-124q0 -94 -11 -167.5t-27 -125.5t-31 -82h-76q21 43 37.5 96t25.5 121t9 154v131q0 98 -42.5 148.5t-117.5 50.5t-117.5 -50.5t-42.5 -148.5v-131
q0 -86 9 -154t25.5 -121t36.5 -96h-75z" />
    <glyph glyph-name="uni1C99" unicode="&#x1c99;" horiz-adv-x="566" 
d="M272 -14q-69 0 -122 30t-83.5 83t-30.5 123q0 23 3 45t10 46h73q-5 -23 -8 -43.5t-3 -41.5q0 -54 20 -93.5t56 -60.5t85 -21t85 20.5t56 60t20 95.5q0 58 -20.5 98.5t-57.5 61.5t-89 21h-27v64h20q70 0 103 33.5t34 95.5v7q0 38 -10.5 73t-29.5 72h73q19 -33 29.5 -70
t10.5 -82q0 -62 -34 -107q-28 -36 -31 -40v0q0 1 -1 1q-6 0 -39 -11q34 -9 67 -33.5t55 -72t22 -115.5q0 -78 -31.5 -131t-85 -80.5t-119.5 -27.5zM404 456v0v0v0zM404 456z" />
    <glyph glyph-name="uni1C9A" unicode="&#x1c9a;" horiz-adv-x="1108" 
d="M733 0q-2 33 -24 61.5t-65.5 47t-113.5 18.5h-358v58h100q-45 14 -84.5 39.5t-69.5 63.5t-47 87.5t-17 109.5v64q0 69 25.5 118t69.5 74.5t99 25.5q62 0 102.5 -28.5t55.5 -82.5q15 54 56 82.5t93 28.5q57 0 96.5 -28.5t55.5 -82.5q15 54 59 82.5t104 28.5
q84 0 135.5 -58t51.5 -163v-51q0 -37 -5.5 -75.5t-15 -73t-21.5 -60.5h-74q21 45 32 99t11 107v57q0 75 -34 113.5t-90 38.5q-35 0 -61 -17t-40.5 -47t-14.5 -69v-169h-74v169q0 40 -13 69.5t-38.5 46.5t-63.5 17q-35 0 -60.5 -17t-39.5 -46.5t-14 -69.5v-169h-74v169
q0 40 -12.5 69.5t-37.5 46.5t-63 17q-34 0 -63 -16t-46 -51t-17 -91v-68q0 -61 24 -111t66.5 -87.5t97.5 -58.5t116 -24l134 -5q69 -3 121.5 -26.5t84 -64.5t35.5 -98h-74z" />
    </font>
</defs>
</svg>
